G04 EAGLE Gerber RS-274X export*
G75*
%MOMM*%
%FSLAX34Y34*%
%LPD*%
%INTop Soldermask*%
%IPPOS*%
%AMOC8*
5,1,8,0,0,1.08239X$1,22.5*%
G01*
%ADD10R,4.300000X7.450000*%
%ADD11C,0.320000*%
%ADD12R,2.180000X1.820000*%
%ADD13R,1.200000X0.300000*%
%ADD14R,0.300000X1.200000*%
%ADD15C,0.100000*%
%ADD16C,0.120000*%
%ADD17R,1.200000X1.300000*%
%ADD18C,0.240000*%
%ADD19R,1.800000X3.400000*%
%ADD20C,0.180000*%
%ADD21R,1.000000X4.000000*%
%ADD22C,0.090000*%
%ADD23R,1.700000X0.600000*%
%ADD24R,2.700000X1.000000*%
%ADD25R,4.000000X10.000000*%
%ADD26C,0.312000*%
%ADD27R,2.410000X3.290000*%
%ADD28C,0.442500*%
%ADD29R,1.000000X0.600000*%
%ADD30C,1.350000*%
%ADD31C,0.804800*%
%ADD32C,1.204156*%
%ADD33C,1.500000*%
%ADD34R,1.200000X1.200000*%
%ADD35C,0.140000*%
%ADD36C,3.800000*%


D10*
X478500Y91750D03*
X478500Y249750D03*
X478500Y407750D03*
D11*
X280600Y123400D02*
X280600Y110600D01*
X280600Y123400D02*
X304400Y123400D01*
X304400Y110600D01*
X280600Y110600D01*
X280600Y113640D02*
X304400Y113640D01*
X304400Y116680D02*
X280600Y116680D01*
X280600Y119720D02*
X304400Y119720D01*
X304400Y122760D02*
X280600Y122760D01*
X280600Y95400D02*
X280600Y82600D01*
X280600Y95400D02*
X304400Y95400D01*
X304400Y82600D01*
X280600Y82600D01*
X280600Y85640D02*
X304400Y85640D01*
X304400Y88680D02*
X280600Y88680D01*
X280600Y91720D02*
X304400Y91720D01*
X304400Y94760D02*
X280600Y94760D01*
X315900Y131600D02*
X315900Y144400D01*
X315900Y131600D02*
X292100Y131600D01*
X292100Y144400D01*
X315900Y144400D01*
X315900Y134640D02*
X292100Y134640D01*
X292100Y137680D02*
X315900Y137680D01*
X315900Y140720D02*
X292100Y140720D01*
X292100Y143760D02*
X315900Y143760D01*
X315900Y159600D02*
X315900Y172400D01*
X315900Y159600D02*
X292100Y159600D01*
X292100Y172400D01*
X315900Y172400D01*
X315900Y162640D02*
X292100Y162640D01*
X292100Y165680D02*
X315900Y165680D01*
X315900Y168720D02*
X292100Y168720D01*
X292100Y171760D02*
X315900Y171760D01*
X318100Y123400D02*
X318100Y110600D01*
X318100Y123400D02*
X341900Y123400D01*
X341900Y110600D01*
X318100Y110600D01*
X318100Y113640D02*
X341900Y113640D01*
X341900Y116680D02*
X318100Y116680D01*
X318100Y119720D02*
X341900Y119720D01*
X341900Y122760D02*
X318100Y122760D01*
X318100Y95400D02*
X318100Y82600D01*
X318100Y95400D02*
X341900Y95400D01*
X341900Y82600D01*
X318100Y82600D01*
X318100Y85640D02*
X341900Y85640D01*
X341900Y88680D02*
X318100Y88680D01*
X318100Y91720D02*
X341900Y91720D01*
X341900Y94760D02*
X318100Y94760D01*
X381400Y137100D02*
X381400Y149900D01*
X381400Y137100D02*
X357600Y137100D01*
X357600Y149900D01*
X381400Y149900D01*
X381400Y140140D02*
X357600Y140140D01*
X357600Y143180D02*
X381400Y143180D01*
X381400Y146220D02*
X357600Y146220D01*
X357600Y149260D02*
X381400Y149260D01*
X381400Y165100D02*
X381400Y177900D01*
X381400Y165100D02*
X357600Y165100D01*
X357600Y177900D01*
X381400Y177900D01*
X381400Y168140D02*
X357600Y168140D01*
X357600Y171180D02*
X381400Y171180D01*
X381400Y174220D02*
X357600Y174220D01*
X357600Y177260D02*
X381400Y177260D01*
X413400Y142900D02*
X413400Y130100D01*
X389600Y130100D01*
X389600Y142900D01*
X413400Y142900D01*
X413400Y133140D02*
X389600Y133140D01*
X389600Y136180D02*
X413400Y136180D01*
X413400Y139220D02*
X389600Y139220D01*
X389600Y142260D02*
X413400Y142260D01*
X413400Y158100D02*
X413400Y170900D01*
X413400Y158100D02*
X389600Y158100D01*
X389600Y170900D01*
X413400Y170900D01*
X413400Y161140D02*
X389600Y161140D01*
X389600Y164180D02*
X413400Y164180D01*
X413400Y167220D02*
X389600Y167220D01*
X389600Y170260D02*
X413400Y170260D01*
X445400Y142900D02*
X445400Y130100D01*
X421600Y130100D01*
X421600Y142900D01*
X445400Y142900D01*
X445400Y133140D02*
X421600Y133140D01*
X421600Y136180D02*
X445400Y136180D01*
X445400Y139220D02*
X421600Y139220D01*
X421600Y142260D02*
X445400Y142260D01*
X445400Y158100D02*
X445400Y170900D01*
X445400Y158100D02*
X421600Y158100D01*
X421600Y170900D01*
X445400Y170900D01*
X445400Y161140D02*
X421600Y161140D01*
X421600Y164180D02*
X445400Y164180D01*
X445400Y167220D02*
X421600Y167220D01*
X421600Y170260D02*
X445400Y170260D01*
X287100Y268600D02*
X287100Y281400D01*
X310900Y281400D01*
X310900Y268600D01*
X287100Y268600D01*
X287100Y271640D02*
X310900Y271640D01*
X310900Y274680D02*
X287100Y274680D01*
X287100Y277720D02*
X310900Y277720D01*
X310900Y280760D02*
X287100Y280760D01*
X287100Y253400D02*
X287100Y240600D01*
X287100Y253400D02*
X310900Y253400D01*
X310900Y240600D01*
X287100Y240600D01*
X287100Y243640D02*
X310900Y243640D01*
X310900Y246680D02*
X287100Y246680D01*
X287100Y249720D02*
X310900Y249720D01*
X310900Y252760D02*
X287100Y252760D01*
X319100Y268600D02*
X319100Y281400D01*
X342900Y281400D01*
X342900Y268600D01*
X319100Y268600D01*
X319100Y271640D02*
X342900Y271640D01*
X342900Y274680D02*
X319100Y274680D01*
X319100Y277720D02*
X342900Y277720D01*
X342900Y280760D02*
X319100Y280760D01*
X319100Y253400D02*
X319100Y240600D01*
X319100Y253400D02*
X342900Y253400D01*
X342900Y240600D01*
X319100Y240600D01*
X319100Y243640D02*
X342900Y243640D01*
X342900Y246680D02*
X319100Y246680D01*
X319100Y249720D02*
X342900Y249720D01*
X342900Y252760D02*
X319100Y252760D01*
D12*
X208000Y443400D03*
X208000Y487600D03*
D13*
X170500Y160500D03*
X170500Y165500D03*
X170500Y170500D03*
X170500Y175500D03*
X170500Y180500D03*
X170500Y185500D03*
X170500Y190500D03*
X170500Y195500D03*
X170500Y200500D03*
X170500Y205500D03*
X170500Y210500D03*
X170500Y215500D03*
D14*
X155500Y230500D03*
X150500Y230500D03*
X145500Y230500D03*
X140500Y230500D03*
X135500Y230500D03*
X130500Y230500D03*
X125500Y230500D03*
X120500Y230500D03*
X115500Y230500D03*
X110500Y230500D03*
X105500Y230500D03*
X100500Y230500D03*
D13*
X85500Y215500D03*
X85500Y210500D03*
X85500Y205500D03*
X85500Y200500D03*
X85500Y195500D03*
X85500Y190500D03*
X85500Y185500D03*
X85500Y180500D03*
X85500Y175500D03*
X85500Y170500D03*
X85500Y165500D03*
X85500Y160500D03*
D14*
X100500Y145500D03*
X105500Y145500D03*
X110500Y145500D03*
X115500Y145500D03*
X120500Y145500D03*
X125500Y145500D03*
X130500Y145500D03*
X135500Y145500D03*
X140500Y145500D03*
X145500Y145500D03*
X150500Y145500D03*
X155500Y145500D03*
D15*
X100000Y239500D02*
X96000Y239500D01*
X96000Y244500D01*
X100000Y244500D01*
X100000Y239500D01*
X100000Y240450D02*
X96000Y240450D01*
X96000Y241400D02*
X100000Y241400D01*
X100000Y242350D02*
X96000Y242350D01*
X96000Y243300D02*
X100000Y243300D01*
X100000Y244250D02*
X96000Y244250D01*
X106000Y239500D02*
X110000Y239500D01*
X106000Y239500D02*
X106000Y244500D01*
X110000Y244500D01*
X110000Y239500D01*
X110000Y240450D02*
X106000Y240450D01*
X106000Y241400D02*
X110000Y241400D01*
X110000Y242350D02*
X106000Y242350D01*
X106000Y243300D02*
X110000Y243300D01*
X110000Y244250D02*
X106000Y244250D01*
X77000Y160000D02*
X77000Y156000D01*
X72000Y156000D01*
X72000Y160000D01*
X77000Y160000D01*
X77000Y156950D02*
X72000Y156950D01*
X72000Y157900D02*
X77000Y157900D01*
X77000Y158850D02*
X72000Y158850D01*
X72000Y159800D02*
X77000Y159800D01*
X77000Y166000D02*
X77000Y170000D01*
X77000Y166000D02*
X72000Y166000D01*
X72000Y170000D01*
X77000Y170000D01*
X77000Y166950D02*
X72000Y166950D01*
X72000Y167900D02*
X77000Y167900D01*
X77000Y168850D02*
X72000Y168850D01*
X72000Y169800D02*
X77000Y169800D01*
X156000Y136500D02*
X160000Y136500D01*
X160000Y131500D01*
X156000Y131500D01*
X156000Y136500D01*
X156000Y132450D02*
X160000Y132450D01*
X160000Y133400D02*
X156000Y133400D01*
X156000Y134350D02*
X160000Y134350D01*
X160000Y135300D02*
X156000Y135300D01*
X156000Y136250D02*
X160000Y136250D01*
X150000Y136500D02*
X146000Y136500D01*
X150000Y136500D02*
X150000Y131500D01*
X146000Y131500D01*
X146000Y136500D01*
X146000Y132450D02*
X150000Y132450D01*
X150000Y133400D02*
X146000Y133400D01*
X146000Y134350D02*
X150000Y134350D01*
X150000Y135300D02*
X146000Y135300D01*
X146000Y136250D02*
X150000Y136250D01*
D16*
X160600Y127900D02*
X165400Y127900D01*
X165400Y120100D01*
X160600Y120100D01*
X160600Y127900D01*
X160600Y121240D02*
X165400Y121240D01*
X165400Y122380D02*
X160600Y122380D01*
X160600Y123520D02*
X165400Y123520D01*
X165400Y124660D02*
X160600Y124660D01*
X160600Y125800D02*
X165400Y125800D01*
X165400Y126940D02*
X160600Y126940D01*
X150400Y127900D02*
X145600Y127900D01*
X150400Y127900D02*
X150400Y120100D01*
X145600Y120100D01*
X145600Y127900D01*
X145600Y121240D02*
X150400Y121240D01*
X150400Y122380D02*
X145600Y122380D01*
X145600Y123520D02*
X150400Y123520D01*
X150400Y124660D02*
X145600Y124660D01*
X145600Y125800D02*
X150400Y125800D01*
X150400Y126940D02*
X145600Y126940D01*
X159100Y116400D02*
X159100Y111600D01*
X159100Y116400D02*
X166900Y116400D01*
X166900Y111600D01*
X159100Y111600D01*
X159100Y112740D02*
X166900Y112740D01*
X166900Y113880D02*
X159100Y113880D01*
X159100Y115020D02*
X166900Y115020D01*
X166900Y116160D02*
X159100Y116160D01*
X159100Y101400D02*
X159100Y96600D01*
X159100Y101400D02*
X166900Y101400D01*
X166900Y96600D01*
X159100Y96600D01*
X159100Y97740D02*
X166900Y97740D01*
X166900Y98880D02*
X159100Y98880D01*
X159100Y100020D02*
X166900Y100020D01*
X166900Y101160D02*
X159100Y101160D01*
D15*
X116500Y261000D02*
X112500Y261000D01*
X116500Y261000D02*
X116500Y256000D01*
X112500Y256000D01*
X112500Y261000D01*
X112500Y256950D02*
X116500Y256950D01*
X116500Y257900D02*
X112500Y257900D01*
X112500Y258850D02*
X116500Y258850D01*
X116500Y259800D02*
X112500Y259800D01*
X112500Y260750D02*
X116500Y260750D01*
X106500Y261000D02*
X102500Y261000D01*
X106500Y261000D02*
X106500Y256000D01*
X102500Y256000D01*
X102500Y261000D01*
X102500Y256950D02*
X106500Y256950D01*
X106500Y257900D02*
X102500Y257900D01*
X102500Y258850D02*
X106500Y258850D01*
X106500Y259800D02*
X102500Y259800D01*
X102500Y260750D02*
X106500Y260750D01*
X112500Y252500D02*
X116500Y252500D01*
X116500Y247500D01*
X112500Y247500D01*
X112500Y252500D01*
X112500Y248450D02*
X116500Y248450D01*
X116500Y249400D02*
X112500Y249400D01*
X112500Y250350D02*
X116500Y250350D01*
X116500Y251300D02*
X112500Y251300D01*
X112500Y252250D02*
X116500Y252250D01*
X106500Y252500D02*
X102500Y252500D01*
X106500Y252500D02*
X106500Y247500D01*
X102500Y247500D01*
X102500Y252500D01*
X102500Y248450D02*
X106500Y248450D01*
X106500Y249400D02*
X102500Y249400D01*
X102500Y250350D02*
X106500Y250350D01*
X106500Y251300D02*
X102500Y251300D01*
X102500Y252250D02*
X106500Y252250D01*
D16*
X109100Y279100D02*
X109100Y283900D01*
X116900Y283900D01*
X116900Y279100D01*
X109100Y279100D01*
X109100Y280240D02*
X116900Y280240D01*
X116900Y281380D02*
X109100Y281380D01*
X109100Y282520D02*
X116900Y282520D01*
X116900Y283660D02*
X109100Y283660D01*
X109100Y268900D02*
X109100Y264100D01*
X109100Y268900D02*
X116900Y268900D01*
X116900Y264100D01*
X109100Y264100D01*
X109100Y265240D02*
X116900Y265240D01*
X116900Y266380D02*
X109100Y266380D01*
X109100Y267520D02*
X116900Y267520D01*
X116900Y268660D02*
X109100Y268660D01*
D17*
X202000Y168500D03*
X202000Y192500D03*
X185000Y192500D03*
X185000Y168500D03*
D15*
X190000Y154000D02*
X194000Y154000D01*
X190000Y154000D02*
X190000Y159000D01*
X194000Y159000D01*
X194000Y154000D01*
X194000Y154950D02*
X190000Y154950D01*
X190000Y155900D02*
X194000Y155900D01*
X194000Y156850D02*
X190000Y156850D01*
X190000Y157800D02*
X194000Y157800D01*
X194000Y158750D02*
X190000Y158750D01*
X200000Y154000D02*
X204000Y154000D01*
X200000Y154000D02*
X200000Y159000D01*
X204000Y159000D01*
X204000Y154000D01*
X204000Y154950D02*
X200000Y154950D01*
X200000Y155900D02*
X204000Y155900D01*
X204000Y156850D02*
X200000Y156850D01*
X200000Y157800D02*
X204000Y157800D01*
X204000Y158750D02*
X200000Y158750D01*
X198000Y207000D02*
X194000Y207000D01*
X198000Y207000D02*
X198000Y202000D01*
X194000Y202000D01*
X194000Y207000D01*
X194000Y202950D02*
X198000Y202950D01*
X198000Y203900D02*
X194000Y203900D01*
X194000Y204850D02*
X198000Y204850D01*
X198000Y205800D02*
X194000Y205800D01*
X194000Y206750D02*
X198000Y206750D01*
X188000Y207000D02*
X184000Y207000D01*
X188000Y207000D02*
X188000Y202000D01*
X184000Y202000D01*
X184000Y207000D01*
X184000Y202950D02*
X188000Y202950D01*
X188000Y203900D02*
X184000Y203900D01*
X184000Y204850D02*
X188000Y204850D01*
X188000Y205800D02*
X184000Y205800D01*
X184000Y206750D02*
X188000Y206750D01*
X196000Y227000D02*
X200000Y227000D01*
X196000Y227000D02*
X196000Y232000D01*
X200000Y232000D01*
X200000Y227000D01*
X200000Y227950D02*
X196000Y227950D01*
X196000Y228900D02*
X200000Y228900D01*
X200000Y229850D02*
X196000Y229850D01*
X196000Y230800D02*
X200000Y230800D01*
X200000Y231750D02*
X196000Y231750D01*
X206000Y227000D02*
X210000Y227000D01*
X206000Y227000D02*
X206000Y232000D01*
X210000Y232000D01*
X210000Y227000D01*
X210000Y227950D02*
X206000Y227950D01*
X206000Y228900D02*
X210000Y228900D01*
X210000Y229850D02*
X206000Y229850D01*
X206000Y230800D02*
X210000Y230800D01*
X210000Y231750D02*
X206000Y231750D01*
X183000Y227000D02*
X179000Y227000D01*
X179000Y232000D01*
X183000Y232000D01*
X183000Y227000D01*
X183000Y227950D02*
X179000Y227950D01*
X179000Y228900D02*
X183000Y228900D01*
X183000Y229850D02*
X179000Y229850D01*
X179000Y230800D02*
X183000Y230800D01*
X183000Y231750D02*
X179000Y231750D01*
X189000Y227000D02*
X193000Y227000D01*
X189000Y227000D02*
X189000Y232000D01*
X193000Y232000D01*
X193000Y227000D01*
X193000Y227950D02*
X189000Y227950D01*
X189000Y228900D02*
X193000Y228900D01*
X193000Y229850D02*
X189000Y229850D01*
X189000Y230800D02*
X193000Y230800D01*
X193000Y231750D02*
X189000Y231750D01*
X206000Y224000D02*
X210000Y224000D01*
X210000Y219000D01*
X206000Y219000D01*
X206000Y224000D01*
X206000Y219950D02*
X210000Y219950D01*
X210000Y220900D02*
X206000Y220900D01*
X206000Y221850D02*
X210000Y221850D01*
X210000Y222800D02*
X206000Y222800D01*
X206000Y223750D02*
X210000Y223750D01*
X200000Y224000D02*
X196000Y224000D01*
X200000Y224000D02*
X200000Y219000D01*
X196000Y219000D01*
X196000Y224000D01*
X196000Y219950D02*
X200000Y219950D01*
X200000Y220900D02*
X196000Y220900D01*
X196000Y221850D02*
X200000Y221850D01*
X200000Y222800D02*
X196000Y222800D01*
X196000Y223750D02*
X200000Y223750D01*
X176000Y273000D02*
X172000Y273000D01*
X176000Y273000D02*
X176000Y268000D01*
X172000Y268000D01*
X172000Y273000D01*
X172000Y268950D02*
X176000Y268950D01*
X176000Y269900D02*
X172000Y269900D01*
X172000Y270850D02*
X176000Y270850D01*
X176000Y271800D02*
X172000Y271800D01*
X172000Y272750D02*
X176000Y272750D01*
X166000Y273000D02*
X162000Y273000D01*
X166000Y273000D02*
X166000Y268000D01*
X162000Y268000D01*
X162000Y273000D01*
X162000Y268950D02*
X166000Y268950D01*
X166000Y269900D02*
X162000Y269900D01*
X162000Y270850D02*
X166000Y270850D01*
X166000Y271800D02*
X162000Y271800D01*
X162000Y272750D02*
X166000Y272750D01*
X182000Y289000D02*
X186000Y289000D01*
X186000Y284000D01*
X182000Y284000D01*
X182000Y289000D01*
X182000Y284950D02*
X186000Y284950D01*
X186000Y285900D02*
X182000Y285900D01*
X182000Y286850D02*
X186000Y286850D01*
X186000Y287800D02*
X182000Y287800D01*
X182000Y288750D02*
X186000Y288750D01*
X176000Y289000D02*
X172000Y289000D01*
X176000Y289000D02*
X176000Y284000D01*
X172000Y284000D01*
X172000Y289000D01*
X172000Y284950D02*
X176000Y284950D01*
X176000Y285900D02*
X172000Y285900D01*
X172000Y286850D02*
X176000Y286850D01*
X176000Y287800D02*
X172000Y287800D01*
X172000Y288750D02*
X176000Y288750D01*
X182000Y281000D02*
X186000Y281000D01*
X186000Y276000D01*
X182000Y276000D01*
X182000Y281000D01*
X182000Y276950D02*
X186000Y276950D01*
X186000Y277900D02*
X182000Y277900D01*
X182000Y278850D02*
X186000Y278850D01*
X186000Y279800D02*
X182000Y279800D01*
X182000Y280750D02*
X186000Y280750D01*
X176000Y281000D02*
X172000Y281000D01*
X176000Y281000D02*
X176000Y276000D01*
X172000Y276000D01*
X172000Y281000D01*
X172000Y276950D02*
X176000Y276950D01*
X176000Y277900D02*
X172000Y277900D01*
X172000Y278850D02*
X176000Y278850D01*
X176000Y279800D02*
X172000Y279800D01*
X172000Y280750D02*
X176000Y280750D01*
X156000Y276000D02*
X152000Y276000D01*
X152000Y281000D01*
X156000Y281000D01*
X156000Y276000D01*
X156000Y276950D02*
X152000Y276950D01*
X152000Y277900D02*
X156000Y277900D01*
X156000Y278850D02*
X152000Y278850D01*
X152000Y279800D02*
X156000Y279800D01*
X156000Y280750D02*
X152000Y280750D01*
X162000Y276000D02*
X166000Y276000D01*
X162000Y276000D02*
X162000Y281000D01*
X166000Y281000D01*
X166000Y276000D01*
X166000Y276950D02*
X162000Y276950D01*
X162000Y277900D02*
X166000Y277900D01*
X166000Y278850D02*
X162000Y278850D01*
X162000Y279800D02*
X166000Y279800D01*
X166000Y280750D02*
X162000Y280750D01*
X140500Y254500D02*
X136500Y254500D01*
X136500Y259500D01*
X140500Y259500D01*
X140500Y254500D01*
X140500Y255450D02*
X136500Y255450D01*
X136500Y256400D02*
X140500Y256400D01*
X140500Y257350D02*
X136500Y257350D01*
X136500Y258300D02*
X140500Y258300D01*
X140500Y259250D02*
X136500Y259250D01*
X146500Y254500D02*
X150500Y254500D01*
X146500Y254500D02*
X146500Y259500D01*
X150500Y259500D01*
X150500Y254500D01*
X150500Y255450D02*
X146500Y255450D01*
X146500Y256400D02*
X150500Y256400D01*
X150500Y257350D02*
X146500Y257350D01*
X146500Y258300D02*
X150500Y258300D01*
X150500Y259250D02*
X146500Y259250D01*
X151500Y294000D02*
X151500Y298000D01*
X156500Y298000D01*
X156500Y294000D01*
X151500Y294000D01*
X151500Y294950D02*
X156500Y294950D01*
X156500Y295900D02*
X151500Y295900D01*
X151500Y296850D02*
X156500Y296850D01*
X156500Y297800D02*
X151500Y297800D01*
X151500Y288000D02*
X151500Y284000D01*
X151500Y288000D02*
X156500Y288000D01*
X156500Y284000D01*
X151500Y284000D01*
X151500Y284950D02*
X156500Y284950D01*
X156500Y285900D02*
X151500Y285900D01*
X151500Y286850D02*
X156500Y286850D01*
X156500Y287800D02*
X151500Y287800D01*
D16*
X221600Y204900D02*
X221600Y200100D01*
X221600Y204900D02*
X229400Y204900D01*
X229400Y200100D01*
X221600Y200100D01*
X221600Y201240D02*
X229400Y201240D01*
X229400Y202380D02*
X221600Y202380D01*
X221600Y203520D02*
X229400Y203520D01*
X229400Y204660D02*
X221600Y204660D01*
X221600Y189900D02*
X221600Y185100D01*
X221600Y189900D02*
X229400Y189900D01*
X229400Y185100D01*
X221600Y185100D01*
X221600Y186240D02*
X229400Y186240D01*
X229400Y187380D02*
X221600Y187380D01*
X221600Y188520D02*
X229400Y188520D01*
X229400Y189660D02*
X221600Y189660D01*
X212900Y208100D02*
X208100Y208100D01*
X208100Y215900D01*
X212900Y215900D01*
X212900Y208100D01*
X212900Y209240D02*
X208100Y209240D01*
X208100Y210380D02*
X212900Y210380D01*
X212900Y211520D02*
X208100Y211520D01*
X208100Y212660D02*
X212900Y212660D01*
X212900Y213800D02*
X208100Y213800D01*
X208100Y214940D02*
X212900Y214940D01*
X223100Y208100D02*
X227900Y208100D01*
X223100Y208100D02*
X223100Y215900D01*
X227900Y215900D01*
X227900Y208100D01*
X227900Y209240D02*
X223100Y209240D01*
X223100Y210380D02*
X227900Y210380D01*
X227900Y211520D02*
X223100Y211520D01*
X223100Y212660D02*
X227900Y212660D01*
X227900Y213800D02*
X223100Y213800D01*
X223100Y214940D02*
X227900Y214940D01*
D18*
X371000Y87500D03*
X371000Y91500D03*
X371000Y95500D03*
X371000Y99500D03*
X367000Y87500D03*
X367000Y99500D03*
X363000Y87500D03*
X363000Y99500D03*
X359000Y87500D03*
X359000Y91500D03*
X359000Y95500D03*
X359000Y99500D03*
D15*
X358000Y76500D02*
X362000Y76500D01*
X358000Y76500D02*
X358000Y81500D01*
X362000Y81500D01*
X362000Y76500D01*
X362000Y77450D02*
X358000Y77450D01*
X358000Y78400D02*
X362000Y78400D01*
X362000Y79350D02*
X358000Y79350D01*
X358000Y80300D02*
X362000Y80300D01*
X362000Y81250D02*
X358000Y81250D01*
X368000Y76500D02*
X372000Y76500D01*
X368000Y76500D02*
X368000Y81500D01*
X372000Y81500D01*
X372000Y76500D01*
X372000Y77450D02*
X368000Y77450D01*
X368000Y78400D02*
X372000Y78400D01*
X372000Y79350D02*
X368000Y79350D01*
X368000Y80300D02*
X372000Y80300D01*
X372000Y81250D02*
X368000Y81250D01*
X364000Y110500D02*
X360000Y110500D01*
X364000Y110500D02*
X364000Y105500D01*
X360000Y105500D01*
X360000Y110500D01*
X360000Y106450D02*
X364000Y106450D01*
X364000Y107400D02*
X360000Y107400D01*
X360000Y108350D02*
X364000Y108350D01*
X364000Y109300D02*
X360000Y109300D01*
X360000Y110250D02*
X364000Y110250D01*
X354000Y110500D02*
X350000Y110500D01*
X354000Y110500D02*
X354000Y105500D01*
X350000Y105500D01*
X350000Y110500D01*
X350000Y106450D02*
X354000Y106450D01*
X354000Y107400D02*
X350000Y107400D01*
X350000Y108350D02*
X354000Y108350D01*
X354000Y109300D02*
X350000Y109300D01*
X350000Y110250D02*
X354000Y110250D01*
D18*
X370500Y245500D03*
X370500Y249500D03*
X370500Y253500D03*
X370500Y257500D03*
X366500Y245500D03*
X366500Y257500D03*
X362500Y245500D03*
X362500Y257500D03*
X358500Y245500D03*
X358500Y249500D03*
X358500Y253500D03*
X358500Y257500D03*
D15*
X357500Y234500D02*
X361500Y234500D01*
X357500Y234500D02*
X357500Y239500D01*
X361500Y239500D01*
X361500Y234500D01*
X361500Y235450D02*
X357500Y235450D01*
X357500Y236400D02*
X361500Y236400D01*
X361500Y237350D02*
X357500Y237350D01*
X357500Y238300D02*
X361500Y238300D01*
X361500Y239250D02*
X357500Y239250D01*
X367500Y234500D02*
X371500Y234500D01*
X367500Y234500D02*
X367500Y239500D01*
X371500Y239500D01*
X371500Y234500D01*
X371500Y235450D02*
X367500Y235450D01*
X367500Y236400D02*
X371500Y236400D01*
X371500Y237350D02*
X367500Y237350D01*
X367500Y238300D02*
X371500Y238300D01*
X371500Y239250D02*
X367500Y239250D01*
X363500Y268500D02*
X359500Y268500D01*
X363500Y268500D02*
X363500Y263500D01*
X359500Y263500D01*
X359500Y268500D01*
X359500Y264450D02*
X363500Y264450D01*
X363500Y265400D02*
X359500Y265400D01*
X359500Y266350D02*
X363500Y266350D01*
X363500Y267300D02*
X359500Y267300D01*
X359500Y268250D02*
X363500Y268250D01*
X353500Y268500D02*
X349500Y268500D01*
X353500Y268500D02*
X353500Y263500D01*
X349500Y263500D01*
X349500Y268500D01*
X349500Y264450D02*
X353500Y264450D01*
X353500Y265400D02*
X349500Y265400D01*
X349500Y266350D02*
X353500Y266350D01*
X353500Y267300D02*
X349500Y267300D01*
X349500Y268250D02*
X353500Y268250D01*
D18*
X371000Y403500D03*
X371000Y407500D03*
X371000Y411500D03*
X371000Y415500D03*
X367000Y403500D03*
X367000Y415500D03*
X363000Y403500D03*
X363000Y415500D03*
X359000Y403500D03*
X359000Y407500D03*
X359000Y411500D03*
X359000Y415500D03*
D15*
X358000Y392500D02*
X362000Y392500D01*
X358000Y392500D02*
X358000Y397500D01*
X362000Y397500D01*
X362000Y392500D01*
X362000Y393450D02*
X358000Y393450D01*
X358000Y394400D02*
X362000Y394400D01*
X362000Y395350D02*
X358000Y395350D01*
X358000Y396300D02*
X362000Y396300D01*
X362000Y397250D02*
X358000Y397250D01*
X368000Y392500D02*
X372000Y392500D01*
X368000Y392500D02*
X368000Y397500D01*
X372000Y397500D01*
X372000Y392500D01*
X372000Y393450D02*
X368000Y393450D01*
X368000Y394400D02*
X372000Y394400D01*
X372000Y395350D02*
X368000Y395350D01*
X368000Y396300D02*
X372000Y396300D01*
X372000Y397250D02*
X368000Y397250D01*
X364000Y426500D02*
X360000Y426500D01*
X364000Y426500D02*
X364000Y421500D01*
X360000Y421500D01*
X360000Y426500D01*
X360000Y422450D02*
X364000Y422450D01*
X364000Y423400D02*
X360000Y423400D01*
X360000Y424350D02*
X364000Y424350D01*
X364000Y425300D02*
X360000Y425300D01*
X360000Y426250D02*
X364000Y426250D01*
X354000Y426500D02*
X350000Y426500D01*
X354000Y426500D02*
X354000Y421500D01*
X350000Y421500D01*
X350000Y426500D01*
X350000Y422450D02*
X354000Y422450D01*
X354000Y423400D02*
X350000Y423400D01*
X350000Y424350D02*
X354000Y424350D01*
X354000Y425300D02*
X350000Y425300D01*
X350000Y426250D02*
X354000Y426250D01*
X367000Y105500D02*
X371000Y105500D01*
X367000Y105500D02*
X367000Y110500D01*
X371000Y110500D01*
X371000Y105500D01*
X371000Y106450D02*
X367000Y106450D01*
X367000Y107400D02*
X371000Y107400D01*
X371000Y108350D02*
X367000Y108350D01*
X367000Y109300D02*
X371000Y109300D01*
X371000Y110250D02*
X367000Y110250D01*
X377000Y105500D02*
X381000Y105500D01*
X377000Y105500D02*
X377000Y110500D01*
X381000Y110500D01*
X381000Y105500D01*
X381000Y106450D02*
X377000Y106450D01*
X377000Y107400D02*
X381000Y107400D01*
X381000Y108350D02*
X377000Y108350D01*
X377000Y109300D02*
X381000Y109300D01*
X381000Y110250D02*
X377000Y110250D01*
X377500Y93500D02*
X377500Y89500D01*
X377500Y93500D02*
X382500Y93500D01*
X382500Y89500D01*
X377500Y89500D01*
X377500Y90450D02*
X382500Y90450D01*
X382500Y91400D02*
X377500Y91400D01*
X377500Y92350D02*
X382500Y92350D01*
X382500Y93300D02*
X377500Y93300D01*
X377500Y83500D02*
X377500Y79500D01*
X377500Y83500D02*
X382500Y83500D01*
X382500Y79500D01*
X377500Y79500D01*
X377500Y80450D02*
X382500Y80450D01*
X382500Y81400D02*
X377500Y81400D01*
X377500Y82350D02*
X382500Y82350D01*
X382500Y83300D02*
X377500Y83300D01*
D19*
X395500Y43000D03*
X343500Y43000D03*
D20*
X388500Y112550D02*
X388500Y117750D01*
X388500Y104450D02*
X388500Y99250D01*
X392500Y112550D02*
X392500Y117750D01*
X392500Y104450D02*
X392500Y99250D01*
X396500Y112550D02*
X396500Y117750D01*
X396500Y104450D02*
X396500Y99250D01*
X400500Y112550D02*
X400500Y117750D01*
X400500Y104450D02*
X400500Y99250D01*
X404500Y112550D02*
X404500Y117750D01*
X404500Y104450D02*
X404500Y99250D01*
X408500Y112550D02*
X408500Y117750D01*
X408500Y104450D02*
X408500Y99250D01*
X412500Y112550D02*
X412500Y117750D01*
X412500Y104450D02*
X412500Y99250D01*
X416500Y112550D02*
X416500Y117750D01*
X416500Y104450D02*
X416500Y99250D01*
X420500Y112550D02*
X420500Y117750D01*
X420500Y104450D02*
X420500Y99250D01*
X424500Y112550D02*
X424500Y117750D01*
X424500Y104450D02*
X424500Y99250D01*
X428500Y112550D02*
X428500Y117750D01*
X428500Y104450D02*
X428500Y99250D01*
X432500Y112550D02*
X432500Y117750D01*
X432500Y104450D02*
X432500Y99250D01*
X436500Y112550D02*
X436500Y117750D01*
X436500Y104450D02*
X436500Y99250D01*
X440500Y112550D02*
X440500Y117750D01*
X440500Y104450D02*
X440500Y99250D01*
X444500Y112550D02*
X444500Y117750D01*
X444500Y104450D02*
X444500Y99250D01*
X388500Y84750D02*
X388500Y79550D01*
X388500Y71450D02*
X388500Y66250D01*
X392500Y79550D02*
X392500Y84750D01*
X392500Y71450D02*
X392500Y66250D01*
X396500Y79550D02*
X396500Y84750D01*
X396500Y71450D02*
X396500Y66250D01*
X400500Y79550D02*
X400500Y84750D01*
X400500Y71450D02*
X400500Y66250D01*
X404500Y79550D02*
X404500Y84750D01*
X404500Y71450D02*
X404500Y66250D01*
X408500Y79550D02*
X408500Y84750D01*
X408500Y71450D02*
X408500Y66250D01*
X412500Y79550D02*
X412500Y84750D01*
X412500Y71450D02*
X412500Y66250D01*
X416500Y79550D02*
X416500Y84750D01*
X416500Y71450D02*
X416500Y66250D01*
X420500Y79550D02*
X420500Y84750D01*
X420500Y71450D02*
X420500Y66250D01*
X424500Y79550D02*
X424500Y84750D01*
X424500Y71450D02*
X424500Y66250D01*
X428500Y79550D02*
X428500Y84750D01*
X428500Y71450D02*
X428500Y66250D01*
X432500Y79550D02*
X432500Y84750D01*
X432500Y71450D02*
X432500Y66250D01*
X436500Y79550D02*
X436500Y84750D01*
X436500Y71450D02*
X436500Y66250D01*
X440500Y79550D02*
X440500Y84750D01*
X440500Y71450D02*
X440500Y66250D01*
X444500Y79550D02*
X444500Y84750D01*
X444500Y71450D02*
X444500Y66250D01*
D15*
X370500Y263500D02*
X366500Y263500D01*
X366500Y268500D01*
X370500Y268500D01*
X370500Y263500D01*
X370500Y264450D02*
X366500Y264450D01*
X366500Y265400D02*
X370500Y265400D01*
X370500Y266350D02*
X366500Y266350D01*
X366500Y267300D02*
X370500Y267300D01*
X370500Y268250D02*
X366500Y268250D01*
X376500Y263500D02*
X380500Y263500D01*
X376500Y263500D02*
X376500Y268500D01*
X380500Y268500D01*
X380500Y263500D01*
X380500Y264450D02*
X376500Y264450D01*
X376500Y265400D02*
X380500Y265400D01*
X380500Y266350D02*
X376500Y266350D01*
X376500Y267300D02*
X380500Y267300D01*
X380500Y268250D02*
X376500Y268250D01*
X377500Y251500D02*
X377500Y247500D01*
X377500Y251500D02*
X382500Y251500D01*
X382500Y247500D01*
X377500Y247500D01*
X377500Y248450D02*
X382500Y248450D01*
X382500Y249400D02*
X377500Y249400D01*
X377500Y250350D02*
X382500Y250350D01*
X382500Y251300D02*
X377500Y251300D01*
X377500Y241500D02*
X377500Y237500D01*
X377500Y241500D02*
X382500Y241500D01*
X382500Y237500D01*
X377500Y237500D01*
X377500Y238450D02*
X382500Y238450D01*
X382500Y239400D02*
X377500Y239400D01*
X377500Y240350D02*
X382500Y240350D01*
X382500Y241300D02*
X377500Y241300D01*
D19*
X395500Y200500D03*
X343500Y200500D03*
D20*
X388500Y270550D02*
X388500Y275750D01*
X388500Y262450D02*
X388500Y257250D01*
X392500Y270550D02*
X392500Y275750D01*
X392500Y262450D02*
X392500Y257250D01*
X396500Y270550D02*
X396500Y275750D01*
X396500Y262450D02*
X396500Y257250D01*
X400500Y270550D02*
X400500Y275750D01*
X400500Y262450D02*
X400500Y257250D01*
X404500Y270550D02*
X404500Y275750D01*
X404500Y262450D02*
X404500Y257250D01*
X408500Y270550D02*
X408500Y275750D01*
X408500Y262450D02*
X408500Y257250D01*
X412500Y270550D02*
X412500Y275750D01*
X412500Y262450D02*
X412500Y257250D01*
X416500Y270550D02*
X416500Y275750D01*
X416500Y262450D02*
X416500Y257250D01*
X420500Y270550D02*
X420500Y275750D01*
X420500Y262450D02*
X420500Y257250D01*
X424500Y270550D02*
X424500Y275750D01*
X424500Y262450D02*
X424500Y257250D01*
X428500Y270550D02*
X428500Y275750D01*
X428500Y262450D02*
X428500Y257250D01*
X432500Y270550D02*
X432500Y275750D01*
X432500Y262450D02*
X432500Y257250D01*
X436500Y270550D02*
X436500Y275750D01*
X436500Y262450D02*
X436500Y257250D01*
X440500Y270550D02*
X440500Y275750D01*
X440500Y262450D02*
X440500Y257250D01*
X444500Y270550D02*
X444500Y275750D01*
X444500Y262450D02*
X444500Y257250D01*
X388500Y242750D02*
X388500Y237550D01*
X388500Y229450D02*
X388500Y224250D01*
X392500Y237550D02*
X392500Y242750D01*
X392500Y229450D02*
X392500Y224250D01*
X396500Y237550D02*
X396500Y242750D01*
X396500Y229450D02*
X396500Y224250D01*
X400500Y237550D02*
X400500Y242750D01*
X400500Y229450D02*
X400500Y224250D01*
X404500Y237550D02*
X404500Y242750D01*
X404500Y229450D02*
X404500Y224250D01*
X408500Y237550D02*
X408500Y242750D01*
X408500Y229450D02*
X408500Y224250D01*
X412500Y237550D02*
X412500Y242750D01*
X412500Y229450D02*
X412500Y224250D01*
X416500Y237550D02*
X416500Y242750D01*
X416500Y229450D02*
X416500Y224250D01*
X420500Y237550D02*
X420500Y242750D01*
X420500Y229450D02*
X420500Y224250D01*
X424500Y237550D02*
X424500Y242750D01*
X424500Y229450D02*
X424500Y224250D01*
X428500Y237550D02*
X428500Y242750D01*
X428500Y229450D02*
X428500Y224250D01*
X432500Y237550D02*
X432500Y242750D01*
X432500Y229450D02*
X432500Y224250D01*
X436500Y237550D02*
X436500Y242750D01*
X436500Y229450D02*
X436500Y224250D01*
X440500Y237550D02*
X440500Y242750D01*
X440500Y229450D02*
X440500Y224250D01*
X444500Y237550D02*
X444500Y242750D01*
X444500Y229450D02*
X444500Y224250D01*
D15*
X371000Y421500D02*
X367000Y421500D01*
X367000Y426500D01*
X371000Y426500D01*
X371000Y421500D01*
X371000Y422450D02*
X367000Y422450D01*
X367000Y423400D02*
X371000Y423400D01*
X371000Y424350D02*
X367000Y424350D01*
X367000Y425300D02*
X371000Y425300D01*
X371000Y426250D02*
X367000Y426250D01*
X377000Y421500D02*
X381000Y421500D01*
X377000Y421500D02*
X377000Y426500D01*
X381000Y426500D01*
X381000Y421500D01*
X381000Y422450D02*
X377000Y422450D01*
X377000Y423400D02*
X381000Y423400D01*
X381000Y424350D02*
X377000Y424350D01*
X377000Y425300D02*
X381000Y425300D01*
X381000Y426250D02*
X377000Y426250D01*
X377500Y409500D02*
X377500Y405500D01*
X377500Y409500D02*
X382500Y409500D01*
X382500Y405500D01*
X377500Y405500D01*
X377500Y406450D02*
X382500Y406450D01*
X382500Y407400D02*
X377500Y407400D01*
X377500Y408350D02*
X382500Y408350D01*
X382500Y409300D02*
X377500Y409300D01*
X377500Y399500D02*
X377500Y395500D01*
X377500Y399500D02*
X382500Y399500D01*
X382500Y395500D01*
X377500Y395500D01*
X377500Y396450D02*
X382500Y396450D01*
X382500Y397400D02*
X377500Y397400D01*
X377500Y398350D02*
X382500Y398350D01*
X382500Y399300D02*
X377500Y399300D01*
D19*
X395500Y358500D03*
X343500Y358500D03*
D20*
X388500Y428550D02*
X388500Y433750D01*
X388500Y420450D02*
X388500Y415250D01*
X392500Y428550D02*
X392500Y433750D01*
X392500Y420450D02*
X392500Y415250D01*
X396500Y428550D02*
X396500Y433750D01*
X396500Y420450D02*
X396500Y415250D01*
X400500Y428550D02*
X400500Y433750D01*
X400500Y420450D02*
X400500Y415250D01*
X404500Y428550D02*
X404500Y433750D01*
X404500Y420450D02*
X404500Y415250D01*
X408500Y428550D02*
X408500Y433750D01*
X408500Y420450D02*
X408500Y415250D01*
X412500Y428550D02*
X412500Y433750D01*
X412500Y420450D02*
X412500Y415250D01*
X416500Y428550D02*
X416500Y433750D01*
X416500Y420450D02*
X416500Y415250D01*
X420500Y428550D02*
X420500Y433750D01*
X420500Y420450D02*
X420500Y415250D01*
X424500Y428550D02*
X424500Y433750D01*
X424500Y420450D02*
X424500Y415250D01*
X428500Y428550D02*
X428500Y433750D01*
X428500Y420450D02*
X428500Y415250D01*
X432500Y428550D02*
X432500Y433750D01*
X432500Y420450D02*
X432500Y415250D01*
X436500Y428550D02*
X436500Y433750D01*
X436500Y420450D02*
X436500Y415250D01*
X440500Y428550D02*
X440500Y433750D01*
X440500Y420450D02*
X440500Y415250D01*
X444500Y428550D02*
X444500Y433750D01*
X444500Y420450D02*
X444500Y415250D01*
X388500Y400750D02*
X388500Y395550D01*
X388500Y387450D02*
X388500Y382250D01*
X392500Y395550D02*
X392500Y400750D01*
X392500Y387450D02*
X392500Y382250D01*
X396500Y395550D02*
X396500Y400750D01*
X396500Y387450D02*
X396500Y382250D01*
X400500Y395550D02*
X400500Y400750D01*
X400500Y387450D02*
X400500Y382250D01*
X404500Y395550D02*
X404500Y400750D01*
X404500Y387450D02*
X404500Y382250D01*
X408500Y395550D02*
X408500Y400750D01*
X408500Y387450D02*
X408500Y382250D01*
X412500Y395550D02*
X412500Y400750D01*
X412500Y387450D02*
X412500Y382250D01*
X416500Y395550D02*
X416500Y400750D01*
X416500Y387450D02*
X416500Y382250D01*
X420500Y395550D02*
X420500Y400750D01*
X420500Y387450D02*
X420500Y382250D01*
X424500Y395550D02*
X424500Y400750D01*
X424500Y387450D02*
X424500Y382250D01*
X428500Y395550D02*
X428500Y400750D01*
X428500Y387450D02*
X428500Y382250D01*
X432500Y395550D02*
X432500Y400750D01*
X432500Y387450D02*
X432500Y382250D01*
X436500Y395550D02*
X436500Y400750D01*
X436500Y387450D02*
X436500Y382250D01*
X440500Y395550D02*
X440500Y400750D01*
X440500Y387450D02*
X440500Y382250D01*
X444500Y395550D02*
X444500Y400750D01*
X444500Y387450D02*
X444500Y382250D01*
D21*
X151500Y25000D03*
X131500Y25000D03*
X111500Y25000D03*
X91500Y25000D03*
X71500Y25000D03*
D15*
X142500Y113000D02*
X142500Y117000D01*
X142500Y113000D02*
X137500Y113000D01*
X137500Y117000D01*
X142500Y117000D01*
X142500Y113950D02*
X137500Y113950D01*
X137500Y114900D02*
X142500Y114900D01*
X142500Y115850D02*
X137500Y115850D01*
X137500Y116800D02*
X142500Y116800D01*
X142500Y123000D02*
X142500Y127000D01*
X142500Y123000D02*
X137500Y123000D01*
X137500Y127000D01*
X142500Y127000D01*
X142500Y123950D02*
X137500Y123950D01*
X137500Y124900D02*
X142500Y124900D01*
X142500Y125850D02*
X137500Y125850D01*
X137500Y126800D02*
X142500Y126800D01*
X60000Y398500D02*
X60000Y402500D01*
X65000Y402500D01*
X65000Y398500D01*
X60000Y398500D01*
X60000Y399450D02*
X65000Y399450D01*
X65000Y400400D02*
X60000Y400400D01*
X60000Y401350D02*
X65000Y401350D01*
X65000Y402300D02*
X60000Y402300D01*
X60000Y392500D02*
X60000Y388500D01*
X60000Y392500D02*
X65000Y392500D01*
X65000Y388500D01*
X60000Y388500D01*
X60000Y389450D02*
X65000Y389450D01*
X65000Y390400D02*
X60000Y390400D01*
X60000Y391350D02*
X65000Y391350D01*
X65000Y392300D02*
X60000Y392300D01*
X144000Y368500D02*
X148000Y368500D01*
X144000Y368500D02*
X144000Y373500D01*
X148000Y373500D01*
X148000Y368500D01*
X148000Y369450D02*
X144000Y369450D01*
X144000Y370400D02*
X148000Y370400D01*
X148000Y371350D02*
X144000Y371350D01*
X144000Y372300D02*
X148000Y372300D01*
X148000Y373250D02*
X144000Y373250D01*
X154000Y368500D02*
X158000Y368500D01*
X154000Y368500D02*
X154000Y373500D01*
X158000Y373500D01*
X158000Y368500D01*
X158000Y369450D02*
X154000Y369450D01*
X154000Y370400D02*
X158000Y370400D01*
X158000Y371350D02*
X154000Y371350D01*
X154000Y372300D02*
X158000Y372300D01*
X158000Y373250D02*
X154000Y373250D01*
D16*
X162100Y368100D02*
X166900Y368100D01*
X162100Y368100D02*
X162100Y375900D01*
X166900Y375900D01*
X166900Y368100D01*
X166900Y369240D02*
X162100Y369240D01*
X162100Y370380D02*
X166900Y370380D01*
X166900Y371520D02*
X162100Y371520D01*
X162100Y372660D02*
X166900Y372660D01*
X166900Y373800D02*
X162100Y373800D01*
X162100Y374940D02*
X166900Y374940D01*
X177100Y368100D02*
X181900Y368100D01*
X177100Y368100D02*
X177100Y375900D01*
X181900Y375900D01*
X181900Y368100D01*
X181900Y369240D02*
X177100Y369240D01*
X177100Y370380D02*
X181900Y370380D01*
X181900Y371520D02*
X177100Y371520D01*
X177100Y372660D02*
X181900Y372660D01*
X181900Y373800D02*
X177100Y373800D01*
X177100Y374940D02*
X181900Y374940D01*
X181900Y361900D02*
X177100Y361900D01*
X181900Y361900D02*
X181900Y354100D01*
X177100Y354100D01*
X177100Y361900D01*
X177100Y355240D02*
X181900Y355240D01*
X181900Y356380D02*
X177100Y356380D01*
X177100Y357520D02*
X181900Y357520D01*
X181900Y358660D02*
X177100Y358660D01*
X177100Y359800D02*
X181900Y359800D01*
X181900Y360940D02*
X177100Y360940D01*
X166900Y361900D02*
X162100Y361900D01*
X166900Y361900D02*
X166900Y354100D01*
X162100Y354100D01*
X162100Y361900D01*
X162100Y355240D02*
X166900Y355240D01*
X166900Y356380D02*
X162100Y356380D01*
X162100Y357520D02*
X166900Y357520D01*
X166900Y358660D02*
X162100Y358660D01*
X162100Y359800D02*
X166900Y359800D01*
X166900Y360940D02*
X162100Y360940D01*
D11*
X203600Y396400D02*
X216400Y396400D01*
X216400Y381600D01*
X203600Y381600D01*
X203600Y396400D01*
X203600Y384640D02*
X216400Y384640D01*
X216400Y387680D02*
X203600Y387680D01*
X203600Y390720D02*
X216400Y390720D01*
X216400Y393760D02*
X203600Y393760D01*
X188400Y396400D02*
X175600Y396400D01*
X188400Y396400D02*
X188400Y381600D01*
X175600Y381600D01*
X175600Y396400D01*
X175600Y384640D02*
X188400Y384640D01*
X188400Y387680D02*
X175600Y387680D01*
X175600Y390720D02*
X188400Y390720D01*
X188400Y393760D02*
X175600Y393760D01*
X169900Y396400D02*
X169900Y383600D01*
X146100Y383600D01*
X146100Y396400D01*
X169900Y396400D01*
X169900Y386640D02*
X146100Y386640D01*
X146100Y389680D02*
X169900Y389680D01*
X169900Y392720D02*
X146100Y392720D01*
X146100Y395760D02*
X169900Y395760D01*
X169900Y411600D02*
X169900Y424400D01*
X169900Y411600D02*
X146100Y411600D01*
X146100Y424400D01*
X169900Y424400D01*
X169900Y414640D02*
X146100Y414640D01*
X146100Y417680D02*
X169900Y417680D01*
X169900Y420720D02*
X146100Y420720D01*
X146100Y423760D02*
X169900Y423760D01*
X203600Y429900D02*
X216400Y429900D01*
X216400Y406100D01*
X203600Y406100D01*
X203600Y429900D01*
X203600Y409140D02*
X216400Y409140D01*
X216400Y412180D02*
X203600Y412180D01*
X203600Y415220D02*
X216400Y415220D01*
X216400Y418260D02*
X203600Y418260D01*
X203600Y421300D02*
X216400Y421300D01*
X216400Y424340D02*
X203600Y424340D01*
X203600Y427380D02*
X216400Y427380D01*
X188400Y429900D02*
X175600Y429900D01*
X188400Y429900D02*
X188400Y406100D01*
X175600Y406100D01*
X175600Y429900D01*
X175600Y409140D02*
X188400Y409140D01*
X188400Y412180D02*
X175600Y412180D01*
X175600Y415220D02*
X188400Y415220D01*
X188400Y418260D02*
X175600Y418260D01*
X175600Y421300D02*
X188400Y421300D01*
X188400Y424340D02*
X175600Y424340D01*
X175600Y427380D02*
X188400Y427380D01*
X119100Y465100D02*
X119100Y477900D01*
X133900Y477900D01*
X133900Y465100D01*
X119100Y465100D01*
X119100Y468140D02*
X133900Y468140D01*
X133900Y471180D02*
X119100Y471180D01*
X119100Y474220D02*
X133900Y474220D01*
X133900Y477260D02*
X119100Y477260D01*
X119100Y449900D02*
X119100Y437100D01*
X119100Y449900D02*
X133900Y449900D01*
X133900Y437100D01*
X119100Y437100D01*
X119100Y440140D02*
X133900Y440140D01*
X133900Y443180D02*
X119100Y443180D01*
X119100Y446220D02*
X133900Y446220D01*
X133900Y449260D02*
X119100Y449260D01*
D22*
X90050Y334450D02*
X75950Y334450D01*
X75950Y338050D01*
X90050Y338050D01*
X90050Y334450D01*
X90050Y335305D02*
X75950Y335305D01*
X75950Y336160D02*
X90050Y336160D01*
X90050Y337015D02*
X75950Y337015D01*
X75950Y337870D02*
X90050Y337870D01*
X90050Y327950D02*
X75950Y327950D01*
X75950Y331550D01*
X90050Y331550D01*
X90050Y327950D01*
X90050Y328805D02*
X75950Y328805D01*
X75950Y329660D02*
X90050Y329660D01*
X90050Y330515D02*
X75950Y330515D01*
X75950Y331370D02*
X90050Y331370D01*
X90050Y321450D02*
X75950Y321450D01*
X75950Y325050D01*
X90050Y325050D01*
X90050Y321450D01*
X90050Y322305D02*
X75950Y322305D01*
X75950Y323160D02*
X90050Y323160D01*
X90050Y324015D02*
X75950Y324015D01*
X75950Y324870D02*
X90050Y324870D01*
X90050Y314950D02*
X75950Y314950D01*
X75950Y318550D01*
X90050Y318550D01*
X90050Y314950D01*
X90050Y315805D02*
X75950Y315805D01*
X75950Y316660D02*
X90050Y316660D01*
X90050Y317515D02*
X75950Y317515D01*
X75950Y318370D02*
X90050Y318370D01*
X90050Y308450D02*
X75950Y308450D01*
X75950Y312050D01*
X90050Y312050D01*
X90050Y308450D01*
X90050Y309305D02*
X75950Y309305D01*
X75950Y310160D02*
X90050Y310160D01*
X90050Y311015D02*
X75950Y311015D01*
X75950Y311870D02*
X90050Y311870D01*
X90050Y301950D02*
X75950Y301950D01*
X75950Y305550D01*
X90050Y305550D01*
X90050Y301950D01*
X90050Y302805D02*
X75950Y302805D01*
X75950Y303660D02*
X90050Y303660D01*
X90050Y304515D02*
X75950Y304515D01*
X75950Y305370D02*
X90050Y305370D01*
X90050Y295450D02*
X75950Y295450D01*
X75950Y299050D01*
X90050Y299050D01*
X90050Y295450D01*
X90050Y296305D02*
X75950Y296305D01*
X75950Y297160D02*
X90050Y297160D01*
X90050Y298015D02*
X75950Y298015D01*
X75950Y298870D02*
X90050Y298870D01*
X90050Y288950D02*
X75950Y288950D01*
X75950Y292550D01*
X90050Y292550D01*
X90050Y288950D01*
X90050Y289805D02*
X75950Y289805D01*
X75950Y290660D02*
X90050Y290660D01*
X90050Y291515D02*
X75950Y291515D01*
X75950Y292370D02*
X90050Y292370D01*
X133950Y288950D02*
X148050Y288950D01*
X133950Y288950D02*
X133950Y292550D01*
X148050Y292550D01*
X148050Y288950D01*
X148050Y289805D02*
X133950Y289805D01*
X133950Y290660D02*
X148050Y290660D01*
X148050Y291515D02*
X133950Y291515D01*
X133950Y292370D02*
X148050Y292370D01*
X148050Y295450D02*
X133950Y295450D01*
X133950Y299050D01*
X148050Y299050D01*
X148050Y295450D01*
X148050Y296305D02*
X133950Y296305D01*
X133950Y297160D02*
X148050Y297160D01*
X148050Y298015D02*
X133950Y298015D01*
X133950Y298870D02*
X148050Y298870D01*
X148050Y301950D02*
X133950Y301950D01*
X133950Y305550D01*
X148050Y305550D01*
X148050Y301950D01*
X148050Y302805D02*
X133950Y302805D01*
X133950Y303660D02*
X148050Y303660D01*
X148050Y304515D02*
X133950Y304515D01*
X133950Y305370D02*
X148050Y305370D01*
X148050Y308450D02*
X133950Y308450D01*
X133950Y312050D01*
X148050Y312050D01*
X148050Y308450D01*
X148050Y309305D02*
X133950Y309305D01*
X133950Y310160D02*
X148050Y310160D01*
X148050Y311015D02*
X133950Y311015D01*
X133950Y311870D02*
X148050Y311870D01*
X148050Y314950D02*
X133950Y314950D01*
X133950Y318550D01*
X148050Y318550D01*
X148050Y314950D01*
X148050Y315805D02*
X133950Y315805D01*
X133950Y316660D02*
X148050Y316660D01*
X148050Y317515D02*
X133950Y317515D01*
X133950Y318370D02*
X148050Y318370D01*
X148050Y321450D02*
X133950Y321450D01*
X133950Y325050D01*
X148050Y325050D01*
X148050Y321450D01*
X148050Y322305D02*
X133950Y322305D01*
X133950Y323160D02*
X148050Y323160D01*
X148050Y324015D02*
X133950Y324015D01*
X133950Y324870D02*
X148050Y324870D01*
X148050Y327950D02*
X133950Y327950D01*
X133950Y331550D01*
X148050Y331550D01*
X148050Y327950D01*
X148050Y328805D02*
X133950Y328805D01*
X133950Y329660D02*
X148050Y329660D01*
X148050Y330515D02*
X133950Y330515D01*
X133950Y331370D02*
X148050Y331370D01*
X148050Y334450D02*
X133950Y334450D01*
X133950Y338050D01*
X148050Y338050D01*
X148050Y334450D01*
X148050Y335305D02*
X133950Y335305D01*
X133950Y336160D02*
X148050Y336160D01*
X148050Y337015D02*
X133950Y337015D01*
X133950Y337870D02*
X148050Y337870D01*
D15*
X67500Y330500D02*
X67500Y326500D01*
X67500Y330500D02*
X72500Y330500D01*
X72500Y326500D01*
X67500Y326500D01*
X67500Y327450D02*
X72500Y327450D01*
X72500Y328400D02*
X67500Y328400D01*
X67500Y329350D02*
X72500Y329350D01*
X72500Y330300D02*
X67500Y330300D01*
X67500Y320500D02*
X67500Y316500D01*
X67500Y320500D02*
X72500Y320500D01*
X72500Y316500D01*
X67500Y316500D01*
X67500Y317450D02*
X72500Y317450D01*
X72500Y318400D02*
X67500Y318400D01*
X67500Y319350D02*
X72500Y319350D01*
X72500Y320300D02*
X67500Y320300D01*
X151500Y328000D02*
X151500Y332000D01*
X156500Y332000D01*
X156500Y328000D01*
X151500Y328000D01*
X151500Y328950D02*
X156500Y328950D01*
X156500Y329900D02*
X151500Y329900D01*
X151500Y330850D02*
X156500Y330850D01*
X156500Y331800D02*
X151500Y331800D01*
X151500Y322000D02*
X151500Y318000D01*
X151500Y322000D02*
X156500Y322000D01*
X156500Y318000D01*
X151500Y318000D01*
X151500Y318950D02*
X156500Y318950D01*
X156500Y319900D02*
X151500Y319900D01*
X151500Y320850D02*
X156500Y320850D01*
X156500Y321800D02*
X151500Y321800D01*
X67500Y312500D02*
X67500Y308500D01*
X67500Y312500D02*
X72500Y312500D01*
X72500Y308500D01*
X67500Y308500D01*
X67500Y309450D02*
X72500Y309450D01*
X72500Y310400D02*
X67500Y310400D01*
X67500Y311350D02*
X72500Y311350D01*
X72500Y312300D02*
X67500Y312300D01*
X67500Y302500D02*
X67500Y298500D01*
X67500Y302500D02*
X72500Y302500D01*
X72500Y298500D01*
X67500Y298500D01*
X67500Y299450D02*
X72500Y299450D01*
X72500Y300400D02*
X67500Y300400D01*
X67500Y301350D02*
X72500Y301350D01*
X72500Y302300D02*
X67500Y302300D01*
X93500Y284500D02*
X97500Y284500D01*
X97500Y279500D01*
X93500Y279500D01*
X93500Y284500D01*
X93500Y280450D02*
X97500Y280450D01*
X97500Y281400D02*
X93500Y281400D01*
X93500Y282350D02*
X97500Y282350D01*
X97500Y283300D02*
X93500Y283300D01*
X93500Y284250D02*
X97500Y284250D01*
X87500Y284500D02*
X83500Y284500D01*
X87500Y284500D02*
X87500Y279500D01*
X83500Y279500D01*
X83500Y284500D01*
X83500Y280450D02*
X87500Y280450D01*
X87500Y281400D02*
X83500Y281400D01*
X83500Y282350D02*
X87500Y282350D01*
X87500Y283300D02*
X83500Y283300D01*
X83500Y284250D02*
X87500Y284250D01*
X93000Y342000D02*
X97000Y342000D01*
X93000Y342000D02*
X93000Y347000D01*
X97000Y347000D01*
X97000Y342000D01*
X97000Y342950D02*
X93000Y342950D01*
X93000Y343900D02*
X97000Y343900D01*
X97000Y344850D02*
X93000Y344850D01*
X93000Y345800D02*
X97000Y345800D01*
X97000Y346750D02*
X93000Y346750D01*
X103000Y342000D02*
X107000Y342000D01*
X103000Y342000D02*
X103000Y347000D01*
X107000Y347000D01*
X107000Y342000D01*
X107000Y342950D02*
X103000Y342950D01*
X103000Y343900D02*
X107000Y343900D01*
X107000Y344850D02*
X103000Y344850D01*
X103000Y345800D02*
X107000Y345800D01*
X107000Y346750D02*
X103000Y346750D01*
D23*
X48750Y219000D03*
X48750Y206500D03*
X48750Y194000D03*
X48750Y181500D03*
D24*
X16750Y237500D03*
X16750Y163000D03*
D23*
X48750Y107750D03*
X48750Y95250D03*
X48750Y82750D03*
X48750Y70250D03*
D24*
X16750Y126250D03*
X16750Y51750D03*
D15*
X147500Y81000D02*
X147500Y85000D01*
X152500Y85000D01*
X152500Y81000D01*
X147500Y81000D01*
X147500Y81950D02*
X152500Y81950D01*
X152500Y82900D02*
X147500Y82900D01*
X147500Y83850D02*
X152500Y83850D01*
X152500Y84800D02*
X147500Y84800D01*
X147500Y75000D02*
X147500Y71000D01*
X147500Y75000D02*
X152500Y75000D01*
X152500Y71000D01*
X147500Y71000D01*
X147500Y71950D02*
X152500Y71950D01*
X152500Y72900D02*
X147500Y72900D01*
X147500Y73850D02*
X152500Y73850D01*
X152500Y74800D02*
X147500Y74800D01*
D16*
X182600Y91900D02*
X187400Y91900D01*
X187400Y84100D01*
X182600Y84100D01*
X182600Y91900D01*
X182600Y85240D02*
X187400Y85240D01*
X187400Y86380D02*
X182600Y86380D01*
X182600Y87520D02*
X187400Y87520D01*
X187400Y88660D02*
X182600Y88660D01*
X182600Y89800D02*
X187400Y89800D01*
X187400Y90940D02*
X182600Y90940D01*
X172400Y91900D02*
X167600Y91900D01*
X172400Y91900D02*
X172400Y84100D01*
X167600Y84100D01*
X167600Y91900D01*
X167600Y85240D02*
X172400Y85240D01*
X172400Y86380D02*
X167600Y86380D01*
X167600Y87520D02*
X172400Y87520D01*
X172400Y88660D02*
X167600Y88660D01*
X167600Y89800D02*
X172400Y89800D01*
X172400Y90940D02*
X167600Y90940D01*
D22*
X129700Y60000D02*
X129700Y54900D01*
X129700Y60000D02*
X144300Y60000D01*
X144300Y54900D01*
X129700Y54900D01*
X129700Y55755D02*
X144300Y55755D01*
X144300Y56610D02*
X129700Y56610D01*
X129700Y57465D02*
X144300Y57465D01*
X144300Y58320D02*
X129700Y58320D01*
X129700Y59175D02*
X144300Y59175D01*
X129700Y67600D02*
X129700Y72700D01*
X144300Y72700D01*
X144300Y67600D01*
X129700Y67600D01*
X129700Y68455D02*
X144300Y68455D01*
X144300Y69310D02*
X129700Y69310D01*
X129700Y70165D02*
X144300Y70165D01*
X144300Y71020D02*
X129700Y71020D01*
X129700Y71875D02*
X144300Y71875D01*
X129700Y80300D02*
X129700Y85400D01*
X144300Y85400D01*
X144300Y80300D01*
X129700Y80300D01*
X129700Y81155D02*
X144300Y81155D01*
X144300Y82010D02*
X129700Y82010D01*
X129700Y82865D02*
X144300Y82865D01*
X144300Y83720D02*
X129700Y83720D01*
X129700Y84575D02*
X144300Y84575D01*
X129700Y93000D02*
X129700Y98100D01*
X144300Y98100D01*
X144300Y93000D01*
X129700Y93000D01*
X129700Y93855D02*
X144300Y93855D01*
X144300Y94710D02*
X129700Y94710D01*
X129700Y95565D02*
X144300Y95565D01*
X144300Y96420D02*
X129700Y96420D01*
X129700Y97275D02*
X144300Y97275D01*
X75700Y98100D02*
X75700Y93000D01*
X75700Y98100D02*
X90300Y98100D01*
X90300Y93000D01*
X75700Y93000D01*
X75700Y93855D02*
X90300Y93855D01*
X90300Y94710D02*
X75700Y94710D01*
X75700Y95565D02*
X90300Y95565D01*
X90300Y96420D02*
X75700Y96420D01*
X75700Y97275D02*
X90300Y97275D01*
X75700Y85400D02*
X75700Y80300D01*
X75700Y85400D02*
X90300Y85400D01*
X90300Y80300D01*
X75700Y80300D01*
X75700Y81155D02*
X90300Y81155D01*
X90300Y82010D02*
X75700Y82010D01*
X75700Y82865D02*
X90300Y82865D01*
X90300Y83720D02*
X75700Y83720D01*
X75700Y84575D02*
X90300Y84575D01*
X75700Y72700D02*
X75700Y67600D01*
X75700Y72700D02*
X90300Y72700D01*
X90300Y67600D01*
X75700Y67600D01*
X75700Y68455D02*
X90300Y68455D01*
X90300Y69310D02*
X75700Y69310D01*
X75700Y70165D02*
X90300Y70165D01*
X90300Y71020D02*
X75700Y71020D01*
X75700Y71875D02*
X90300Y71875D01*
X75700Y60000D02*
X75700Y54900D01*
X75700Y60000D02*
X90300Y60000D01*
X90300Y54900D01*
X75700Y54900D01*
X75700Y55755D02*
X90300Y55755D01*
X90300Y56610D02*
X75700Y56610D01*
X75700Y57465D02*
X90300Y57465D01*
X90300Y58320D02*
X75700Y58320D01*
X75700Y59175D02*
X90300Y59175D01*
D15*
X85000Y105000D02*
X81000Y105000D01*
X81000Y110000D01*
X85000Y110000D01*
X85000Y105000D01*
X85000Y105950D02*
X81000Y105950D01*
X81000Y106900D02*
X85000Y106900D01*
X85000Y107850D02*
X81000Y107850D01*
X81000Y108800D02*
X85000Y108800D01*
X85000Y109750D02*
X81000Y109750D01*
X91000Y105000D02*
X95000Y105000D01*
X91000Y105000D02*
X91000Y110000D01*
X95000Y110000D01*
X95000Y105000D01*
X95000Y105950D02*
X91000Y105950D01*
X91000Y106900D02*
X95000Y106900D01*
X95000Y107850D02*
X91000Y107850D01*
X91000Y108800D02*
X95000Y108800D01*
X95000Y109750D02*
X91000Y109750D01*
D23*
X48750Y330250D03*
X48750Y317750D03*
X48750Y305250D03*
X48750Y292750D03*
D24*
X16750Y348750D03*
X16750Y274250D03*
D11*
X315900Y289600D02*
X315900Y302400D01*
X315900Y289600D02*
X292100Y289600D01*
X292100Y302400D01*
X315900Y302400D01*
X315900Y292640D02*
X292100Y292640D01*
X292100Y295680D02*
X315900Y295680D01*
X315900Y298720D02*
X292100Y298720D01*
X292100Y301760D02*
X315900Y301760D01*
X315900Y317600D02*
X315900Y330400D01*
X315900Y317600D02*
X292100Y317600D01*
X292100Y330400D01*
X315900Y330400D01*
X315900Y320640D02*
X292100Y320640D01*
X292100Y323680D02*
X315900Y323680D01*
X315900Y326720D02*
X292100Y326720D01*
X292100Y329760D02*
X315900Y329760D01*
X381400Y307400D02*
X381400Y294600D01*
X357600Y294600D01*
X357600Y307400D01*
X381400Y307400D01*
X381400Y297640D02*
X357600Y297640D01*
X357600Y300680D02*
X381400Y300680D01*
X381400Y303720D02*
X357600Y303720D01*
X357600Y306760D02*
X381400Y306760D01*
X381400Y322600D02*
X381400Y335400D01*
X381400Y322600D02*
X357600Y322600D01*
X357600Y335400D01*
X381400Y335400D01*
X381400Y325640D02*
X357600Y325640D01*
X357600Y328680D02*
X381400Y328680D01*
X381400Y331720D02*
X357600Y331720D01*
X357600Y334760D02*
X381400Y334760D01*
X413400Y300900D02*
X413400Y288100D01*
X389600Y288100D01*
X389600Y300900D01*
X413400Y300900D01*
X413400Y291140D02*
X389600Y291140D01*
X389600Y294180D02*
X413400Y294180D01*
X413400Y297220D02*
X389600Y297220D01*
X389600Y300260D02*
X413400Y300260D01*
X413400Y316100D02*
X413400Y328900D01*
X413400Y316100D02*
X389600Y316100D01*
X389600Y328900D01*
X413400Y328900D01*
X413400Y319140D02*
X389600Y319140D01*
X389600Y322180D02*
X413400Y322180D01*
X413400Y325220D02*
X389600Y325220D01*
X389600Y328260D02*
X413400Y328260D01*
X445400Y300900D02*
X445400Y288100D01*
X421600Y288100D01*
X421600Y300900D01*
X445400Y300900D01*
X445400Y291140D02*
X421600Y291140D01*
X421600Y294180D02*
X445400Y294180D01*
X445400Y297220D02*
X421600Y297220D01*
X421600Y300260D02*
X445400Y300260D01*
X445400Y316100D02*
X445400Y328900D01*
X445400Y316100D02*
X421600Y316100D01*
X421600Y328900D01*
X445400Y328900D01*
X445400Y319140D02*
X421600Y319140D01*
X421600Y322180D02*
X445400Y322180D01*
X445400Y325220D02*
X421600Y325220D01*
X421600Y328260D02*
X445400Y328260D01*
D25*
X252000Y447000D03*
D26*
X495440Y102940D02*
X495440Y82060D01*
X463560Y82060D01*
X463560Y102940D01*
X495440Y102940D01*
X495440Y85024D02*
X463560Y85024D01*
X463560Y87988D02*
X495440Y87988D01*
X495440Y90952D02*
X463560Y90952D01*
X463560Y93916D02*
X495440Y93916D01*
X495440Y96880D02*
X463560Y96880D01*
X463560Y99844D02*
X495440Y99844D01*
X495440Y102808D02*
X463560Y102808D01*
D11*
X287600Y426100D02*
X287600Y438900D01*
X311400Y438900D01*
X311400Y426100D01*
X287600Y426100D01*
X287600Y429140D02*
X311400Y429140D01*
X311400Y432180D02*
X287600Y432180D01*
X287600Y435220D02*
X311400Y435220D01*
X311400Y438260D02*
X287600Y438260D01*
X287600Y410900D02*
X287600Y398100D01*
X287600Y410900D02*
X311400Y410900D01*
X311400Y398100D01*
X287600Y398100D01*
X287600Y401140D02*
X311400Y401140D01*
X311400Y404180D02*
X287600Y404180D01*
X287600Y407220D02*
X311400Y407220D01*
X311400Y410260D02*
X287600Y410260D01*
X315400Y446600D02*
X315400Y459400D01*
X315400Y446600D02*
X291600Y446600D01*
X291600Y459400D01*
X315400Y459400D01*
X315400Y449640D02*
X291600Y449640D01*
X291600Y452680D02*
X315400Y452680D01*
X315400Y455720D02*
X291600Y455720D01*
X291600Y458760D02*
X315400Y458760D01*
X315400Y474600D02*
X315400Y487400D01*
X315400Y474600D02*
X291600Y474600D01*
X291600Y487400D01*
X315400Y487400D01*
X315400Y477640D02*
X291600Y477640D01*
X291600Y480680D02*
X315400Y480680D01*
X315400Y483720D02*
X291600Y483720D01*
X291600Y486760D02*
X315400Y486760D01*
X319600Y438900D02*
X319600Y426100D01*
X319600Y438900D02*
X343400Y438900D01*
X343400Y426100D01*
X319600Y426100D01*
X319600Y429140D02*
X343400Y429140D01*
X343400Y432180D02*
X319600Y432180D01*
X319600Y435220D02*
X343400Y435220D01*
X343400Y438260D02*
X319600Y438260D01*
X319600Y410900D02*
X319600Y398100D01*
X319600Y410900D02*
X343400Y410900D01*
X343400Y398100D01*
X319600Y398100D01*
X319600Y401140D02*
X343400Y401140D01*
X343400Y404180D02*
X319600Y404180D01*
X319600Y407220D02*
X343400Y407220D01*
X343400Y410260D02*
X319600Y410260D01*
X380900Y452600D02*
X380900Y465400D01*
X380900Y452600D02*
X357100Y452600D01*
X357100Y465400D01*
X380900Y465400D01*
X380900Y455640D02*
X357100Y455640D01*
X357100Y458680D02*
X380900Y458680D01*
X380900Y461720D02*
X357100Y461720D01*
X357100Y464760D02*
X380900Y464760D01*
X380900Y480600D02*
X380900Y493400D01*
X380900Y480600D02*
X357100Y480600D01*
X357100Y493400D01*
X380900Y493400D01*
X380900Y483640D02*
X357100Y483640D01*
X357100Y486680D02*
X380900Y486680D01*
X380900Y489720D02*
X357100Y489720D01*
X357100Y492760D02*
X380900Y492760D01*
X413400Y458900D02*
X413400Y446100D01*
X389600Y446100D01*
X389600Y458900D01*
X413400Y458900D01*
X413400Y449140D02*
X389600Y449140D01*
X389600Y452180D02*
X413400Y452180D01*
X413400Y455220D02*
X389600Y455220D01*
X389600Y458260D02*
X413400Y458260D01*
X413400Y474100D02*
X413400Y486900D01*
X413400Y474100D02*
X389600Y474100D01*
X389600Y486900D01*
X413400Y486900D01*
X413400Y477140D02*
X389600Y477140D01*
X389600Y480180D02*
X413400Y480180D01*
X413400Y483220D02*
X389600Y483220D01*
X389600Y486260D02*
X413400Y486260D01*
X445400Y458900D02*
X445400Y446100D01*
X421600Y446100D01*
X421600Y458900D01*
X445400Y458900D01*
X445400Y449140D02*
X421600Y449140D01*
X421600Y452180D02*
X445400Y452180D01*
X445400Y455220D02*
X421600Y455220D01*
X421600Y458260D02*
X445400Y458260D01*
X445400Y474100D02*
X445400Y486900D01*
X445400Y474100D02*
X421600Y474100D01*
X421600Y486900D01*
X445400Y486900D01*
X445400Y477140D02*
X421600Y477140D01*
X421600Y480180D02*
X445400Y480180D01*
X445400Y483220D02*
X421600Y483220D01*
X421600Y486260D02*
X445400Y486260D01*
D22*
X33450Y415550D02*
X33450Y405450D01*
X33450Y415550D02*
X38550Y415550D01*
X38550Y405450D01*
X33450Y405450D01*
X33450Y406305D02*
X38550Y406305D01*
X38550Y407160D02*
X33450Y407160D01*
X33450Y408015D02*
X38550Y408015D01*
X38550Y408870D02*
X33450Y408870D01*
X33450Y409725D02*
X38550Y409725D01*
X38550Y410580D02*
X33450Y410580D01*
X33450Y411435D02*
X38550Y411435D01*
X38550Y412290D02*
X33450Y412290D01*
X33450Y413145D02*
X38550Y413145D01*
X38550Y414000D02*
X33450Y414000D01*
X33450Y414855D02*
X38550Y414855D01*
X23950Y415550D02*
X23950Y405450D01*
X23950Y415550D02*
X29050Y415550D01*
X29050Y405450D01*
X23950Y405450D01*
X23950Y406305D02*
X29050Y406305D01*
X29050Y407160D02*
X23950Y407160D01*
X23950Y408015D02*
X29050Y408015D01*
X29050Y408870D02*
X23950Y408870D01*
X23950Y409725D02*
X29050Y409725D01*
X29050Y410580D02*
X23950Y410580D01*
X23950Y411435D02*
X29050Y411435D01*
X29050Y412290D02*
X23950Y412290D01*
X23950Y413145D02*
X29050Y413145D01*
X29050Y414000D02*
X23950Y414000D01*
X23950Y414855D02*
X29050Y414855D01*
X14450Y415550D02*
X14450Y405450D01*
X14450Y415550D02*
X19550Y415550D01*
X19550Y405450D01*
X14450Y405450D01*
X14450Y406305D02*
X19550Y406305D01*
X19550Y407160D02*
X14450Y407160D01*
X14450Y408015D02*
X19550Y408015D01*
X19550Y408870D02*
X14450Y408870D01*
X14450Y409725D02*
X19550Y409725D01*
X19550Y410580D02*
X14450Y410580D01*
X14450Y411435D02*
X19550Y411435D01*
X19550Y412290D02*
X14450Y412290D01*
X14450Y413145D02*
X19550Y413145D01*
X19550Y414000D02*
X14450Y414000D01*
X14450Y414855D02*
X19550Y414855D01*
X14450Y389550D02*
X14450Y379450D01*
X14450Y389550D02*
X19550Y389550D01*
X19550Y379450D01*
X14450Y379450D01*
X14450Y380305D02*
X19550Y380305D01*
X19550Y381160D02*
X14450Y381160D01*
X14450Y382015D02*
X19550Y382015D01*
X19550Y382870D02*
X14450Y382870D01*
X14450Y383725D02*
X19550Y383725D01*
X19550Y384580D02*
X14450Y384580D01*
X14450Y385435D02*
X19550Y385435D01*
X19550Y386290D02*
X14450Y386290D01*
X14450Y387145D02*
X19550Y387145D01*
X19550Y388000D02*
X14450Y388000D01*
X14450Y388855D02*
X19550Y388855D01*
X23950Y389550D02*
X23950Y379450D01*
X23950Y389550D02*
X29050Y389550D01*
X29050Y379450D01*
X23950Y379450D01*
X23950Y380305D02*
X29050Y380305D01*
X29050Y381160D02*
X23950Y381160D01*
X23950Y382015D02*
X29050Y382015D01*
X29050Y382870D02*
X23950Y382870D01*
X23950Y383725D02*
X29050Y383725D01*
X29050Y384580D02*
X23950Y384580D01*
X23950Y385435D02*
X29050Y385435D01*
X29050Y386290D02*
X23950Y386290D01*
X23950Y387145D02*
X29050Y387145D01*
X29050Y388000D02*
X23950Y388000D01*
X23950Y388855D02*
X29050Y388855D01*
X33450Y389550D02*
X33450Y379450D01*
X33450Y389550D02*
X38550Y389550D01*
X38550Y379450D01*
X33450Y379450D01*
X33450Y380305D02*
X38550Y380305D01*
X38550Y381160D02*
X33450Y381160D01*
X33450Y382015D02*
X38550Y382015D01*
X38550Y382870D02*
X33450Y382870D01*
X33450Y383725D02*
X38550Y383725D01*
X38550Y384580D02*
X33450Y384580D01*
X33450Y385435D02*
X38550Y385435D01*
X38550Y386290D02*
X33450Y386290D01*
X33450Y387145D02*
X38550Y387145D01*
X38550Y388000D02*
X33450Y388000D01*
X33450Y388855D02*
X38550Y388855D01*
D15*
X19000Y419000D02*
X15000Y419000D01*
X15000Y424000D01*
X19000Y424000D01*
X19000Y419000D01*
X19000Y419950D02*
X15000Y419950D01*
X15000Y420900D02*
X19000Y420900D01*
X19000Y421850D02*
X15000Y421850D01*
X15000Y422800D02*
X19000Y422800D01*
X19000Y423750D02*
X15000Y423750D01*
X25000Y419000D02*
X29000Y419000D01*
X25000Y419000D02*
X25000Y424000D01*
X29000Y424000D01*
X29000Y419000D01*
X29000Y419950D02*
X25000Y419950D01*
X25000Y420900D02*
X29000Y420900D01*
X29000Y421850D02*
X25000Y421850D01*
X25000Y422800D02*
X29000Y422800D01*
X29000Y423750D02*
X25000Y423750D01*
X66000Y348500D02*
X66000Y344500D01*
X66000Y348500D02*
X71000Y348500D01*
X71000Y344500D01*
X66000Y344500D01*
X66000Y345450D02*
X71000Y345450D01*
X71000Y346400D02*
X66000Y346400D01*
X66000Y347350D02*
X71000Y347350D01*
X71000Y348300D02*
X66000Y348300D01*
X66000Y338500D02*
X66000Y334500D01*
X66000Y338500D02*
X71000Y338500D01*
X71000Y334500D01*
X66000Y334500D01*
X66000Y335450D02*
X71000Y335450D01*
X71000Y336400D02*
X66000Y336400D01*
X66000Y337350D02*
X71000Y337350D01*
X71000Y338300D02*
X66000Y338300D01*
X127500Y119000D02*
X127500Y115000D01*
X127500Y119000D02*
X132500Y119000D01*
X132500Y115000D01*
X127500Y115000D01*
X127500Y115950D02*
X132500Y115950D01*
X132500Y116900D02*
X127500Y116900D01*
X127500Y117850D02*
X132500Y117850D01*
X132500Y118800D02*
X127500Y118800D01*
X127500Y109000D02*
X127500Y105000D01*
X127500Y109000D02*
X132500Y109000D01*
X132500Y105000D01*
X127500Y105000D01*
X127500Y105950D02*
X132500Y105950D01*
X132500Y106900D02*
X127500Y106900D01*
X127500Y107850D02*
X132500Y107850D01*
X132500Y108800D02*
X127500Y108800D01*
D16*
X180600Y27400D02*
X185400Y27400D01*
X185400Y19600D01*
X180600Y19600D01*
X180600Y27400D01*
X180600Y20740D02*
X185400Y20740D01*
X185400Y21880D02*
X180600Y21880D01*
X180600Y23020D02*
X185400Y23020D01*
X185400Y24160D02*
X180600Y24160D01*
X180600Y25300D02*
X185400Y25300D01*
X185400Y26440D02*
X180600Y26440D01*
X170400Y27400D02*
X165600Y27400D01*
X170400Y27400D02*
X170400Y19600D01*
X165600Y19600D01*
X165600Y27400D01*
X165600Y20740D02*
X170400Y20740D01*
X170400Y21880D02*
X165600Y21880D01*
X165600Y23020D02*
X170400Y23020D01*
X170400Y24160D02*
X165600Y24160D01*
X165600Y25300D02*
X170400Y25300D01*
X170400Y26440D02*
X165600Y26440D01*
D15*
X211000Y25500D02*
X211000Y21500D01*
X211000Y25500D02*
X216000Y25500D01*
X216000Y21500D01*
X211000Y21500D01*
X211000Y22450D02*
X216000Y22450D01*
X216000Y23400D02*
X211000Y23400D01*
X211000Y24350D02*
X216000Y24350D01*
X216000Y25300D02*
X211000Y25300D01*
X211000Y15500D02*
X211000Y11500D01*
X211000Y15500D02*
X216000Y15500D01*
X216000Y11500D01*
X211000Y11500D01*
X211000Y12450D02*
X216000Y12450D01*
X216000Y13400D02*
X211000Y13400D01*
X211000Y14350D02*
X216000Y14350D01*
X216000Y15300D02*
X211000Y15300D01*
X219000Y21500D02*
X219000Y25500D01*
X224000Y25500D01*
X224000Y21500D01*
X219000Y21500D01*
X219000Y22450D02*
X224000Y22450D01*
X224000Y23400D02*
X219000Y23400D01*
X219000Y24350D02*
X224000Y24350D01*
X224000Y25300D02*
X219000Y25300D01*
X219000Y15500D02*
X219000Y11500D01*
X219000Y15500D02*
X224000Y15500D01*
X224000Y11500D01*
X219000Y11500D01*
X219000Y12450D02*
X224000Y12450D01*
X224000Y13400D02*
X219000Y13400D01*
X219000Y14350D02*
X224000Y14350D01*
X224000Y15300D02*
X219000Y15300D01*
D16*
X199600Y21100D02*
X199600Y25900D01*
X207400Y25900D01*
X207400Y21100D01*
X199600Y21100D01*
X199600Y22240D02*
X207400Y22240D01*
X207400Y23380D02*
X199600Y23380D01*
X199600Y24520D02*
X207400Y24520D01*
X207400Y25660D02*
X199600Y25660D01*
X199600Y10900D02*
X199600Y6100D01*
X199600Y10900D02*
X207400Y10900D01*
X207400Y6100D01*
X199600Y6100D01*
X199600Y7240D02*
X207400Y7240D01*
X207400Y8380D02*
X199600Y8380D01*
X199600Y9520D02*
X207400Y9520D01*
X207400Y10660D02*
X199600Y10660D01*
D15*
X118000Y116500D02*
X118000Y120500D01*
X123000Y120500D01*
X123000Y116500D01*
X118000Y116500D01*
X118000Y117450D02*
X123000Y117450D01*
X123000Y118400D02*
X118000Y118400D01*
X118000Y119350D02*
X123000Y119350D01*
X123000Y120300D02*
X118000Y120300D01*
X118000Y110500D02*
X118000Y106500D01*
X118000Y110500D02*
X123000Y110500D01*
X123000Y106500D01*
X118000Y106500D01*
X118000Y107450D02*
X123000Y107450D01*
X123000Y108400D02*
X118000Y108400D01*
X118000Y109350D02*
X123000Y109350D01*
X123000Y110300D02*
X118000Y110300D01*
D16*
X19400Y368100D02*
X14600Y368100D01*
X14600Y375900D01*
X19400Y375900D01*
X19400Y368100D01*
X19400Y369240D02*
X14600Y369240D01*
X14600Y370380D02*
X19400Y370380D01*
X19400Y371520D02*
X14600Y371520D01*
X14600Y372660D02*
X19400Y372660D01*
X19400Y373800D02*
X14600Y373800D01*
X14600Y374940D02*
X19400Y374940D01*
X29600Y368100D02*
X34400Y368100D01*
X29600Y368100D02*
X29600Y375900D01*
X34400Y375900D01*
X34400Y368100D01*
X34400Y369240D02*
X29600Y369240D01*
X29600Y370380D02*
X34400Y370380D01*
X34400Y371520D02*
X29600Y371520D01*
X29600Y372660D02*
X34400Y372660D01*
X34400Y373800D02*
X29600Y373800D01*
X29600Y374940D02*
X34400Y374940D01*
D26*
X495440Y260440D02*
X495440Y239560D01*
X463560Y239560D01*
X463560Y260440D01*
X495440Y260440D01*
X495440Y242524D02*
X463560Y242524D01*
X463560Y245488D02*
X495440Y245488D01*
X495440Y248452D02*
X463560Y248452D01*
X463560Y251416D02*
X495440Y251416D01*
X495440Y254380D02*
X463560Y254380D01*
X463560Y257344D02*
X495440Y257344D01*
X495440Y260308D02*
X463560Y260308D01*
X495440Y397060D02*
X495440Y417940D01*
X495440Y397060D02*
X463560Y397060D01*
X463560Y417940D01*
X495440Y417940D01*
X495440Y400024D02*
X463560Y400024D01*
X463560Y402988D02*
X495440Y402988D01*
X495440Y405952D02*
X463560Y405952D01*
X463560Y408916D02*
X495440Y408916D01*
X495440Y411880D02*
X463560Y411880D01*
X463560Y414844D02*
X495440Y414844D01*
X495440Y417808D02*
X463560Y417808D01*
D15*
X148000Y352500D02*
X144000Y352500D01*
X144000Y357500D01*
X148000Y357500D01*
X148000Y352500D01*
X148000Y353450D02*
X144000Y353450D01*
X144000Y354400D02*
X148000Y354400D01*
X148000Y355350D02*
X144000Y355350D01*
X144000Y356300D02*
X148000Y356300D01*
X148000Y357250D02*
X144000Y357250D01*
X154000Y352500D02*
X158000Y352500D01*
X154000Y352500D02*
X154000Y357500D01*
X158000Y357500D01*
X158000Y352500D01*
X158000Y353450D02*
X154000Y353450D01*
X154000Y354400D02*
X158000Y354400D01*
X158000Y355350D02*
X154000Y355350D01*
X154000Y356300D02*
X158000Y356300D01*
X158000Y357250D02*
X154000Y357250D01*
X126000Y348000D02*
X122000Y348000D01*
X122000Y353000D01*
X126000Y353000D01*
X126000Y348000D01*
X126000Y348950D02*
X122000Y348950D01*
X122000Y349900D02*
X126000Y349900D01*
X126000Y350850D02*
X122000Y350850D01*
X122000Y351800D02*
X126000Y351800D01*
X126000Y352750D02*
X122000Y352750D01*
X132000Y348000D02*
X136000Y348000D01*
X132000Y348000D02*
X132000Y353000D01*
X136000Y353000D01*
X136000Y348000D01*
X136000Y348950D02*
X132000Y348950D01*
X132000Y349900D02*
X136000Y349900D01*
X136000Y350850D02*
X132000Y350850D01*
X132000Y351800D02*
X136000Y351800D01*
X136000Y352750D02*
X132000Y352750D01*
X154000Y349000D02*
X158000Y349000D01*
X158000Y344000D01*
X154000Y344000D01*
X154000Y349000D01*
X154000Y344950D02*
X158000Y344950D01*
X158000Y345900D02*
X154000Y345900D01*
X154000Y346850D02*
X158000Y346850D01*
X158000Y347800D02*
X154000Y347800D01*
X154000Y348750D02*
X158000Y348750D01*
X148000Y349000D02*
X144000Y349000D01*
X148000Y349000D02*
X148000Y344000D01*
X144000Y344000D01*
X144000Y349000D01*
X144000Y344950D02*
X148000Y344950D01*
X148000Y345900D02*
X144000Y345900D01*
X144000Y346850D02*
X148000Y346850D01*
X148000Y347800D02*
X144000Y347800D01*
X144000Y348750D02*
X148000Y348750D01*
X265500Y63500D02*
X265500Y59500D01*
X260500Y59500D01*
X260500Y63500D01*
X265500Y63500D01*
X265500Y60450D02*
X260500Y60450D01*
X260500Y61400D02*
X265500Y61400D01*
X265500Y62350D02*
X260500Y62350D01*
X260500Y63300D02*
X265500Y63300D01*
X265500Y69500D02*
X265500Y73500D01*
X265500Y69500D02*
X260500Y69500D01*
X260500Y73500D01*
X265500Y73500D01*
X265500Y70450D02*
X260500Y70450D01*
X260500Y71400D02*
X265500Y71400D01*
X265500Y72350D02*
X260500Y72350D01*
X260500Y73300D02*
X265500Y73300D01*
D16*
X86900Y113600D02*
X86900Y118400D01*
X86900Y113600D02*
X79100Y113600D01*
X79100Y118400D01*
X86900Y118400D01*
X86900Y114740D02*
X79100Y114740D01*
X79100Y115880D02*
X86900Y115880D01*
X86900Y117020D02*
X79100Y117020D01*
X79100Y118160D02*
X86900Y118160D01*
X86900Y128600D02*
X86900Y133400D01*
X86900Y128600D02*
X79100Y128600D01*
X79100Y133400D01*
X86900Y133400D01*
X86900Y129740D02*
X79100Y129740D01*
X79100Y130880D02*
X86900Y130880D01*
X86900Y132020D02*
X79100Y132020D01*
X79100Y133160D02*
X86900Y133160D01*
X56400Y383100D02*
X56400Y387900D01*
X56400Y383100D02*
X48600Y383100D01*
X48600Y387900D01*
X56400Y387900D01*
X56400Y384240D02*
X48600Y384240D01*
X48600Y385380D02*
X56400Y385380D01*
X56400Y386520D02*
X48600Y386520D01*
X48600Y387660D02*
X56400Y387660D01*
X56400Y398100D02*
X56400Y402900D01*
X56400Y398100D02*
X48600Y398100D01*
X48600Y402900D01*
X56400Y402900D01*
X56400Y399240D02*
X48600Y399240D01*
X48600Y400380D02*
X56400Y400380D01*
X56400Y401520D02*
X48600Y401520D01*
X48600Y402660D02*
X56400Y402660D01*
D15*
X470000Y332500D02*
X474000Y332500D01*
X474000Y327500D01*
X470000Y327500D01*
X470000Y332500D01*
X470000Y328450D02*
X474000Y328450D01*
X474000Y329400D02*
X470000Y329400D01*
X470000Y330350D02*
X474000Y330350D01*
X474000Y331300D02*
X470000Y331300D01*
X470000Y332250D02*
X474000Y332250D01*
X464000Y332500D02*
X460000Y332500D01*
X464000Y332500D02*
X464000Y327500D01*
X460000Y327500D01*
X460000Y332500D01*
X460000Y328450D02*
X464000Y328450D01*
X464000Y329400D02*
X460000Y329400D01*
X460000Y330350D02*
X464000Y330350D01*
X464000Y331300D02*
X460000Y331300D01*
X460000Y332250D02*
X464000Y332250D01*
D22*
X82550Y401950D02*
X68450Y401950D01*
X68450Y405550D01*
X82550Y405550D01*
X82550Y401950D01*
X82550Y402805D02*
X68450Y402805D01*
X68450Y403660D02*
X82550Y403660D01*
X82550Y404515D02*
X68450Y404515D01*
X68450Y405370D02*
X82550Y405370D01*
X82550Y395450D02*
X68450Y395450D01*
X68450Y399050D01*
X82550Y399050D01*
X82550Y395450D01*
X82550Y396305D02*
X68450Y396305D01*
X68450Y397160D02*
X82550Y397160D01*
X82550Y398015D02*
X68450Y398015D01*
X68450Y398870D02*
X82550Y398870D01*
X82550Y388950D02*
X68450Y388950D01*
X68450Y392550D01*
X82550Y392550D01*
X82550Y388950D01*
X82550Y389805D02*
X68450Y389805D01*
X68450Y390660D02*
X82550Y390660D01*
X82550Y391515D02*
X68450Y391515D01*
X68450Y392370D02*
X82550Y392370D01*
X82550Y382450D02*
X68450Y382450D01*
X68450Y386050D01*
X82550Y386050D01*
X82550Y382450D01*
X82550Y383305D02*
X68450Y383305D01*
X68450Y384160D02*
X82550Y384160D01*
X82550Y385015D02*
X68450Y385015D01*
X68450Y385870D02*
X82550Y385870D01*
X82550Y375950D02*
X68450Y375950D01*
X68450Y379550D01*
X82550Y379550D01*
X82550Y375950D01*
X82550Y376805D02*
X68450Y376805D01*
X68450Y377660D02*
X82550Y377660D01*
X82550Y378515D02*
X68450Y378515D01*
X68450Y379370D02*
X82550Y379370D01*
X82550Y369450D02*
X68450Y369450D01*
X68450Y373050D01*
X82550Y373050D01*
X82550Y369450D01*
X82550Y370305D02*
X68450Y370305D01*
X68450Y371160D02*
X82550Y371160D01*
X82550Y372015D02*
X68450Y372015D01*
X68450Y372870D02*
X82550Y372870D01*
X82550Y362950D02*
X68450Y362950D01*
X68450Y366550D01*
X82550Y366550D01*
X82550Y362950D01*
X82550Y363805D02*
X68450Y363805D01*
X68450Y364660D02*
X82550Y364660D01*
X82550Y365515D02*
X68450Y365515D01*
X68450Y366370D02*
X82550Y366370D01*
X82550Y356450D02*
X68450Y356450D01*
X68450Y360050D01*
X82550Y360050D01*
X82550Y356450D01*
X82550Y357305D02*
X68450Y357305D01*
X68450Y358160D02*
X82550Y358160D01*
X82550Y359015D02*
X68450Y359015D01*
X68450Y359870D02*
X82550Y359870D01*
X126450Y356450D02*
X140550Y356450D01*
X126450Y356450D02*
X126450Y360050D01*
X140550Y360050D01*
X140550Y356450D01*
X140550Y357305D02*
X126450Y357305D01*
X126450Y358160D02*
X140550Y358160D01*
X140550Y359015D02*
X126450Y359015D01*
X126450Y359870D02*
X140550Y359870D01*
X140550Y362950D02*
X126450Y362950D01*
X126450Y366550D01*
X140550Y366550D01*
X140550Y362950D01*
X140550Y363805D02*
X126450Y363805D01*
X126450Y364660D02*
X140550Y364660D01*
X140550Y365515D02*
X126450Y365515D01*
X126450Y366370D02*
X140550Y366370D01*
X140550Y369450D02*
X126450Y369450D01*
X126450Y373050D01*
X140550Y373050D01*
X140550Y369450D01*
X140550Y370305D02*
X126450Y370305D01*
X126450Y371160D02*
X140550Y371160D01*
X140550Y372015D02*
X126450Y372015D01*
X126450Y372870D02*
X140550Y372870D01*
X140550Y375950D02*
X126450Y375950D01*
X126450Y379550D01*
X140550Y379550D01*
X140550Y375950D01*
X140550Y376805D02*
X126450Y376805D01*
X126450Y377660D02*
X140550Y377660D01*
X140550Y378515D02*
X126450Y378515D01*
X126450Y379370D02*
X140550Y379370D01*
X140550Y382450D02*
X126450Y382450D01*
X126450Y386050D01*
X140550Y386050D01*
X140550Y382450D01*
X140550Y383305D02*
X126450Y383305D01*
X126450Y384160D02*
X140550Y384160D01*
X140550Y385015D02*
X126450Y385015D01*
X126450Y385870D02*
X140550Y385870D01*
X140550Y388950D02*
X126450Y388950D01*
X126450Y392550D01*
X140550Y392550D01*
X140550Y388950D01*
X140550Y389805D02*
X126450Y389805D01*
X126450Y390660D02*
X140550Y390660D01*
X140550Y391515D02*
X126450Y391515D01*
X126450Y392370D02*
X140550Y392370D01*
X140550Y395450D02*
X126450Y395450D01*
X126450Y399050D01*
X140550Y399050D01*
X140550Y395450D01*
X140550Y396305D02*
X126450Y396305D01*
X126450Y397160D02*
X140550Y397160D01*
X140550Y398015D02*
X126450Y398015D01*
X126450Y398870D02*
X140550Y398870D01*
X140550Y401950D02*
X126450Y401950D01*
X126450Y405550D01*
X140550Y405550D01*
X140550Y401950D01*
X140550Y402805D02*
X126450Y402805D01*
X126450Y403660D02*
X140550Y403660D01*
X140550Y404515D02*
X126450Y404515D01*
X126450Y405370D02*
X140550Y405370D01*
D27*
X104500Y381000D03*
D28*
X65712Y411212D02*
X65712Y436288D01*
X96288Y436288D01*
X96288Y411212D01*
X65712Y411212D01*
X65712Y415416D02*
X96288Y415416D01*
X96288Y419620D02*
X65712Y419620D01*
X65712Y423824D02*
X96288Y423824D01*
X96288Y428028D02*
X65712Y428028D01*
X65712Y432232D02*
X96288Y432232D01*
X65712Y465712D02*
X65712Y490788D01*
X96288Y490788D01*
X96288Y465712D01*
X65712Y465712D01*
X65712Y469916D02*
X96288Y469916D01*
X96288Y474120D02*
X65712Y474120D01*
X65712Y478324D02*
X96288Y478324D01*
X96288Y482528D02*
X65712Y482528D01*
X65712Y486732D02*
X96288Y486732D01*
D16*
X171600Y347400D02*
X171600Y342600D01*
X171600Y347400D02*
X179400Y347400D01*
X179400Y342600D01*
X171600Y342600D01*
X171600Y343740D02*
X179400Y343740D01*
X179400Y344880D02*
X171600Y344880D01*
X171600Y346020D02*
X179400Y346020D01*
X179400Y347160D02*
X171600Y347160D01*
X171600Y332400D02*
X171600Y327600D01*
X171600Y332400D02*
X179400Y332400D01*
X179400Y327600D01*
X171600Y327600D01*
X171600Y328740D02*
X179400Y328740D01*
X179400Y329880D02*
X171600Y329880D01*
X171600Y331020D02*
X179400Y331020D01*
X179400Y332160D02*
X171600Y332160D01*
X160100Y332400D02*
X160100Y327600D01*
X160100Y332400D02*
X167900Y332400D01*
X167900Y327600D01*
X160100Y327600D01*
X160100Y328740D02*
X167900Y328740D01*
X167900Y329880D02*
X160100Y329880D01*
X160100Y331020D02*
X167900Y331020D01*
X167900Y332160D02*
X160100Y332160D01*
X160100Y317400D02*
X160100Y312600D01*
X160100Y317400D02*
X167900Y317400D01*
X167900Y312600D01*
X160100Y312600D01*
X160100Y313740D02*
X167900Y313740D01*
X167900Y314880D02*
X160100Y314880D01*
X160100Y316020D02*
X167900Y316020D01*
X167900Y317160D02*
X160100Y317160D01*
X156100Y86400D02*
X156100Y81600D01*
X156100Y86400D02*
X163900Y86400D01*
X163900Y81600D01*
X156100Y81600D01*
X156100Y82740D02*
X163900Y82740D01*
X163900Y83880D02*
X156100Y83880D01*
X156100Y85020D02*
X163900Y85020D01*
X163900Y86160D02*
X156100Y86160D01*
X156100Y71400D02*
X156100Y66600D01*
X156100Y71400D02*
X163900Y71400D01*
X163900Y66600D01*
X156100Y66600D01*
X156100Y67740D02*
X163900Y67740D01*
X163900Y68880D02*
X156100Y68880D01*
X156100Y70020D02*
X163900Y70020D01*
X163900Y71160D02*
X156100Y71160D01*
D11*
X146100Y465100D02*
X146100Y477900D01*
X160900Y477900D01*
X160900Y465100D01*
X146100Y465100D01*
X146100Y468140D02*
X160900Y468140D01*
X160900Y471180D02*
X146100Y471180D01*
X146100Y474220D02*
X160900Y474220D01*
X160900Y477260D02*
X146100Y477260D01*
X146100Y449900D02*
X146100Y437100D01*
X146100Y449900D02*
X160900Y449900D01*
X160900Y437100D01*
X146100Y437100D01*
X146100Y440140D02*
X160900Y440140D01*
X160900Y443180D02*
X146100Y443180D01*
X146100Y446220D02*
X160900Y446220D01*
X160900Y449260D02*
X146100Y449260D01*
D16*
X57600Y379900D02*
X57600Y375100D01*
X57600Y379900D02*
X65400Y379900D01*
X65400Y375100D01*
X57600Y375100D01*
X57600Y376240D02*
X65400Y376240D01*
X65400Y377380D02*
X57600Y377380D01*
X57600Y378520D02*
X65400Y378520D01*
X65400Y379660D02*
X57600Y379660D01*
X57600Y364900D02*
X57600Y360100D01*
X57600Y364900D02*
X65400Y364900D01*
X65400Y360100D01*
X57600Y360100D01*
X57600Y361240D02*
X65400Y361240D01*
X65400Y362380D02*
X57600Y362380D01*
X57600Y363520D02*
X65400Y363520D01*
X65400Y364660D02*
X57600Y364660D01*
D15*
X119500Y249500D02*
X123500Y249500D01*
X119500Y249500D02*
X119500Y254500D01*
X123500Y254500D01*
X123500Y249500D01*
X123500Y250450D02*
X119500Y250450D01*
X119500Y251400D02*
X123500Y251400D01*
X123500Y252350D02*
X119500Y252350D01*
X119500Y253300D02*
X123500Y253300D01*
X123500Y254250D02*
X119500Y254250D01*
X129500Y249500D02*
X133500Y249500D01*
X129500Y249500D02*
X129500Y254500D01*
X133500Y254500D01*
X133500Y249500D01*
X133500Y250450D02*
X129500Y250450D01*
X129500Y251400D02*
X133500Y251400D01*
X133500Y252350D02*
X129500Y252350D01*
X129500Y253300D02*
X133500Y253300D01*
X133500Y254250D02*
X129500Y254250D01*
X123500Y241500D02*
X119500Y241500D01*
X119500Y246500D01*
X123500Y246500D01*
X123500Y241500D01*
X123500Y242450D02*
X119500Y242450D01*
X119500Y243400D02*
X123500Y243400D01*
X123500Y244350D02*
X119500Y244350D01*
X119500Y245300D02*
X123500Y245300D01*
X123500Y246250D02*
X119500Y246250D01*
X129500Y241500D02*
X133500Y241500D01*
X129500Y241500D02*
X129500Y246500D01*
X133500Y246500D01*
X133500Y241500D01*
X133500Y242450D02*
X129500Y242450D01*
X129500Y243400D02*
X133500Y243400D01*
X133500Y244350D02*
X129500Y244350D01*
X129500Y245300D02*
X133500Y245300D01*
X133500Y246250D02*
X129500Y246250D01*
D11*
X347900Y144400D02*
X347900Y131600D01*
X324100Y131600D01*
X324100Y144400D01*
X347900Y144400D01*
X347900Y134640D02*
X324100Y134640D01*
X324100Y137680D02*
X347900Y137680D01*
X347900Y140720D02*
X324100Y140720D01*
X324100Y143760D02*
X347900Y143760D01*
X347900Y159600D02*
X347900Y172400D01*
X347900Y159600D02*
X324100Y159600D01*
X324100Y172400D01*
X347900Y172400D01*
X347900Y162640D02*
X324100Y162640D01*
X324100Y165680D02*
X347900Y165680D01*
X347900Y168720D02*
X324100Y168720D01*
X324100Y171760D02*
X347900Y171760D01*
X347400Y289600D02*
X347400Y302400D01*
X347400Y289600D02*
X323600Y289600D01*
X323600Y302400D01*
X347400Y302400D01*
X347400Y292640D02*
X323600Y292640D01*
X323600Y295680D02*
X347400Y295680D01*
X347400Y298720D02*
X323600Y298720D01*
X323600Y301760D02*
X347400Y301760D01*
X347400Y317600D02*
X347400Y330400D01*
X347400Y317600D02*
X323600Y317600D01*
X323600Y330400D01*
X347400Y330400D01*
X347400Y320640D02*
X323600Y320640D01*
X323600Y323680D02*
X347400Y323680D01*
X347400Y326720D02*
X323600Y326720D01*
X323600Y329760D02*
X347400Y329760D01*
X347400Y446600D02*
X347400Y459400D01*
X347400Y446600D02*
X323600Y446600D01*
X323600Y459400D01*
X347400Y459400D01*
X347400Y449640D02*
X323600Y449640D01*
X323600Y452680D02*
X347400Y452680D01*
X347400Y455720D02*
X323600Y455720D01*
X323600Y458760D02*
X347400Y458760D01*
X347400Y474600D02*
X347400Y487400D01*
X347400Y474600D02*
X323600Y474600D01*
X323600Y487400D01*
X347400Y487400D01*
X347400Y477640D02*
X323600Y477640D01*
X323600Y480680D02*
X347400Y480680D01*
X347400Y483720D02*
X323600Y483720D01*
X323600Y486760D02*
X347400Y486760D01*
D22*
X457200Y302300D02*
X457200Y293700D01*
X457200Y302300D02*
X460800Y302300D01*
X460800Y293700D01*
X457200Y293700D01*
X457200Y294555D02*
X460800Y294555D01*
X460800Y295410D02*
X457200Y295410D01*
X457200Y296265D02*
X460800Y296265D01*
X460800Y297120D02*
X457200Y297120D01*
X457200Y297975D02*
X460800Y297975D01*
X460800Y298830D02*
X457200Y298830D01*
X457200Y299685D02*
X460800Y299685D01*
X460800Y300540D02*
X457200Y300540D01*
X457200Y301395D02*
X460800Y301395D01*
X460800Y302250D02*
X457200Y302250D01*
X463700Y302300D02*
X463700Y293700D01*
X463700Y302300D02*
X467300Y302300D01*
X467300Y293700D01*
X463700Y293700D01*
X463700Y294555D02*
X467300Y294555D01*
X467300Y295410D02*
X463700Y295410D01*
X463700Y296265D02*
X467300Y296265D01*
X467300Y297120D02*
X463700Y297120D01*
X463700Y297975D02*
X467300Y297975D01*
X467300Y298830D02*
X463700Y298830D01*
X463700Y299685D02*
X467300Y299685D01*
X467300Y300540D02*
X463700Y300540D01*
X463700Y301395D02*
X467300Y301395D01*
X467300Y302250D02*
X463700Y302250D01*
X470200Y302300D02*
X470200Y293700D01*
X470200Y302300D02*
X473800Y302300D01*
X473800Y293700D01*
X470200Y293700D01*
X470200Y294555D02*
X473800Y294555D01*
X473800Y295410D02*
X470200Y295410D01*
X470200Y296265D02*
X473800Y296265D01*
X473800Y297120D02*
X470200Y297120D01*
X470200Y297975D02*
X473800Y297975D01*
X473800Y298830D02*
X470200Y298830D01*
X470200Y299685D02*
X473800Y299685D01*
X473800Y300540D02*
X470200Y300540D01*
X470200Y301395D02*
X473800Y301395D01*
X473800Y302250D02*
X470200Y302250D01*
X470200Y315700D02*
X470200Y324300D01*
X473800Y324300D01*
X473800Y315700D01*
X470200Y315700D01*
X470200Y316555D02*
X473800Y316555D01*
X473800Y317410D02*
X470200Y317410D01*
X470200Y318265D02*
X473800Y318265D01*
X473800Y319120D02*
X470200Y319120D01*
X470200Y319975D02*
X473800Y319975D01*
X473800Y320830D02*
X470200Y320830D01*
X470200Y321685D02*
X473800Y321685D01*
X473800Y322540D02*
X470200Y322540D01*
X470200Y323395D02*
X473800Y323395D01*
X473800Y324250D02*
X470200Y324250D01*
X457200Y324300D02*
X457200Y315700D01*
X457200Y324300D02*
X460800Y324300D01*
X460800Y315700D01*
X457200Y315700D01*
X457200Y316555D02*
X460800Y316555D01*
X460800Y317410D02*
X457200Y317410D01*
X457200Y318265D02*
X460800Y318265D01*
X460800Y319120D02*
X457200Y319120D01*
X457200Y319975D02*
X460800Y319975D01*
X460800Y320830D02*
X457200Y320830D01*
X457200Y321685D02*
X460800Y321685D01*
X460800Y322540D02*
X457200Y322540D01*
X457200Y323395D02*
X460800Y323395D01*
X460800Y324250D02*
X457200Y324250D01*
D16*
X262100Y10400D02*
X262100Y3600D01*
X262100Y10400D02*
X268900Y10400D01*
X268900Y3600D01*
X262100Y3600D01*
X262100Y4740D02*
X268900Y4740D01*
X268900Y5880D02*
X262100Y5880D01*
X262100Y7020D02*
X268900Y7020D01*
X268900Y8160D02*
X262100Y8160D01*
X262100Y9300D02*
X268900Y9300D01*
X277100Y10400D02*
X277100Y3600D01*
X277100Y10400D02*
X283900Y10400D01*
X283900Y3600D01*
X277100Y3600D01*
X277100Y4740D02*
X283900Y4740D01*
X283900Y5880D02*
X277100Y5880D01*
X277100Y7020D02*
X283900Y7020D01*
X283900Y8160D02*
X277100Y8160D01*
X277100Y9300D02*
X283900Y9300D01*
D15*
X259000Y9000D02*
X259000Y5000D01*
X254000Y5000D01*
X254000Y9000D01*
X259000Y9000D01*
X259000Y5950D02*
X254000Y5950D01*
X254000Y6900D02*
X259000Y6900D01*
X259000Y7850D02*
X254000Y7850D01*
X254000Y8800D02*
X259000Y8800D01*
X259000Y15000D02*
X259000Y19000D01*
X259000Y15000D02*
X254000Y15000D01*
X254000Y19000D01*
X259000Y19000D01*
X259000Y15950D02*
X254000Y15950D01*
X254000Y16900D02*
X259000Y16900D01*
X259000Y17850D02*
X254000Y17850D01*
X254000Y18800D02*
X259000Y18800D01*
D16*
X180400Y462900D02*
X173600Y462900D01*
X180400Y462900D02*
X180400Y456100D01*
X173600Y456100D01*
X173600Y462900D01*
X173600Y457240D02*
X180400Y457240D01*
X180400Y458380D02*
X173600Y458380D01*
X173600Y459520D02*
X180400Y459520D01*
X180400Y460660D02*
X173600Y460660D01*
X173600Y461800D02*
X180400Y461800D01*
X180400Y447900D02*
X173600Y447900D01*
X180400Y447900D02*
X180400Y441100D01*
X173600Y441100D01*
X173600Y447900D01*
X173600Y442240D02*
X180400Y442240D01*
X180400Y443380D02*
X173600Y443380D01*
X173600Y444520D02*
X180400Y444520D01*
X180400Y445660D02*
X173600Y445660D01*
X173600Y446800D02*
X180400Y446800D01*
D15*
X179500Y466500D02*
X179500Y470500D01*
X179500Y466500D02*
X174500Y466500D01*
X174500Y470500D01*
X179500Y470500D01*
X179500Y467450D02*
X174500Y467450D01*
X174500Y468400D02*
X179500Y468400D01*
X179500Y469350D02*
X174500Y469350D01*
X174500Y470300D02*
X179500Y470300D01*
X179500Y476500D02*
X179500Y480500D01*
X179500Y476500D02*
X174500Y476500D01*
X174500Y480500D01*
X179500Y480500D01*
X179500Y477450D02*
X174500Y477450D01*
X174500Y478400D02*
X179500Y478400D01*
X179500Y479350D02*
X174500Y479350D01*
X174500Y480300D02*
X179500Y480300D01*
D29*
X191000Y10000D03*
X169000Y10000D03*
D22*
X198700Y59700D02*
X207300Y59700D01*
X198700Y59700D02*
X198700Y63300D01*
X207300Y63300D01*
X207300Y59700D01*
X207300Y60555D02*
X198700Y60555D01*
X198700Y61410D02*
X207300Y61410D01*
X207300Y62265D02*
X198700Y62265D01*
X198700Y63120D02*
X207300Y63120D01*
X207300Y66200D02*
X198700Y66200D01*
X198700Y69800D01*
X207300Y69800D01*
X207300Y66200D01*
X207300Y67055D02*
X198700Y67055D01*
X198700Y67910D02*
X207300Y67910D01*
X207300Y68765D02*
X198700Y68765D01*
X198700Y69620D02*
X207300Y69620D01*
X207300Y72700D02*
X198700Y72700D01*
X198700Y76300D01*
X207300Y76300D01*
X207300Y72700D01*
X207300Y73555D02*
X198700Y73555D01*
X198700Y74410D02*
X207300Y74410D01*
X207300Y75265D02*
X198700Y75265D01*
X198700Y76120D02*
X207300Y76120D01*
X185300Y72700D02*
X176700Y72700D01*
X176700Y76300D01*
X185300Y76300D01*
X185300Y72700D01*
X185300Y73555D02*
X176700Y73555D01*
X176700Y74410D02*
X185300Y74410D01*
X185300Y75265D02*
X176700Y75265D01*
X176700Y76120D02*
X185300Y76120D01*
X185300Y66200D02*
X176700Y66200D01*
X176700Y69800D01*
X185300Y69800D01*
X185300Y66200D01*
X185300Y67055D02*
X176700Y67055D01*
X176700Y67910D02*
X185300Y67910D01*
X185300Y68765D02*
X176700Y68765D01*
X176700Y69620D02*
X185300Y69620D01*
X185300Y59700D02*
X176700Y59700D01*
X176700Y63300D01*
X185300Y63300D01*
X185300Y59700D01*
X185300Y60555D02*
X176700Y60555D01*
X176700Y61410D02*
X185300Y61410D01*
X185300Y62265D02*
X176700Y62265D01*
X176700Y63120D02*
X185300Y63120D01*
X202700Y32700D02*
X211300Y32700D01*
X202700Y32700D02*
X202700Y36300D01*
X211300Y36300D01*
X211300Y32700D01*
X211300Y33555D02*
X202700Y33555D01*
X202700Y34410D02*
X211300Y34410D01*
X211300Y35265D02*
X202700Y35265D01*
X202700Y36120D02*
X211300Y36120D01*
X211300Y39200D02*
X202700Y39200D01*
X202700Y42800D01*
X211300Y42800D01*
X211300Y39200D01*
X211300Y40055D02*
X202700Y40055D01*
X202700Y40910D02*
X211300Y40910D01*
X211300Y41765D02*
X202700Y41765D01*
X202700Y42620D02*
X211300Y42620D01*
X211300Y45700D02*
X202700Y45700D01*
X202700Y49300D01*
X211300Y49300D01*
X211300Y45700D01*
X211300Y46555D02*
X202700Y46555D01*
X202700Y47410D02*
X211300Y47410D01*
X211300Y48265D02*
X202700Y48265D01*
X202700Y49120D02*
X211300Y49120D01*
X189300Y45700D02*
X180700Y45700D01*
X180700Y49300D01*
X189300Y49300D01*
X189300Y45700D01*
X189300Y46555D02*
X180700Y46555D01*
X180700Y47410D02*
X189300Y47410D01*
X189300Y48265D02*
X180700Y48265D01*
X180700Y49120D02*
X189300Y49120D01*
X189300Y39200D02*
X180700Y39200D01*
X180700Y42800D01*
X189300Y42800D01*
X189300Y39200D01*
X189300Y40055D02*
X180700Y40055D01*
X180700Y40910D02*
X189300Y40910D01*
X189300Y41765D02*
X180700Y41765D01*
X180700Y42620D02*
X189300Y42620D01*
X189300Y32700D02*
X180700Y32700D01*
X180700Y36300D01*
X189300Y36300D01*
X189300Y32700D01*
X189300Y33555D02*
X180700Y33555D01*
X180700Y34410D02*
X189300Y34410D01*
X189300Y35265D02*
X180700Y35265D01*
X180700Y36120D02*
X189300Y36120D01*
D15*
X219500Y36500D02*
X219500Y32500D01*
X214500Y32500D01*
X214500Y36500D01*
X219500Y36500D01*
X219500Y33450D02*
X214500Y33450D01*
X214500Y34400D02*
X219500Y34400D01*
X219500Y35350D02*
X214500Y35350D01*
X214500Y36300D02*
X219500Y36300D01*
X219500Y42500D02*
X219500Y46500D01*
X219500Y42500D02*
X214500Y42500D01*
X214500Y46500D01*
X219500Y46500D01*
X219500Y43450D02*
X214500Y43450D01*
X214500Y44400D02*
X219500Y44400D01*
X219500Y45350D02*
X214500Y45350D01*
X214500Y46300D02*
X219500Y46300D01*
D16*
X228600Y10400D02*
X228600Y3600D01*
X228600Y10400D02*
X235400Y10400D01*
X235400Y3600D01*
X228600Y3600D01*
X228600Y4740D02*
X235400Y4740D01*
X235400Y5880D02*
X228600Y5880D01*
X228600Y7020D02*
X235400Y7020D01*
X235400Y8160D02*
X228600Y8160D01*
X228600Y9300D02*
X235400Y9300D01*
X243600Y10400D02*
X243600Y3600D01*
X243600Y10400D02*
X250400Y10400D01*
X250400Y3600D01*
X243600Y3600D01*
X243600Y4740D02*
X250400Y4740D01*
X250400Y5880D02*
X243600Y5880D01*
X243600Y7020D02*
X250400Y7020D01*
X250400Y8160D02*
X243600Y8160D01*
X243600Y9300D02*
X250400Y9300D01*
D15*
X234500Y13500D02*
X234500Y17500D01*
X234500Y13500D02*
X229500Y13500D01*
X229500Y17500D01*
X234500Y17500D01*
X234500Y14450D02*
X229500Y14450D01*
X229500Y15400D02*
X234500Y15400D01*
X234500Y16350D02*
X229500Y16350D01*
X229500Y17300D02*
X234500Y17300D01*
X234500Y23500D02*
X234500Y27500D01*
X234500Y23500D02*
X229500Y23500D01*
X229500Y27500D01*
X234500Y27500D01*
X234500Y24450D02*
X229500Y24450D01*
X229500Y25400D02*
X234500Y25400D01*
X234500Y26350D02*
X229500Y26350D01*
X229500Y27300D02*
X234500Y27300D01*
X173000Y59500D02*
X173000Y63500D01*
X173000Y59500D02*
X168000Y59500D01*
X168000Y63500D01*
X173000Y63500D01*
X173000Y60450D02*
X168000Y60450D01*
X168000Y61400D02*
X173000Y61400D01*
X173000Y62350D02*
X168000Y62350D01*
X168000Y63300D02*
X173000Y63300D01*
X173000Y69500D02*
X173000Y73500D01*
X173000Y69500D02*
X168000Y69500D01*
X168000Y73500D01*
X173000Y73500D01*
X173000Y70450D02*
X168000Y70450D01*
X168000Y71400D02*
X173000Y71400D01*
X173000Y72350D02*
X168000Y72350D01*
X168000Y73300D02*
X173000Y73300D01*
X177500Y36500D02*
X177500Y32500D01*
X172500Y32500D01*
X172500Y36500D01*
X177500Y36500D01*
X177500Y33450D02*
X172500Y33450D01*
X172500Y34400D02*
X177500Y34400D01*
X177500Y35350D02*
X172500Y35350D01*
X172500Y36300D02*
X177500Y36300D01*
X177500Y42500D02*
X177500Y46500D01*
X177500Y42500D02*
X172500Y42500D01*
X172500Y46500D01*
X177500Y46500D01*
X177500Y43450D02*
X172500Y43450D01*
X172500Y44400D02*
X177500Y44400D01*
X177500Y45350D02*
X172500Y45350D01*
X172500Y46300D02*
X177500Y46300D01*
D16*
X194600Y125900D02*
X201400Y125900D01*
X201400Y119100D01*
X194600Y119100D01*
X194600Y125900D01*
X194600Y120240D02*
X201400Y120240D01*
X201400Y121380D02*
X194600Y121380D01*
X194600Y122520D02*
X201400Y122520D01*
X201400Y123660D02*
X194600Y123660D01*
X194600Y124800D02*
X201400Y124800D01*
X201400Y110900D02*
X194600Y110900D01*
X201400Y110900D02*
X201400Y104100D01*
X194600Y104100D01*
X194600Y110900D01*
X194600Y105240D02*
X201400Y105240D01*
X201400Y106380D02*
X194600Y106380D01*
X194600Y107520D02*
X201400Y107520D01*
X201400Y108660D02*
X194600Y108660D01*
X194600Y109800D02*
X201400Y109800D01*
D15*
X194500Y129500D02*
X194500Y133500D01*
X194500Y129500D02*
X189500Y129500D01*
X189500Y133500D01*
X194500Y133500D01*
X194500Y130450D02*
X189500Y130450D01*
X189500Y131400D02*
X194500Y131400D01*
X194500Y132350D02*
X189500Y132350D01*
X189500Y133300D02*
X194500Y133300D01*
X194500Y139500D02*
X194500Y143500D01*
X194500Y139500D02*
X189500Y139500D01*
X189500Y143500D01*
X194500Y143500D01*
X194500Y140450D02*
X189500Y140450D01*
X189500Y141400D02*
X194500Y141400D01*
X194500Y142350D02*
X189500Y142350D01*
X189500Y143300D02*
X194500Y143300D01*
D16*
X189900Y125900D02*
X183100Y125900D01*
X189900Y125900D02*
X189900Y119100D01*
X183100Y119100D01*
X183100Y125900D01*
X183100Y120240D02*
X189900Y120240D01*
X189900Y121380D02*
X183100Y121380D01*
X183100Y122520D02*
X189900Y122520D01*
X189900Y123660D02*
X183100Y123660D01*
X183100Y124800D02*
X189900Y124800D01*
X189900Y110900D02*
X183100Y110900D01*
X189900Y110900D02*
X189900Y104100D01*
X183100Y104100D01*
X183100Y110900D01*
X183100Y105240D02*
X189900Y105240D01*
X189900Y106380D02*
X183100Y106380D01*
X183100Y107520D02*
X189900Y107520D01*
X189900Y108660D02*
X183100Y108660D01*
X183100Y109800D02*
X189900Y109800D01*
D15*
X186000Y129500D02*
X186000Y133500D01*
X186000Y129500D02*
X181000Y129500D01*
X181000Y133500D01*
X186000Y133500D01*
X186000Y130450D02*
X181000Y130450D01*
X181000Y131400D02*
X186000Y131400D01*
X186000Y132350D02*
X181000Y132350D01*
X181000Y133300D02*
X186000Y133300D01*
X186000Y139500D02*
X186000Y143500D01*
X186000Y139500D02*
X181000Y139500D01*
X181000Y143500D01*
X186000Y143500D01*
X186000Y140450D02*
X181000Y140450D01*
X181000Y141400D02*
X186000Y141400D01*
X186000Y142350D02*
X181000Y142350D01*
X181000Y143300D02*
X186000Y143300D01*
D16*
X178400Y125900D02*
X171600Y125900D01*
X178400Y125900D02*
X178400Y119100D01*
X171600Y119100D01*
X171600Y125900D01*
X171600Y120240D02*
X178400Y120240D01*
X178400Y121380D02*
X171600Y121380D01*
X171600Y122520D02*
X178400Y122520D01*
X178400Y123660D02*
X171600Y123660D01*
X171600Y124800D02*
X178400Y124800D01*
X178400Y110900D02*
X171600Y110900D01*
X178400Y110900D02*
X178400Y104100D01*
X171600Y104100D01*
X171600Y110900D01*
X171600Y105240D02*
X178400Y105240D01*
X178400Y106380D02*
X171600Y106380D01*
X171600Y107520D02*
X178400Y107520D01*
X178400Y108660D02*
X171600Y108660D01*
X171600Y109800D02*
X178400Y109800D01*
D15*
X177500Y129500D02*
X177500Y133500D01*
X177500Y129500D02*
X172500Y129500D01*
X172500Y133500D01*
X177500Y133500D01*
X177500Y130450D02*
X172500Y130450D01*
X172500Y131400D02*
X177500Y131400D01*
X177500Y132350D02*
X172500Y132350D01*
X172500Y133300D02*
X177500Y133300D01*
X177500Y139500D02*
X177500Y143500D01*
X177500Y139500D02*
X172500Y139500D01*
X172500Y143500D01*
X177500Y143500D01*
X177500Y140450D02*
X172500Y140450D01*
X172500Y141400D02*
X177500Y141400D01*
X177500Y142350D02*
X172500Y142350D01*
X172500Y143300D02*
X177500Y143300D01*
D16*
X206100Y125900D02*
X212900Y125900D01*
X212900Y119100D01*
X206100Y119100D01*
X206100Y125900D01*
X206100Y120240D02*
X212900Y120240D01*
X212900Y121380D02*
X206100Y121380D01*
X206100Y122520D02*
X212900Y122520D01*
X212900Y123660D02*
X206100Y123660D01*
X206100Y124800D02*
X212900Y124800D01*
X212900Y110900D02*
X206100Y110900D01*
X212900Y110900D02*
X212900Y104100D01*
X206100Y104100D01*
X206100Y110900D01*
X206100Y105240D02*
X212900Y105240D01*
X212900Y106380D02*
X206100Y106380D01*
X206100Y107520D02*
X212900Y107520D01*
X212900Y108660D02*
X206100Y108660D01*
X206100Y109800D02*
X212900Y109800D01*
D15*
X204500Y129500D02*
X204500Y133500D01*
X204500Y129500D02*
X199500Y129500D01*
X199500Y133500D01*
X204500Y133500D01*
X204500Y130450D02*
X199500Y130450D01*
X199500Y131400D02*
X204500Y131400D01*
X204500Y132350D02*
X199500Y132350D01*
X199500Y133300D02*
X204500Y133300D01*
X204500Y139500D02*
X204500Y143500D01*
X204500Y139500D02*
X199500Y139500D01*
X199500Y143500D01*
X204500Y143500D01*
X204500Y140450D02*
X199500Y140450D01*
X199500Y141400D02*
X204500Y141400D01*
X204500Y142350D02*
X199500Y142350D01*
X199500Y143300D02*
X204500Y143300D01*
D16*
X217600Y125900D02*
X224400Y125900D01*
X224400Y119100D01*
X217600Y119100D01*
X217600Y125900D01*
X217600Y120240D02*
X224400Y120240D01*
X224400Y121380D02*
X217600Y121380D01*
X217600Y122520D02*
X224400Y122520D01*
X224400Y123660D02*
X217600Y123660D01*
X217600Y124800D02*
X224400Y124800D01*
X224400Y110900D02*
X217600Y110900D01*
X224400Y110900D02*
X224400Y104100D01*
X217600Y104100D01*
X217600Y110900D01*
X217600Y105240D02*
X224400Y105240D01*
X224400Y106380D02*
X217600Y106380D01*
X217600Y107520D02*
X224400Y107520D01*
X224400Y108660D02*
X217600Y108660D01*
X217600Y109800D02*
X224400Y109800D01*
D15*
X217000Y129500D02*
X217000Y133500D01*
X217000Y129500D02*
X212000Y129500D01*
X212000Y133500D01*
X217000Y133500D01*
X217000Y130450D02*
X212000Y130450D01*
X212000Y131400D02*
X217000Y131400D01*
X217000Y132350D02*
X212000Y132350D01*
X212000Y133300D02*
X217000Y133300D01*
X217000Y139500D02*
X217000Y143500D01*
X217000Y139500D02*
X212000Y139500D01*
X212000Y143500D01*
X217000Y143500D01*
X217000Y140450D02*
X212000Y140450D01*
X212000Y141400D02*
X217000Y141400D01*
X217000Y142350D02*
X212000Y142350D01*
X212000Y143300D02*
X217000Y143300D01*
X56940Y265070D02*
X56940Y269070D01*
X56940Y265070D02*
X51940Y265070D01*
X51940Y269070D01*
X56940Y269070D01*
X56940Y266020D02*
X51940Y266020D01*
X51940Y266970D02*
X56940Y266970D01*
X56940Y267920D02*
X51940Y267920D01*
X51940Y268870D02*
X56940Y268870D01*
X56940Y275070D02*
X56940Y279070D01*
X56940Y275070D02*
X51940Y275070D01*
X51940Y279070D01*
X56940Y279070D01*
X56940Y276020D02*
X51940Y276020D01*
X51940Y276970D02*
X56940Y276970D01*
X56940Y277920D02*
X51940Y277920D01*
X51940Y278870D02*
X56940Y278870D01*
D30*
X377000Y122000D03*
X376000Y68000D03*
X377000Y280000D03*
X376000Y226000D03*
X377000Y438000D03*
X376000Y384000D03*
D31*
X284500Y491500D03*
X286500Y387000D03*
X460000Y359500D03*
X280000Y336000D03*
X285500Y224500D03*
X471500Y360000D03*
D30*
X466500Y138500D03*
X489500Y298500D03*
X459000Y452500D03*
D31*
X282000Y171500D03*
X281500Y64500D03*
X225500Y154500D03*
D30*
X142500Y268750D03*
X185500Y216500D03*
X165000Y253000D03*
D31*
X175000Y319500D03*
X77500Y349500D03*
X492000Y201000D03*
X52500Y350500D03*
X198500Y320500D03*
D30*
X54500Y256000D03*
D22*
X247450Y64050D02*
X257550Y64050D01*
X257550Y58950D01*
X247450Y58950D01*
X247450Y64050D01*
X247450Y59805D02*
X257550Y59805D01*
X257550Y60660D02*
X247450Y60660D01*
X247450Y61515D02*
X257550Y61515D01*
X257550Y62370D02*
X247450Y62370D01*
X247450Y63225D02*
X257550Y63225D01*
X257550Y73550D02*
X247450Y73550D01*
X257550Y73550D02*
X257550Y68450D01*
X247450Y68450D01*
X247450Y73550D01*
X247450Y69305D02*
X257550Y69305D01*
X257550Y70160D02*
X247450Y70160D01*
X247450Y71015D02*
X257550Y71015D01*
X257550Y71870D02*
X247450Y71870D01*
X247450Y72725D02*
X257550Y72725D01*
X257550Y83050D02*
X247450Y83050D01*
X257550Y83050D02*
X257550Y77950D01*
X247450Y77950D01*
X247450Y83050D01*
X247450Y78805D02*
X257550Y78805D01*
X257550Y79660D02*
X247450Y79660D01*
X247450Y80515D02*
X257550Y80515D01*
X257550Y81370D02*
X247450Y81370D01*
X247450Y82225D02*
X257550Y82225D01*
X231550Y83050D02*
X221450Y83050D01*
X231550Y83050D02*
X231550Y77950D01*
X221450Y77950D01*
X221450Y83050D01*
X221450Y78805D02*
X231550Y78805D01*
X231550Y79660D02*
X221450Y79660D01*
X221450Y80515D02*
X231550Y80515D01*
X231550Y81370D02*
X221450Y81370D01*
X221450Y82225D02*
X231550Y82225D01*
X231550Y64050D02*
X221450Y64050D01*
X231550Y64050D02*
X231550Y58950D01*
X221450Y58950D01*
X221450Y64050D01*
X221450Y59805D02*
X231550Y59805D01*
X231550Y60660D02*
X221450Y60660D01*
X221450Y61515D02*
X231550Y61515D01*
X231550Y62370D02*
X221450Y62370D01*
X221450Y63225D02*
X231550Y63225D01*
D16*
X218400Y63900D02*
X218400Y59100D01*
X210600Y59100D01*
X210600Y63900D01*
X218400Y63900D01*
X218400Y60240D02*
X210600Y60240D01*
X210600Y61380D02*
X218400Y61380D01*
X218400Y62520D02*
X210600Y62520D01*
X210600Y63660D02*
X218400Y63660D01*
X218400Y74100D02*
X218400Y78900D01*
X218400Y74100D02*
X210600Y74100D01*
X210600Y78900D01*
X218400Y78900D01*
X218400Y75240D02*
X210600Y75240D01*
X210600Y76380D02*
X218400Y76380D01*
X218400Y77520D02*
X210600Y77520D01*
X210600Y78660D02*
X218400Y78660D01*
D15*
X224500Y90000D02*
X228500Y90000D01*
X224500Y90000D02*
X224500Y95000D01*
X228500Y95000D01*
X228500Y90000D01*
X228500Y90950D02*
X224500Y90950D01*
X224500Y91900D02*
X228500Y91900D01*
X228500Y92850D02*
X224500Y92850D01*
X224500Y93800D02*
X228500Y93800D01*
X228500Y94750D02*
X224500Y94750D01*
X234500Y90000D02*
X238500Y90000D01*
X234500Y90000D02*
X234500Y95000D01*
X238500Y95000D01*
X238500Y90000D01*
X238500Y90950D02*
X234500Y90950D01*
X234500Y91900D02*
X238500Y91900D01*
X238500Y92850D02*
X234500Y92850D01*
X234500Y93800D02*
X238500Y93800D01*
X238500Y94750D02*
X234500Y94750D01*
D32*
X45000Y9000D03*
X454500Y491000D03*
X452000Y9000D03*
D33*
X343000Y69500D03*
X356000Y125000D03*
X333000Y385500D03*
X356000Y441000D03*
X342500Y227500D03*
X355500Y283000D03*
D34*
X488000Y166000D03*
X488000Y138000D03*
X471000Y176000D03*
X471000Y204000D03*
X488000Y334000D03*
X488000Y362000D03*
D15*
X191500Y287500D02*
X191500Y281500D01*
X191500Y287500D02*
X195500Y287500D01*
X195500Y281500D01*
X191500Y281500D01*
X191500Y282450D02*
X195500Y282450D01*
X195500Y283400D02*
X191500Y283400D01*
X191500Y284350D02*
X195500Y284350D01*
X195500Y285300D02*
X191500Y285300D01*
X191500Y286250D02*
X195500Y286250D01*
X195500Y287200D02*
X191500Y287200D01*
X191500Y275500D02*
X191500Y269500D01*
X191500Y275500D02*
X195500Y275500D01*
X195500Y269500D01*
X191500Y269500D01*
X191500Y270450D02*
X195500Y270450D01*
X195500Y271400D02*
X191500Y271400D01*
X191500Y272350D02*
X195500Y272350D01*
X195500Y273300D02*
X191500Y273300D01*
X191500Y274250D02*
X195500Y274250D01*
X195500Y275200D02*
X191500Y275200D01*
X212500Y197500D02*
X212500Y191500D01*
X212500Y197500D02*
X216500Y197500D01*
X216500Y191500D01*
X212500Y191500D01*
X212500Y192450D02*
X216500Y192450D01*
X216500Y193400D02*
X212500Y193400D01*
X212500Y194350D02*
X216500Y194350D01*
X216500Y195300D02*
X212500Y195300D01*
X212500Y196250D02*
X216500Y196250D01*
X216500Y197200D02*
X212500Y197200D01*
X212500Y185500D02*
X212500Y179500D01*
X212500Y185500D02*
X216500Y185500D01*
X216500Y179500D01*
X212500Y179500D01*
X212500Y180450D02*
X216500Y180450D01*
X216500Y181400D02*
X212500Y181400D01*
X212500Y182350D02*
X216500Y182350D01*
X216500Y183300D02*
X212500Y183300D01*
X212500Y184250D02*
X216500Y184250D01*
X216500Y185200D02*
X212500Y185200D01*
X223500Y231000D02*
X223500Y237000D01*
X227500Y237000D01*
X227500Y231000D01*
X223500Y231000D01*
X223500Y231950D02*
X227500Y231950D01*
X227500Y232900D02*
X223500Y232900D01*
X223500Y233850D02*
X227500Y233850D01*
X227500Y234800D02*
X223500Y234800D01*
X223500Y235750D02*
X227500Y235750D01*
X227500Y236700D02*
X223500Y236700D01*
X223500Y225000D02*
X223500Y219000D01*
X223500Y225000D02*
X227500Y225000D01*
X227500Y219000D01*
X223500Y219000D01*
X223500Y219950D02*
X227500Y219950D01*
X227500Y220900D02*
X223500Y220900D01*
X223500Y221850D02*
X227500Y221850D01*
X227500Y222800D02*
X223500Y222800D01*
X223500Y223750D02*
X227500Y223750D01*
X227500Y224700D02*
X223500Y224700D01*
X214000Y275000D02*
X210000Y275000D01*
X214000Y275000D02*
X214000Y270000D01*
X210000Y270000D01*
X210000Y275000D01*
X210000Y270950D02*
X214000Y270950D01*
X214000Y271900D02*
X210000Y271900D01*
X210000Y272850D02*
X214000Y272850D01*
X214000Y273800D02*
X210000Y273800D01*
X210000Y274750D02*
X214000Y274750D01*
X204000Y275000D02*
X200000Y275000D01*
X204000Y275000D02*
X204000Y270000D01*
X200000Y270000D01*
X200000Y275000D01*
X200000Y270950D02*
X204000Y270950D01*
X204000Y271900D02*
X200000Y271900D01*
X200000Y272850D02*
X204000Y272850D01*
X204000Y273800D02*
X200000Y273800D01*
X200000Y274750D02*
X204000Y274750D01*
X222500Y275500D02*
X222500Y269500D01*
X218500Y269500D01*
X218500Y275500D01*
X222500Y275500D01*
X222500Y270450D02*
X218500Y270450D01*
X218500Y271400D02*
X222500Y271400D01*
X222500Y272350D02*
X218500Y272350D01*
X218500Y273300D02*
X222500Y273300D01*
X222500Y274250D02*
X218500Y274250D01*
X218500Y275200D02*
X222500Y275200D01*
X222500Y281500D02*
X222500Y287500D01*
X222500Y281500D02*
X218500Y281500D01*
X218500Y287500D01*
X222500Y287500D01*
X222500Y282450D02*
X218500Y282450D01*
X218500Y283400D02*
X222500Y283400D01*
X222500Y284350D02*
X218500Y284350D01*
X218500Y285300D02*
X222500Y285300D01*
X222500Y286250D02*
X218500Y286250D01*
X218500Y287200D02*
X222500Y287200D01*
X204000Y278500D02*
X200000Y278500D01*
X200000Y283500D01*
X204000Y283500D01*
X204000Y278500D01*
X204000Y279450D02*
X200000Y279450D01*
X200000Y280400D02*
X204000Y280400D01*
X204000Y281350D02*
X200000Y281350D01*
X200000Y282300D02*
X204000Y282300D01*
X204000Y283250D02*
X200000Y283250D01*
X210000Y278500D02*
X214000Y278500D01*
X210000Y278500D02*
X210000Y283500D01*
X214000Y283500D01*
X214000Y278500D01*
X214000Y279450D02*
X210000Y279450D01*
X210000Y280400D02*
X214000Y280400D01*
X214000Y281350D02*
X210000Y281350D01*
X210000Y282300D02*
X214000Y282300D01*
X214000Y283250D02*
X210000Y283250D01*
X208500Y240500D02*
X214500Y240500D01*
X214500Y236500D01*
X208500Y236500D01*
X208500Y240500D01*
X208500Y237450D02*
X214500Y237450D01*
X214500Y238400D02*
X208500Y238400D01*
X208500Y239350D02*
X214500Y239350D01*
X214500Y240300D02*
X208500Y240300D01*
X202500Y240500D02*
X196500Y240500D01*
X202500Y240500D02*
X202500Y236500D01*
X196500Y236500D01*
X196500Y240500D01*
X196500Y237450D02*
X202500Y237450D01*
X202500Y238400D02*
X196500Y238400D01*
X196500Y239350D02*
X202500Y239350D01*
X202500Y240300D02*
X196500Y240300D01*
X188500Y246500D02*
X188500Y250500D01*
X193500Y250500D01*
X193500Y246500D01*
X188500Y246500D01*
X188500Y247450D02*
X193500Y247450D01*
X193500Y248400D02*
X188500Y248400D01*
X188500Y249350D02*
X193500Y249350D01*
X193500Y250300D02*
X188500Y250300D01*
X188500Y240500D02*
X188500Y236500D01*
X188500Y240500D02*
X193500Y240500D01*
X193500Y236500D01*
X188500Y236500D01*
X188500Y237450D02*
X193500Y237450D01*
X193500Y238400D02*
X188500Y238400D01*
X188500Y239350D02*
X193500Y239350D01*
X193500Y240300D02*
X188500Y240300D01*
X193000Y259000D02*
X199000Y259000D01*
X199000Y255000D01*
X193000Y255000D01*
X193000Y259000D01*
X193000Y255950D02*
X199000Y255950D01*
X199000Y256900D02*
X193000Y256900D01*
X193000Y257850D02*
X199000Y257850D01*
X199000Y258800D02*
X193000Y258800D01*
X187000Y259000D02*
X181000Y259000D01*
X187000Y259000D02*
X187000Y255000D01*
X181000Y255000D01*
X181000Y259000D01*
X181000Y255950D02*
X187000Y255950D01*
X187000Y256900D02*
X181000Y256900D01*
X181000Y257850D02*
X187000Y257850D01*
X187000Y258800D02*
X181000Y258800D01*
X185000Y240500D02*
X185000Y236500D01*
X180000Y236500D01*
X180000Y240500D01*
X185000Y240500D01*
X185000Y237450D02*
X180000Y237450D01*
X180000Y238400D02*
X185000Y238400D01*
X185000Y239350D02*
X180000Y239350D01*
X180000Y240300D02*
X185000Y240300D01*
X185000Y246500D02*
X185000Y250500D01*
X185000Y246500D02*
X180000Y246500D01*
X180000Y250500D01*
X185000Y250500D01*
X185000Y247450D02*
X180000Y247450D01*
X180000Y248400D02*
X185000Y248400D01*
X185000Y249350D02*
X180000Y249350D01*
X180000Y250300D02*
X185000Y250300D01*
X63000Y226000D02*
X63000Y220000D01*
X63000Y226000D02*
X67000Y226000D01*
X67000Y220000D01*
X63000Y220000D01*
X63000Y220950D02*
X67000Y220950D01*
X67000Y221900D02*
X63000Y221900D01*
X63000Y222850D02*
X67000Y222850D01*
X67000Y223800D02*
X63000Y223800D01*
X63000Y224750D02*
X67000Y224750D01*
X67000Y225700D02*
X63000Y225700D01*
X63000Y214000D02*
X63000Y208000D01*
X63000Y214000D02*
X67000Y214000D01*
X67000Y208000D01*
X63000Y208000D01*
X63000Y208950D02*
X67000Y208950D01*
X67000Y209900D02*
X63000Y209900D01*
X63000Y210850D02*
X67000Y210850D01*
X67000Y211800D02*
X63000Y211800D01*
X63000Y212750D02*
X67000Y212750D01*
X67000Y213700D02*
X63000Y213700D01*
X71500Y219000D02*
X71500Y223000D01*
X76500Y223000D01*
X76500Y219000D01*
X71500Y219000D01*
X71500Y219950D02*
X76500Y219950D01*
X76500Y220900D02*
X71500Y220900D01*
X71500Y221850D02*
X76500Y221850D01*
X76500Y222800D02*
X71500Y222800D01*
X71500Y213000D02*
X71500Y209000D01*
X71500Y213000D02*
X76500Y213000D01*
X76500Y209000D01*
X71500Y209000D01*
X71500Y209950D02*
X76500Y209950D01*
X76500Y210900D02*
X71500Y210900D01*
X71500Y211850D02*
X76500Y211850D01*
X76500Y212800D02*
X71500Y212800D01*
X67000Y176000D02*
X67000Y170000D01*
X63000Y170000D01*
X63000Y176000D01*
X67000Y176000D01*
X67000Y170950D02*
X63000Y170950D01*
X63000Y171900D02*
X67000Y171900D01*
X67000Y172850D02*
X63000Y172850D01*
X63000Y173800D02*
X67000Y173800D01*
X67000Y174750D02*
X63000Y174750D01*
X63000Y175700D02*
X67000Y175700D01*
X67000Y182000D02*
X67000Y188000D01*
X67000Y182000D02*
X63000Y182000D01*
X63000Y188000D01*
X67000Y188000D01*
X67000Y182950D02*
X63000Y182950D01*
X63000Y183900D02*
X67000Y183900D01*
X67000Y184850D02*
X63000Y184850D01*
X63000Y185800D02*
X67000Y185800D01*
X67000Y186750D02*
X63000Y186750D01*
X63000Y187700D02*
X67000Y187700D01*
X62500Y201000D02*
X62500Y205000D01*
X67500Y205000D01*
X67500Y201000D01*
X62500Y201000D01*
X62500Y201950D02*
X67500Y201950D01*
X67500Y202900D02*
X62500Y202900D01*
X62500Y203850D02*
X67500Y203850D01*
X67500Y204800D02*
X62500Y204800D01*
X62500Y195000D02*
X62500Y191000D01*
X62500Y195000D02*
X67500Y195000D01*
X67500Y191000D01*
X62500Y191000D01*
X62500Y191950D02*
X67500Y191950D01*
X67500Y192900D02*
X62500Y192900D01*
X62500Y193850D02*
X67500Y193850D01*
X67500Y194800D02*
X62500Y194800D01*
D35*
X71800Y82300D02*
X71800Y76700D01*
X60200Y76700D01*
X60200Y82300D01*
X71800Y82300D01*
X71800Y78030D02*
X60200Y78030D01*
X60200Y79360D02*
X71800Y79360D01*
X71800Y80690D02*
X60200Y80690D01*
X60200Y82020D02*
X71800Y82020D01*
X71800Y95700D02*
X71800Y101300D01*
X71800Y95700D02*
X60200Y95700D01*
X60200Y101300D01*
X71800Y101300D01*
X71800Y97030D02*
X60200Y97030D01*
X60200Y98360D02*
X71800Y98360D01*
X71800Y99690D02*
X60200Y99690D01*
X60200Y101020D02*
X71800Y101020D01*
D15*
X235500Y34500D02*
X235500Y30500D01*
X230500Y30500D01*
X230500Y34500D01*
X235500Y34500D01*
X235500Y31450D02*
X230500Y31450D01*
X230500Y32400D02*
X235500Y32400D01*
X235500Y33350D02*
X230500Y33350D01*
X230500Y34300D02*
X235500Y34300D01*
X235500Y40500D02*
X235500Y44500D01*
X235500Y40500D02*
X230500Y40500D01*
X230500Y44500D01*
X235500Y44500D01*
X235500Y41450D02*
X230500Y41450D01*
X230500Y42400D02*
X235500Y42400D01*
X235500Y43350D02*
X230500Y43350D01*
X230500Y44300D02*
X235500Y44300D01*
X222500Y44500D02*
X222500Y40500D01*
X222500Y44500D02*
X227500Y44500D01*
X227500Y40500D01*
X222500Y40500D01*
X222500Y41450D02*
X227500Y41450D01*
X227500Y42400D02*
X222500Y42400D01*
X222500Y43350D02*
X227500Y43350D01*
X227500Y44300D02*
X222500Y44300D01*
X222500Y34500D02*
X222500Y30500D01*
X222500Y34500D02*
X227500Y34500D01*
X227500Y30500D01*
X222500Y30500D01*
X222500Y31450D02*
X227500Y31450D01*
X227500Y32400D02*
X222500Y32400D01*
X222500Y33350D02*
X227500Y33350D01*
X227500Y34300D02*
X222500Y34300D01*
D22*
X238700Y42300D02*
X247300Y42300D01*
X247300Y38700D01*
X238700Y38700D01*
X238700Y42300D01*
X238700Y39555D02*
X247300Y39555D01*
X247300Y40410D02*
X238700Y40410D01*
X238700Y41265D02*
X247300Y41265D01*
X247300Y42120D02*
X238700Y42120D01*
X238700Y35800D02*
X247300Y35800D01*
X247300Y32200D01*
X238700Y32200D01*
X238700Y35800D01*
X238700Y33055D02*
X247300Y33055D01*
X247300Y33910D02*
X238700Y33910D01*
X238700Y34765D02*
X247300Y34765D01*
X247300Y35620D02*
X238700Y35620D01*
X238700Y29300D02*
X247300Y29300D01*
X247300Y25700D01*
X238700Y25700D01*
X238700Y29300D01*
X238700Y26555D02*
X247300Y26555D01*
X247300Y27410D02*
X238700Y27410D01*
X238700Y28265D02*
X247300Y28265D01*
X247300Y29120D02*
X238700Y29120D01*
X260700Y29300D02*
X269300Y29300D01*
X269300Y25700D01*
X260700Y25700D01*
X260700Y29300D01*
X260700Y26555D02*
X269300Y26555D01*
X269300Y27410D02*
X260700Y27410D01*
X260700Y28265D02*
X269300Y28265D01*
X269300Y29120D02*
X260700Y29120D01*
X260700Y35800D02*
X269300Y35800D01*
X269300Y32200D01*
X260700Y32200D01*
X260700Y35800D01*
X260700Y33055D02*
X269300Y33055D01*
X269300Y33910D02*
X260700Y33910D01*
X260700Y34765D02*
X269300Y34765D01*
X269300Y35620D02*
X260700Y35620D01*
X260700Y42300D02*
X269300Y42300D01*
X269300Y38700D01*
X260700Y38700D01*
X260700Y42300D01*
X260700Y39555D02*
X269300Y39555D01*
X269300Y40410D02*
X260700Y40410D01*
X260700Y41265D02*
X269300Y41265D01*
X269300Y42120D02*
X260700Y42120D01*
D15*
X272500Y37500D02*
X272500Y33500D01*
X272500Y37500D02*
X277500Y37500D01*
X277500Y33500D01*
X272500Y33500D01*
X272500Y34450D02*
X277500Y34450D01*
X277500Y35400D02*
X272500Y35400D01*
X272500Y36350D02*
X277500Y36350D01*
X277500Y37300D02*
X272500Y37300D01*
X272500Y27500D02*
X272500Y23500D01*
X272500Y27500D02*
X277500Y27500D01*
X277500Y23500D01*
X272500Y23500D01*
X272500Y24450D02*
X277500Y24450D01*
X277500Y25400D02*
X272500Y25400D01*
X272500Y26350D02*
X277500Y26350D01*
X277500Y27300D02*
X272500Y27300D01*
X254000Y48500D02*
X250000Y48500D01*
X250000Y53500D01*
X254000Y53500D01*
X254000Y48500D01*
X254000Y49450D02*
X250000Y49450D01*
X250000Y50400D02*
X254000Y50400D01*
X254000Y51350D02*
X250000Y51350D01*
X250000Y52300D02*
X254000Y52300D01*
X254000Y53250D02*
X250000Y53250D01*
X260000Y48500D02*
X264000Y48500D01*
X260000Y48500D02*
X260000Y53500D01*
X264000Y53500D01*
X264000Y48500D01*
X264000Y49450D02*
X260000Y49450D01*
X260000Y50400D02*
X264000Y50400D01*
X264000Y51350D02*
X260000Y51350D01*
X260000Y52300D02*
X264000Y52300D01*
X264000Y53250D02*
X260000Y53250D01*
D29*
X86500Y267000D03*
X64500Y267000D03*
D36*
X22000Y22000D03*
X22000Y478000D03*
X478000Y478000D03*
X478000Y22000D03*
M02*
