G04 EAGLE Gerber RS-274X export*
G75*
%MOMM*%
%FSLAX34Y34*%
%LPD*%
%INBottom Soldermask*%
%IPPOS*%
%AMOC8*
5,1,8,0,0,1.08239X$1,22.5*%
G01*
%ADD10R,6.050000X50.000000*%
%ADD11R,5.050000X7.450000*%
%ADD12R,2.500000X3.400000*%
%ADD13R,1.000000X4.000000*%
%ADD14R,4.000000X10.000000*%
%ADD15C,1.350000*%
%ADD16C,0.804800*%
%ADD17C,1.500000*%
%ADD18C,3.800000*%


D10*
X419250Y250000D03*
D11*
X474750Y91750D03*
X474750Y249750D03*
X474750Y407750D03*
D12*
X104500Y381000D03*
D13*
X151500Y25000D03*
X131500Y25000D03*
X111500Y25000D03*
X91500Y25000D03*
X71500Y25000D03*
D14*
X252000Y447000D03*
D15*
X377000Y122000D03*
X376000Y68000D03*
X377000Y280000D03*
X376000Y226000D03*
X377000Y438000D03*
X376000Y384000D03*
D16*
X284500Y491500D03*
X286500Y387000D03*
X460000Y359500D03*
X280000Y336000D03*
X285500Y224500D03*
X471500Y360000D03*
D15*
X466500Y138500D03*
X489500Y298500D03*
X459000Y452500D03*
D16*
X282000Y171500D03*
X281500Y64500D03*
X225500Y154500D03*
D15*
X142500Y268750D03*
X185500Y216500D03*
X165000Y253000D03*
D16*
X175000Y319500D03*
X77500Y349500D03*
X492000Y201000D03*
X52500Y350500D03*
X198500Y320500D03*
D15*
X54500Y256000D03*
D17*
X343000Y69500D03*
X356000Y125000D03*
X333000Y385500D03*
X356000Y441000D03*
X342500Y227500D03*
X355500Y283000D03*
D18*
X22000Y22000D03*
X22000Y478000D03*
X478000Y478000D03*
X478000Y22000D03*
M02*
