G04 EAGLE Gerber RS-274X export*
G75*
%MOMM*%
%FSLAX34Y34*%
%LPD*%
%INBottom Silkscreen*%
%IPPOS*%
%AMOC8*
5,1,8,0,0,1.08239X$1,22.5*%
G01*
%ADD10C,0.152400*%
%ADD11C,0.355600*%
%ADD12C,0.127000*%
%ADD13C,0.101600*%

G36*
X211140Y26472D02*
X211140Y26472D01*
X211192Y26477D01*
X211214Y26491D01*
X211225Y26493D01*
X211233Y26502D01*
X211262Y26520D01*
X212151Y27282D01*
X212152Y27283D01*
X212154Y27285D01*
X213297Y28301D01*
X213300Y28305D01*
X213308Y28311D01*
X214197Y29200D01*
X214200Y29204D01*
X214207Y29211D01*
X215223Y30354D01*
X215239Y30386D01*
X215253Y30402D01*
X215255Y30418D01*
X215279Y30457D01*
X215279Y30470D01*
X215284Y30481D01*
X215277Y30540D01*
X215276Y30598D01*
X215268Y30613D01*
X215267Y30621D01*
X215259Y30631D01*
X215239Y30671D01*
X211653Y35617D01*
X212459Y36998D01*
X212460Y37004D01*
X212467Y37013D01*
X212975Y38029D01*
X212977Y38041D01*
X212991Y38069D01*
X213372Y39339D01*
X213372Y39340D01*
X213373Y39342D01*
X213836Y40966D01*
X219901Y41956D01*
X219960Y41984D01*
X220020Y42010D01*
X220023Y42014D01*
X220028Y42017D01*
X220063Y42072D01*
X220100Y42126D01*
X220101Y42133D01*
X220103Y42136D01*
X220103Y42145D01*
X220113Y42206D01*
X220113Y47794D01*
X220095Y47857D01*
X220079Y47921D01*
X220076Y47924D01*
X220074Y47929D01*
X220025Y47973D01*
X219978Y48018D01*
X219971Y48020D01*
X219969Y48023D01*
X219960Y48024D01*
X219901Y48044D01*
X213815Y49038D01*
X213496Y49783D01*
X213119Y51163D01*
X213113Y51173D01*
X213105Y51202D01*
X212343Y52853D01*
X212337Y52860D01*
X212330Y52877D01*
X211652Y54008D01*
X215116Y59081D01*
X215136Y59140D01*
X215159Y59199D01*
X215157Y59207D01*
X215160Y59215D01*
X215145Y59276D01*
X215134Y59337D01*
X215127Y59346D01*
X215126Y59352D01*
X215117Y59360D01*
X215086Y59403D01*
X214457Y60033D01*
X213445Y61170D01*
X213441Y61173D01*
X213435Y61181D01*
X212165Y62451D01*
X212156Y62456D01*
X212141Y62472D01*
X210998Y63361D01*
X210951Y63380D01*
X210908Y63406D01*
X210887Y63405D01*
X210868Y63413D01*
X210818Y63404D01*
X210767Y63403D01*
X210741Y63389D01*
X210729Y63387D01*
X210720Y63379D01*
X210694Y63366D01*
X205747Y59779D01*
X204111Y60714D01*
X204100Y60716D01*
X204079Y60729D01*
X202809Y61237D01*
X202804Y61238D01*
X202795Y61242D01*
X201035Y61829D01*
X200044Y67775D01*
X200021Y67822D01*
X200005Y67873D01*
X199991Y67885D01*
X199983Y67902D01*
X199938Y67930D01*
X199898Y67964D01*
X199873Y67971D01*
X199863Y67977D01*
X199851Y67976D01*
X199819Y67985D01*
X198549Y68112D01*
X198541Y68111D01*
X198524Y68113D01*
X195603Y68113D01*
X195596Y68111D01*
X195582Y68112D01*
X194058Y67985D01*
X194008Y67966D01*
X193957Y67955D01*
X193944Y67942D01*
X193926Y67935D01*
X193895Y67893D01*
X193857Y67855D01*
X193849Y67831D01*
X193842Y67822D01*
X193841Y67810D01*
X193830Y67779D01*
X192717Y61721D01*
X191738Y61503D01*
X191727Y61497D01*
X191690Y61487D01*
X189404Y60471D01*
X189398Y60467D01*
X189384Y60461D01*
X188380Y59904D01*
X183303Y63495D01*
X183261Y63509D01*
X183224Y63532D01*
X183196Y63532D01*
X183170Y63541D01*
X183127Y63531D01*
X183083Y63530D01*
X183045Y63512D01*
X183033Y63509D01*
X183027Y63502D01*
X183010Y63494D01*
X182121Y62859D01*
X182116Y62853D01*
X182101Y62844D01*
X181085Y61955D01*
X181082Y61950D01*
X181073Y61943D01*
X179803Y60673D01*
X179799Y60665D01*
X179784Y60652D01*
X178768Y59382D01*
X178748Y59334D01*
X178721Y59290D01*
X178722Y59270D01*
X178714Y59252D01*
X178723Y59201D01*
X178724Y59149D01*
X178736Y59124D01*
X178738Y59113D01*
X178746Y59104D01*
X178760Y59076D01*
X182227Y54248D01*
X182172Y54138D01*
X181287Y52621D01*
X181285Y52612D01*
X181275Y52598D01*
X180640Y51201D01*
X180639Y51191D01*
X180629Y51170D01*
X180166Y49666D01*
X174094Y48551D01*
X174049Y48528D01*
X174000Y48513D01*
X173987Y48497D01*
X173968Y48488D01*
X173942Y48444D01*
X173909Y48406D01*
X173901Y48378D01*
X173895Y48367D01*
X173896Y48356D01*
X173888Y48327D01*
X173761Y47057D01*
X173761Y47056D01*
X173761Y47055D01*
X173634Y45658D01*
X173635Y45650D01*
X173633Y45635D01*
X173633Y42714D01*
X173650Y42653D01*
X173664Y42592D01*
X173670Y42586D01*
X173672Y42579D01*
X173719Y42537D01*
X173764Y42492D01*
X173773Y42489D01*
X173777Y42485D01*
X173788Y42483D01*
X173840Y42465D01*
X179903Y41351D01*
X180371Y39478D01*
X180375Y39472D01*
X180377Y39459D01*
X180885Y37935D01*
X180892Y37924D01*
X180906Y37887D01*
X181714Y36502D01*
X178123Y31301D01*
X178107Y31255D01*
X178084Y31213D01*
X178085Y31190D01*
X178078Y31167D01*
X178089Y31121D01*
X178092Y31073D01*
X178109Y31043D01*
X178112Y31030D01*
X178119Y31023D01*
X178131Y31002D01*
X179020Y29859D01*
X179025Y29855D01*
X179031Y29846D01*
X180047Y28703D01*
X180051Y28700D01*
X180057Y28692D01*
X180946Y27803D01*
X180951Y27800D01*
X180958Y27791D01*
X181974Y26902D01*
X182025Y26879D01*
X182072Y26849D01*
X182088Y26849D01*
X182102Y26843D01*
X182157Y26850D01*
X182213Y26850D01*
X182232Y26859D01*
X182242Y26861D01*
X182252Y26869D01*
X182286Y26886D01*
X187224Y30342D01*
X188605Y29422D01*
X188617Y29418D01*
X188648Y29399D01*
X190172Y28764D01*
X190189Y28762D01*
X190205Y28753D01*
X190258Y28754D01*
X190312Y28748D01*
X190328Y28756D01*
X190345Y28757D01*
X190390Y28786D01*
X190438Y28810D01*
X190448Y28825D01*
X190463Y28835D01*
X190504Y28904D01*
X194441Y38810D01*
X194447Y38874D01*
X194457Y38937D01*
X194454Y38943D01*
X194455Y38951D01*
X194426Y39008D01*
X194401Y39066D01*
X194394Y39072D01*
X194391Y39077D01*
X194382Y39082D01*
X194340Y39119D01*
X193197Y39828D01*
X192242Y40737D01*
X191492Y41822D01*
X190979Y43037D01*
X190725Y44331D01*
X190739Y45649D01*
X191023Y46937D01*
X191563Y48140D01*
X192337Y49207D01*
X193312Y50095D01*
X194448Y50765D01*
X195696Y51189D01*
X197004Y51349D01*
X198357Y51230D01*
X199652Y50823D01*
X200829Y50149D01*
X201835Y49238D01*
X202623Y48133D01*
X203156Y46885D01*
X203409Y45552D01*
X203371Y44195D01*
X203044Y42878D01*
X202442Y41662D01*
X201593Y40603D01*
X200538Y39750D01*
X199300Y39130D01*
X199249Y39083D01*
X199197Y39036D01*
X199197Y39035D01*
X199196Y39035D01*
X199178Y38967D01*
X199160Y38900D01*
X199160Y38899D01*
X199160Y38897D01*
X199174Y38820D01*
X202730Y28660D01*
X202750Y28633D01*
X202760Y28601D01*
X202790Y28577D01*
X202812Y28546D01*
X202843Y28533D01*
X202869Y28511D01*
X202907Y28507D01*
X202942Y28492D01*
X202975Y28498D01*
X203009Y28494D01*
X203075Y28516D01*
X203081Y28517D01*
X203082Y28518D01*
X203086Y28519D01*
X205873Y29973D01*
X210954Y26503D01*
X211005Y26486D01*
X211052Y26463D01*
X211071Y26465D01*
X211088Y26459D01*
X211140Y26472D01*
G37*
D10*
X366880Y144560D02*
X365440Y144560D01*
X365440Y139762D01*
X368319Y139762D01*
X368405Y139764D01*
X368491Y139770D01*
X368577Y139779D01*
X368662Y139793D01*
X368746Y139810D01*
X368830Y139831D01*
X368912Y139856D01*
X368993Y139884D01*
X369073Y139916D01*
X369152Y139952D01*
X369228Y139991D01*
X369303Y140034D01*
X369376Y140079D01*
X369447Y140129D01*
X369515Y140181D01*
X369582Y140236D01*
X369645Y140294D01*
X369706Y140355D01*
X369764Y140418D01*
X369819Y140485D01*
X369872Y140553D01*
X369921Y140624D01*
X369966Y140697D01*
X370009Y140772D01*
X370048Y140848D01*
X370084Y140927D01*
X370116Y141007D01*
X370144Y141088D01*
X370169Y141171D01*
X370190Y141254D01*
X370207Y141338D01*
X370221Y141423D01*
X370230Y141509D01*
X370236Y141595D01*
X370238Y141681D01*
X370238Y146479D01*
X370236Y146565D01*
X370230Y146651D01*
X370221Y146737D01*
X370207Y146822D01*
X370190Y146906D01*
X370169Y146990D01*
X370144Y147072D01*
X370116Y147153D01*
X370084Y147233D01*
X370048Y147312D01*
X370009Y147388D01*
X369966Y147463D01*
X369921Y147536D01*
X369872Y147607D01*
X369819Y147675D01*
X369764Y147742D01*
X369706Y147805D01*
X369645Y147866D01*
X369582Y147924D01*
X369516Y147979D01*
X369447Y148031D01*
X369376Y148081D01*
X369303Y148126D01*
X369228Y148169D01*
X369152Y148208D01*
X369073Y148244D01*
X368993Y148276D01*
X368912Y148304D01*
X368830Y148329D01*
X368746Y148350D01*
X368662Y148367D01*
X368577Y148381D01*
X368491Y148390D01*
X368405Y148396D01*
X368319Y148398D01*
X365440Y148398D01*
X359308Y143120D02*
X357149Y143120D01*
X359308Y143120D02*
X359389Y143118D01*
X359470Y143112D01*
X359551Y143102D01*
X359631Y143089D01*
X359710Y143071D01*
X359788Y143050D01*
X359865Y143025D01*
X359941Y142996D01*
X360016Y142964D01*
X360088Y142928D01*
X360159Y142888D01*
X360228Y142845D01*
X360295Y142799D01*
X360359Y142750D01*
X360421Y142698D01*
X360481Y142642D01*
X360537Y142584D01*
X360591Y142524D01*
X360642Y142460D01*
X360690Y142395D01*
X360734Y142327D01*
X360775Y142257D01*
X360813Y142185D01*
X360847Y142112D01*
X360878Y142036D01*
X360905Y141960D01*
X360928Y141882D01*
X360947Y141803D01*
X360963Y141724D01*
X360975Y141643D01*
X360983Y141563D01*
X360987Y141482D01*
X360987Y141400D01*
X360983Y141319D01*
X360975Y141239D01*
X360963Y141158D01*
X360947Y141079D01*
X360928Y141000D01*
X360905Y140922D01*
X360878Y140846D01*
X360847Y140770D01*
X360813Y140697D01*
X360775Y140625D01*
X360734Y140555D01*
X360690Y140487D01*
X360642Y140422D01*
X360591Y140358D01*
X360537Y140298D01*
X360481Y140240D01*
X360421Y140184D01*
X360359Y140132D01*
X360295Y140083D01*
X360228Y140037D01*
X360159Y139994D01*
X360088Y139954D01*
X360016Y139918D01*
X359941Y139886D01*
X359865Y139857D01*
X359788Y139832D01*
X359710Y139811D01*
X359631Y139793D01*
X359551Y139780D01*
X359470Y139770D01*
X359389Y139764D01*
X359308Y139762D01*
X357149Y139762D01*
X357149Y144080D01*
X357151Y144153D01*
X357156Y144226D01*
X357166Y144298D01*
X357178Y144370D01*
X357195Y144441D01*
X357215Y144511D01*
X357239Y144580D01*
X357266Y144647D01*
X357296Y144714D01*
X357330Y144778D01*
X357367Y144841D01*
X357407Y144902D01*
X357450Y144961D01*
X357496Y145017D01*
X357545Y145071D01*
X357597Y145123D01*
X357651Y145172D01*
X357707Y145218D01*
X357766Y145261D01*
X357827Y145301D01*
X357890Y145338D01*
X357954Y145372D01*
X358021Y145402D01*
X358088Y145429D01*
X358157Y145453D01*
X358227Y145473D01*
X358298Y145490D01*
X358370Y145502D01*
X358442Y145512D01*
X358515Y145517D01*
X358588Y145519D01*
X360507Y145519D01*
X352255Y148398D02*
X352255Y139762D01*
X347457Y139762D02*
X352255Y148398D01*
X347457Y148398D02*
X347457Y139762D01*
X337599Y139762D02*
X337599Y148398D01*
X333760Y148398D01*
X333760Y144560D02*
X337599Y144560D01*
X328695Y139762D02*
X326296Y139762D01*
X328695Y139762D02*
X328770Y139764D01*
X328845Y139770D01*
X328920Y139780D01*
X328994Y139793D01*
X329067Y139811D01*
X329140Y139832D01*
X329211Y139858D01*
X329280Y139886D01*
X329348Y139919D01*
X329415Y139955D01*
X329479Y139994D01*
X329541Y140037D01*
X329601Y140083D01*
X329658Y140132D01*
X329713Y140183D01*
X329764Y140238D01*
X329813Y140295D01*
X329859Y140355D01*
X329902Y140417D01*
X329941Y140482D01*
X329977Y140548D01*
X330010Y140616D01*
X330038Y140685D01*
X330064Y140756D01*
X330085Y140829D01*
X330103Y140902D01*
X330116Y140976D01*
X330126Y141051D01*
X330132Y141126D01*
X330134Y141201D01*
X330134Y143600D01*
X330132Y143686D01*
X330126Y143772D01*
X330117Y143858D01*
X330103Y143943D01*
X330086Y144027D01*
X330065Y144111D01*
X330040Y144193D01*
X330012Y144274D01*
X329980Y144354D01*
X329944Y144433D01*
X329905Y144509D01*
X329862Y144584D01*
X329817Y144657D01*
X329768Y144728D01*
X329715Y144796D01*
X329660Y144863D01*
X329602Y144926D01*
X329541Y144987D01*
X329478Y145045D01*
X329411Y145100D01*
X329343Y145153D01*
X329272Y145202D01*
X329199Y145247D01*
X329124Y145290D01*
X329048Y145329D01*
X328969Y145365D01*
X328889Y145397D01*
X328808Y145425D01*
X328726Y145450D01*
X328642Y145471D01*
X328558Y145488D01*
X328473Y145502D01*
X328387Y145511D01*
X328301Y145517D01*
X328215Y145519D01*
X328129Y145517D01*
X328043Y145511D01*
X327957Y145502D01*
X327872Y145488D01*
X327788Y145471D01*
X327704Y145450D01*
X327622Y145425D01*
X327541Y145397D01*
X327461Y145365D01*
X327382Y145329D01*
X327306Y145290D01*
X327231Y145247D01*
X327158Y145202D01*
X327087Y145153D01*
X327019Y145100D01*
X326952Y145045D01*
X326889Y144987D01*
X326828Y144926D01*
X326770Y144863D01*
X326715Y144796D01*
X326662Y144728D01*
X326613Y144657D01*
X326568Y144584D01*
X326525Y144509D01*
X326486Y144433D01*
X326450Y144354D01*
X326418Y144274D01*
X326390Y144193D01*
X326365Y144111D01*
X326344Y144027D01*
X326327Y143943D01*
X326313Y143858D01*
X326304Y143772D01*
X326298Y143686D01*
X326296Y143600D01*
X326296Y142641D01*
X330134Y142641D01*
X323055Y145519D02*
X320177Y145519D01*
X322096Y148398D02*
X322096Y141201D01*
X322095Y141201D02*
X322093Y141126D01*
X322087Y141051D01*
X322077Y140976D01*
X322064Y140902D01*
X322046Y140829D01*
X322025Y140756D01*
X321999Y140685D01*
X321971Y140616D01*
X321938Y140548D01*
X321902Y140482D01*
X321863Y140417D01*
X321820Y140355D01*
X321774Y140295D01*
X321725Y140238D01*
X321674Y140183D01*
X321619Y140132D01*
X321562Y140083D01*
X321502Y140037D01*
X321440Y139994D01*
X321376Y139955D01*
X321309Y139919D01*
X321241Y139886D01*
X321172Y139858D01*
X321101Y139832D01*
X321028Y139811D01*
X320955Y139793D01*
X320881Y139780D01*
X320806Y139770D01*
X320731Y139764D01*
X320656Y139762D01*
X320177Y139762D01*
X310912Y144560D02*
X308513Y144560D01*
X308416Y144558D01*
X308320Y144552D01*
X308224Y144543D01*
X308128Y144529D01*
X308033Y144512D01*
X307939Y144490D01*
X307846Y144465D01*
X307753Y144437D01*
X307662Y144404D01*
X307573Y144368D01*
X307485Y144328D01*
X307398Y144285D01*
X307314Y144239D01*
X307231Y144189D01*
X307150Y144135D01*
X307072Y144079D01*
X306996Y144019D01*
X306922Y143957D01*
X306851Y143891D01*
X306783Y143823D01*
X306717Y143752D01*
X306655Y143678D01*
X306595Y143602D01*
X306539Y143524D01*
X306485Y143443D01*
X306435Y143361D01*
X306389Y143276D01*
X306346Y143189D01*
X306306Y143101D01*
X306270Y143012D01*
X306237Y142921D01*
X306209Y142828D01*
X306184Y142735D01*
X306162Y142641D01*
X306145Y142546D01*
X306131Y142450D01*
X306122Y142354D01*
X306116Y142258D01*
X306114Y142161D01*
X306116Y142064D01*
X306122Y141968D01*
X306131Y141872D01*
X306145Y141776D01*
X306162Y141681D01*
X306184Y141587D01*
X306209Y141494D01*
X306237Y141401D01*
X306270Y141310D01*
X306306Y141221D01*
X306346Y141133D01*
X306389Y141046D01*
X306435Y140962D01*
X306485Y140879D01*
X306539Y140798D01*
X306595Y140720D01*
X306655Y140644D01*
X306717Y140570D01*
X306783Y140499D01*
X306851Y140431D01*
X306922Y140365D01*
X306996Y140303D01*
X307072Y140243D01*
X307150Y140187D01*
X307231Y140133D01*
X307314Y140083D01*
X307398Y140037D01*
X307485Y139994D01*
X307573Y139954D01*
X307662Y139918D01*
X307753Y139885D01*
X307846Y139857D01*
X307939Y139832D01*
X308033Y139810D01*
X308128Y139793D01*
X308224Y139779D01*
X308320Y139770D01*
X308416Y139764D01*
X308513Y139762D01*
X310912Y139762D01*
X310912Y148398D01*
X308513Y148398D01*
X308427Y148396D01*
X308341Y148390D01*
X308255Y148381D01*
X308170Y148367D01*
X308086Y148350D01*
X308002Y148329D01*
X307920Y148304D01*
X307839Y148276D01*
X307759Y148244D01*
X307680Y148208D01*
X307604Y148169D01*
X307529Y148126D01*
X307456Y148081D01*
X307385Y148032D01*
X307317Y147979D01*
X307250Y147924D01*
X307187Y147866D01*
X307126Y147805D01*
X307068Y147742D01*
X307013Y147675D01*
X306960Y147607D01*
X306911Y147536D01*
X306866Y147463D01*
X306823Y147388D01*
X306784Y147312D01*
X306748Y147233D01*
X306716Y147153D01*
X306688Y147072D01*
X306663Y146990D01*
X306642Y146906D01*
X306625Y146822D01*
X306611Y146737D01*
X306602Y146651D01*
X306596Y146565D01*
X306594Y146479D01*
X306596Y146393D01*
X306602Y146307D01*
X306611Y146221D01*
X306625Y146136D01*
X306642Y146052D01*
X306663Y145968D01*
X306688Y145886D01*
X306716Y145805D01*
X306748Y145725D01*
X306784Y145646D01*
X306823Y145570D01*
X306866Y145495D01*
X306911Y145422D01*
X306960Y145351D01*
X307013Y145283D01*
X307068Y145216D01*
X307126Y145153D01*
X307187Y145092D01*
X307250Y145034D01*
X307317Y144979D01*
X307385Y144926D01*
X307456Y144877D01*
X307529Y144832D01*
X307604Y144789D01*
X307680Y144750D01*
X307759Y144714D01*
X307839Y144682D01*
X307920Y144654D01*
X308002Y144629D01*
X308086Y144608D01*
X308170Y144591D01*
X308255Y144577D01*
X308341Y144568D01*
X308427Y144562D01*
X308513Y144560D01*
X300786Y143120D02*
X298627Y143120D01*
X300786Y143120D02*
X300867Y143118D01*
X300948Y143112D01*
X301029Y143102D01*
X301109Y143089D01*
X301188Y143071D01*
X301266Y143050D01*
X301343Y143025D01*
X301419Y142996D01*
X301494Y142964D01*
X301566Y142928D01*
X301637Y142888D01*
X301706Y142845D01*
X301773Y142799D01*
X301837Y142750D01*
X301899Y142698D01*
X301959Y142642D01*
X302015Y142584D01*
X302069Y142524D01*
X302120Y142460D01*
X302168Y142395D01*
X302212Y142327D01*
X302253Y142257D01*
X302291Y142185D01*
X302325Y142112D01*
X302356Y142036D01*
X302383Y141960D01*
X302406Y141882D01*
X302425Y141803D01*
X302441Y141724D01*
X302453Y141643D01*
X302461Y141563D01*
X302465Y141482D01*
X302465Y141400D01*
X302461Y141319D01*
X302453Y141239D01*
X302441Y141158D01*
X302425Y141079D01*
X302406Y141000D01*
X302383Y140922D01*
X302356Y140846D01*
X302325Y140770D01*
X302291Y140697D01*
X302253Y140625D01*
X302212Y140555D01*
X302168Y140487D01*
X302120Y140422D01*
X302069Y140358D01*
X302015Y140298D01*
X301959Y140240D01*
X301899Y140184D01*
X301837Y140132D01*
X301773Y140083D01*
X301706Y140037D01*
X301637Y139994D01*
X301566Y139954D01*
X301494Y139918D01*
X301419Y139886D01*
X301343Y139857D01*
X301266Y139832D01*
X301188Y139811D01*
X301109Y139793D01*
X301029Y139780D01*
X300948Y139770D01*
X300867Y139764D01*
X300786Y139762D01*
X298627Y139762D01*
X298627Y144080D01*
X298628Y144080D02*
X298630Y144153D01*
X298635Y144226D01*
X298645Y144298D01*
X298657Y144370D01*
X298674Y144441D01*
X298694Y144511D01*
X298718Y144580D01*
X298745Y144647D01*
X298775Y144714D01*
X298809Y144778D01*
X298846Y144841D01*
X298886Y144902D01*
X298929Y144961D01*
X298975Y145017D01*
X299024Y145071D01*
X299076Y145123D01*
X299130Y145172D01*
X299186Y145218D01*
X299245Y145261D01*
X299306Y145301D01*
X299369Y145338D01*
X299433Y145372D01*
X299500Y145402D01*
X299567Y145429D01*
X299636Y145453D01*
X299706Y145473D01*
X299777Y145490D01*
X299849Y145502D01*
X299921Y145512D01*
X299994Y145517D01*
X300067Y145519D01*
X301986Y145519D01*
X293449Y143120D02*
X291050Y142161D01*
X293449Y143120D02*
X293512Y143147D01*
X293574Y143178D01*
X293634Y143213D01*
X293692Y143250D01*
X293748Y143291D01*
X293801Y143334D01*
X293852Y143381D01*
X293900Y143430D01*
X293946Y143482D01*
X293988Y143537D01*
X294028Y143594D01*
X294064Y143652D01*
X294097Y143713D01*
X294126Y143775D01*
X294152Y143839D01*
X294175Y143905D01*
X294193Y143971D01*
X294208Y144039D01*
X294220Y144107D01*
X294227Y144175D01*
X294231Y144244D01*
X294230Y144313D01*
X294226Y144382D01*
X294218Y144451D01*
X294207Y144519D01*
X294191Y144586D01*
X294172Y144653D01*
X294150Y144718D01*
X294123Y144782D01*
X294093Y144844D01*
X294060Y144904D01*
X294023Y144963D01*
X293984Y145019D01*
X293941Y145074D01*
X293895Y145125D01*
X293847Y145174D01*
X293795Y145221D01*
X293742Y145264D01*
X293686Y145304D01*
X293627Y145341D01*
X293567Y145375D01*
X293505Y145406D01*
X293442Y145433D01*
X293377Y145456D01*
X293311Y145476D01*
X293244Y145492D01*
X293176Y145505D01*
X293107Y145513D01*
X293038Y145518D01*
X292969Y145519D01*
X292830Y145516D01*
X292691Y145508D01*
X292552Y145497D01*
X292414Y145483D01*
X292276Y145465D01*
X292138Y145444D01*
X292001Y145419D01*
X291865Y145390D01*
X291729Y145358D01*
X291595Y145323D01*
X291461Y145284D01*
X291328Y145242D01*
X291197Y145196D01*
X291067Y145147D01*
X290938Y145095D01*
X290810Y145040D01*
X291050Y142161D02*
X290987Y142134D01*
X290925Y142103D01*
X290865Y142068D01*
X290807Y142031D01*
X290751Y141990D01*
X290698Y141947D01*
X290647Y141900D01*
X290599Y141851D01*
X290553Y141799D01*
X290511Y141744D01*
X290471Y141687D01*
X290435Y141629D01*
X290402Y141568D01*
X290373Y141505D01*
X290347Y141442D01*
X290324Y141376D01*
X290306Y141310D01*
X290291Y141242D01*
X290279Y141174D01*
X290272Y141106D01*
X290268Y141037D01*
X290269Y140968D01*
X290273Y140899D01*
X290281Y140830D01*
X290292Y140762D01*
X290308Y140695D01*
X290327Y140628D01*
X290349Y140563D01*
X290376Y140499D01*
X290406Y140437D01*
X290439Y140377D01*
X290476Y140318D01*
X290515Y140262D01*
X290558Y140207D01*
X290604Y140156D01*
X290652Y140107D01*
X290704Y140060D01*
X290757Y140017D01*
X290813Y139977D01*
X290872Y139940D01*
X290932Y139906D01*
X290994Y139875D01*
X291057Y139848D01*
X291122Y139825D01*
X291188Y139805D01*
X291255Y139789D01*
X291323Y139776D01*
X291392Y139768D01*
X291461Y139763D01*
X291530Y139762D01*
X291529Y139763D02*
X291722Y139768D01*
X291914Y139777D01*
X292106Y139792D01*
X292297Y139810D01*
X292488Y139833D01*
X292679Y139861D01*
X292869Y139893D01*
X293057Y139930D01*
X293245Y139971D01*
X293432Y140017D01*
X293618Y140067D01*
X293803Y140121D01*
X293986Y140180D01*
X294168Y140243D01*
X284804Y139762D02*
X282405Y139762D01*
X284804Y139762D02*
X284879Y139764D01*
X284954Y139770D01*
X285029Y139780D01*
X285103Y139793D01*
X285176Y139811D01*
X285249Y139832D01*
X285320Y139858D01*
X285389Y139886D01*
X285457Y139919D01*
X285524Y139955D01*
X285588Y139994D01*
X285650Y140037D01*
X285710Y140083D01*
X285767Y140132D01*
X285822Y140183D01*
X285873Y140238D01*
X285922Y140295D01*
X285968Y140355D01*
X286011Y140417D01*
X286050Y140482D01*
X286086Y140548D01*
X286119Y140616D01*
X286147Y140685D01*
X286173Y140756D01*
X286194Y140829D01*
X286212Y140902D01*
X286225Y140976D01*
X286235Y141051D01*
X286241Y141126D01*
X286243Y141201D01*
X286243Y143600D01*
X286241Y143686D01*
X286235Y143772D01*
X286226Y143858D01*
X286212Y143943D01*
X286195Y144027D01*
X286174Y144111D01*
X286149Y144193D01*
X286121Y144274D01*
X286089Y144354D01*
X286053Y144433D01*
X286014Y144509D01*
X285971Y144584D01*
X285926Y144657D01*
X285877Y144728D01*
X285824Y144796D01*
X285769Y144863D01*
X285711Y144926D01*
X285650Y144987D01*
X285587Y145045D01*
X285520Y145100D01*
X285452Y145153D01*
X285381Y145202D01*
X285308Y145247D01*
X285233Y145290D01*
X285157Y145329D01*
X285078Y145365D01*
X284998Y145397D01*
X284917Y145425D01*
X284835Y145450D01*
X284751Y145471D01*
X284667Y145488D01*
X284582Y145502D01*
X284496Y145511D01*
X284410Y145517D01*
X284324Y145519D01*
X284238Y145517D01*
X284152Y145511D01*
X284066Y145502D01*
X283981Y145488D01*
X283897Y145471D01*
X283813Y145450D01*
X283731Y145425D01*
X283650Y145397D01*
X283570Y145365D01*
X283491Y145329D01*
X283415Y145290D01*
X283340Y145247D01*
X283267Y145202D01*
X283196Y145153D01*
X283128Y145100D01*
X283061Y145045D01*
X282998Y144987D01*
X282937Y144926D01*
X282879Y144863D01*
X282824Y144796D01*
X282771Y144728D01*
X282722Y144657D01*
X282677Y144584D01*
X282634Y144509D01*
X282595Y144433D01*
X282559Y144354D01*
X282527Y144274D01*
X282499Y144193D01*
X282474Y144111D01*
X282453Y144027D01*
X282436Y143943D01*
X282422Y143858D01*
X282413Y143772D01*
X282407Y143686D01*
X282405Y143600D01*
X282405Y142641D01*
X286243Y142641D01*
X274548Y139762D02*
X274548Y148398D01*
X274548Y139762D02*
X276947Y139762D01*
X277022Y139764D01*
X277097Y139770D01*
X277172Y139780D01*
X277246Y139793D01*
X277319Y139811D01*
X277392Y139832D01*
X277463Y139858D01*
X277532Y139886D01*
X277600Y139919D01*
X277667Y139955D01*
X277731Y139994D01*
X277793Y140037D01*
X277853Y140083D01*
X277910Y140132D01*
X277965Y140183D01*
X278016Y140238D01*
X278065Y140295D01*
X278111Y140355D01*
X278154Y140417D01*
X278193Y140482D01*
X278229Y140548D01*
X278262Y140616D01*
X278290Y140685D01*
X278316Y140756D01*
X278337Y140829D01*
X278355Y140902D01*
X278368Y140976D01*
X278378Y141051D01*
X278384Y141126D01*
X278386Y141201D01*
X278386Y144080D01*
X278384Y144155D01*
X278378Y144230D01*
X278368Y144305D01*
X278355Y144379D01*
X278337Y144452D01*
X278316Y144525D01*
X278290Y144596D01*
X278262Y144665D01*
X278229Y144733D01*
X278193Y144800D01*
X278154Y144864D01*
X278111Y144926D01*
X278065Y144986D01*
X278016Y145043D01*
X277965Y145098D01*
X277910Y145149D01*
X277853Y145198D01*
X277793Y145244D01*
X277731Y145287D01*
X277667Y145326D01*
X277600Y145362D01*
X277532Y145395D01*
X277463Y145423D01*
X277392Y145449D01*
X277319Y145470D01*
X277246Y145488D01*
X277172Y145501D01*
X277097Y145511D01*
X277022Y145517D01*
X276947Y145519D01*
X274548Y145519D01*
X262444Y148398D02*
X262352Y148396D01*
X262261Y148390D01*
X262170Y148381D01*
X262079Y148367D01*
X261989Y148350D01*
X261900Y148328D01*
X261812Y148303D01*
X261725Y148275D01*
X261639Y148242D01*
X261555Y148206D01*
X261472Y148167D01*
X261391Y148124D01*
X261312Y148077D01*
X261235Y148028D01*
X261160Y147975D01*
X261088Y147919D01*
X261018Y147860D01*
X260950Y147798D01*
X260885Y147733D01*
X260823Y147665D01*
X260764Y147595D01*
X260708Y147523D01*
X260655Y147448D01*
X260606Y147371D01*
X260559Y147292D01*
X260516Y147211D01*
X260477Y147128D01*
X260441Y147044D01*
X260408Y146958D01*
X260380Y146871D01*
X260355Y146783D01*
X260333Y146694D01*
X260316Y146604D01*
X260302Y146513D01*
X260293Y146422D01*
X260287Y146331D01*
X260285Y146239D01*
X262444Y148398D02*
X262547Y148396D01*
X262649Y148390D01*
X262751Y148381D01*
X262853Y148368D01*
X262954Y148351D01*
X263055Y148330D01*
X263154Y148306D01*
X263253Y148277D01*
X263350Y148246D01*
X263447Y148210D01*
X263542Y148172D01*
X263635Y148129D01*
X263727Y148083D01*
X263817Y148034D01*
X263905Y147982D01*
X263992Y147926D01*
X264076Y147867D01*
X264157Y147806D01*
X264237Y147741D01*
X264314Y147673D01*
X264389Y147602D01*
X264460Y147529D01*
X264529Y147453D01*
X264596Y147375D01*
X264659Y147294D01*
X264719Y147211D01*
X264776Y147126D01*
X264830Y147039D01*
X264881Y146949D01*
X264928Y146858D01*
X264972Y146766D01*
X265013Y146671D01*
X265050Y146576D01*
X265083Y146479D01*
X261005Y144560D02*
X260938Y144626D01*
X260874Y144695D01*
X260813Y144766D01*
X260755Y144840D01*
X260700Y144916D01*
X260648Y144994D01*
X260599Y145074D01*
X260553Y145156D01*
X260511Y145240D01*
X260472Y145326D01*
X260437Y145413D01*
X260406Y145501D01*
X260378Y145591D01*
X260353Y145681D01*
X260332Y145773D01*
X260315Y145865D01*
X260302Y145958D01*
X260293Y146051D01*
X260287Y146145D01*
X260285Y146239D01*
X261004Y144560D02*
X265083Y139762D01*
X260285Y139762D01*
X255608Y139762D02*
X255608Y148398D01*
X251770Y145519D02*
X255608Y142641D01*
X253929Y143840D02*
X251770Y139762D01*
X246315Y139762D02*
X248234Y148398D01*
X244396Y145519D02*
X246315Y139762D01*
X242477Y139762D02*
X244396Y145519D01*
X240558Y148398D02*
X242477Y139762D01*
X231224Y139762D02*
X227386Y139762D01*
X231224Y139762D02*
X231224Y148398D01*
X227386Y148398D01*
X228345Y144560D02*
X231224Y144560D01*
X223721Y141201D02*
X223721Y148398D01*
X223721Y141201D02*
X223719Y141126D01*
X223713Y141051D01*
X223703Y140976D01*
X223690Y140902D01*
X223672Y140829D01*
X223651Y140756D01*
X223625Y140685D01*
X223597Y140616D01*
X223564Y140548D01*
X223528Y140482D01*
X223489Y140417D01*
X223446Y140355D01*
X223400Y140295D01*
X223351Y140238D01*
X223300Y140183D01*
X223245Y140132D01*
X223188Y140083D01*
X223128Y140037D01*
X223066Y139994D01*
X223002Y139955D01*
X222935Y139919D01*
X222867Y139886D01*
X222798Y139858D01*
X222727Y139832D01*
X222654Y139811D01*
X222581Y139793D01*
X222507Y139780D01*
X222432Y139770D01*
X222357Y139764D01*
X222282Y139762D01*
X217444Y139762D02*
X215045Y139762D01*
X217444Y139762D02*
X217519Y139764D01*
X217594Y139770D01*
X217669Y139780D01*
X217743Y139793D01*
X217816Y139811D01*
X217889Y139832D01*
X217960Y139858D01*
X218029Y139886D01*
X218097Y139919D01*
X218164Y139955D01*
X218228Y139994D01*
X218290Y140037D01*
X218350Y140083D01*
X218407Y140132D01*
X218462Y140183D01*
X218513Y140238D01*
X218562Y140295D01*
X218608Y140355D01*
X218651Y140417D01*
X218690Y140482D01*
X218726Y140548D01*
X218759Y140616D01*
X218787Y140685D01*
X218813Y140756D01*
X218834Y140829D01*
X218852Y140902D01*
X218865Y140976D01*
X218875Y141051D01*
X218881Y141126D01*
X218883Y141201D01*
X218883Y143600D01*
X218881Y143686D01*
X218875Y143772D01*
X218866Y143858D01*
X218852Y143943D01*
X218835Y144027D01*
X218814Y144111D01*
X218789Y144193D01*
X218761Y144274D01*
X218729Y144354D01*
X218693Y144433D01*
X218654Y144509D01*
X218611Y144584D01*
X218566Y144657D01*
X218517Y144728D01*
X218464Y144796D01*
X218409Y144863D01*
X218351Y144926D01*
X218290Y144987D01*
X218227Y145045D01*
X218160Y145100D01*
X218092Y145153D01*
X218021Y145202D01*
X217948Y145247D01*
X217873Y145290D01*
X217797Y145329D01*
X217718Y145365D01*
X217638Y145397D01*
X217557Y145425D01*
X217475Y145450D01*
X217391Y145471D01*
X217307Y145488D01*
X217222Y145502D01*
X217136Y145511D01*
X217050Y145517D01*
X216964Y145519D01*
X216878Y145517D01*
X216792Y145511D01*
X216706Y145502D01*
X216621Y145488D01*
X216537Y145471D01*
X216453Y145450D01*
X216371Y145425D01*
X216290Y145397D01*
X216210Y145365D01*
X216131Y145329D01*
X216055Y145290D01*
X215980Y145247D01*
X215907Y145202D01*
X215836Y145153D01*
X215768Y145100D01*
X215701Y145045D01*
X215638Y144987D01*
X215577Y144926D01*
X215519Y144863D01*
X215464Y144796D01*
X215411Y144728D01*
X215362Y144657D01*
X215317Y144584D01*
X215274Y144509D01*
X215235Y144433D01*
X215199Y144354D01*
X215167Y144274D01*
X215139Y144193D01*
X215114Y144111D01*
X215093Y144027D01*
X215076Y143943D01*
X215062Y143858D01*
X215053Y143772D01*
X215047Y143686D01*
X215045Y143600D01*
X215045Y142641D01*
X218883Y142641D01*
X209504Y139762D02*
X207584Y139762D01*
X209504Y139762D02*
X209579Y139764D01*
X209654Y139770D01*
X209729Y139780D01*
X209803Y139793D01*
X209876Y139811D01*
X209949Y139832D01*
X210020Y139858D01*
X210089Y139886D01*
X210157Y139919D01*
X210224Y139955D01*
X210288Y139994D01*
X210350Y140037D01*
X210410Y140083D01*
X210467Y140132D01*
X210522Y140183D01*
X210573Y140238D01*
X210622Y140295D01*
X210668Y140355D01*
X210711Y140417D01*
X210750Y140482D01*
X210786Y140548D01*
X210819Y140616D01*
X210847Y140685D01*
X210873Y140756D01*
X210894Y140829D01*
X210912Y140902D01*
X210925Y140976D01*
X210935Y141051D01*
X210941Y141126D01*
X210943Y141201D01*
X210943Y144080D01*
X210941Y144155D01*
X210935Y144230D01*
X210925Y144305D01*
X210912Y144379D01*
X210894Y144452D01*
X210873Y144525D01*
X210847Y144596D01*
X210819Y144665D01*
X210786Y144733D01*
X210750Y144800D01*
X210711Y144864D01*
X210668Y144926D01*
X210622Y144986D01*
X210573Y145043D01*
X210522Y145098D01*
X210467Y145149D01*
X210410Y145198D01*
X210350Y145244D01*
X210288Y145287D01*
X210224Y145326D01*
X210157Y145362D01*
X210089Y145395D01*
X210020Y145423D01*
X209949Y145449D01*
X209876Y145470D01*
X209803Y145488D01*
X209729Y145501D01*
X209654Y145511D01*
X209579Y145517D01*
X209504Y145519D01*
X207584Y145519D01*
X204793Y145519D02*
X201915Y145519D01*
X203834Y148398D02*
X203834Y141201D01*
X203832Y141126D01*
X203826Y141051D01*
X203816Y140976D01*
X203803Y140902D01*
X203785Y140829D01*
X203764Y140756D01*
X203738Y140685D01*
X203710Y140616D01*
X203677Y140548D01*
X203641Y140482D01*
X203602Y140417D01*
X203559Y140355D01*
X203513Y140295D01*
X203464Y140238D01*
X203413Y140183D01*
X203358Y140132D01*
X203301Y140083D01*
X203241Y140037D01*
X203179Y139994D01*
X203115Y139955D01*
X203048Y139919D01*
X202980Y139886D01*
X202911Y139858D01*
X202840Y139832D01*
X202767Y139811D01*
X202694Y139793D01*
X202620Y139780D01*
X202545Y139770D01*
X202470Y139764D01*
X202395Y139762D01*
X201915Y139762D01*
X197776Y139762D02*
X197776Y145519D01*
X194897Y145519D01*
X194897Y144560D01*
X191756Y143600D02*
X191756Y141681D01*
X191756Y143600D02*
X191754Y143686D01*
X191748Y143772D01*
X191739Y143858D01*
X191725Y143943D01*
X191708Y144027D01*
X191687Y144111D01*
X191662Y144193D01*
X191634Y144274D01*
X191602Y144354D01*
X191566Y144433D01*
X191527Y144509D01*
X191484Y144584D01*
X191439Y144657D01*
X191390Y144728D01*
X191337Y144796D01*
X191282Y144863D01*
X191224Y144926D01*
X191163Y144987D01*
X191100Y145045D01*
X191033Y145100D01*
X190965Y145153D01*
X190894Y145202D01*
X190821Y145247D01*
X190746Y145290D01*
X190670Y145329D01*
X190591Y145365D01*
X190511Y145397D01*
X190430Y145425D01*
X190348Y145450D01*
X190264Y145471D01*
X190180Y145488D01*
X190095Y145502D01*
X190009Y145511D01*
X189923Y145517D01*
X189837Y145519D01*
X189751Y145517D01*
X189665Y145511D01*
X189579Y145502D01*
X189494Y145488D01*
X189410Y145471D01*
X189326Y145450D01*
X189244Y145425D01*
X189163Y145397D01*
X189083Y145365D01*
X189004Y145329D01*
X188928Y145290D01*
X188853Y145247D01*
X188780Y145202D01*
X188709Y145153D01*
X188641Y145100D01*
X188574Y145045D01*
X188511Y144987D01*
X188450Y144926D01*
X188392Y144863D01*
X188337Y144796D01*
X188284Y144728D01*
X188235Y144657D01*
X188190Y144584D01*
X188147Y144509D01*
X188108Y144433D01*
X188072Y144354D01*
X188040Y144274D01*
X188012Y144193D01*
X187987Y144111D01*
X187966Y144027D01*
X187949Y143943D01*
X187935Y143858D01*
X187926Y143772D01*
X187920Y143686D01*
X187918Y143600D01*
X187918Y141681D01*
X187920Y141595D01*
X187926Y141509D01*
X187935Y141423D01*
X187949Y141338D01*
X187966Y141254D01*
X187987Y141170D01*
X188012Y141088D01*
X188040Y141007D01*
X188072Y140927D01*
X188108Y140848D01*
X188147Y140772D01*
X188190Y140697D01*
X188235Y140624D01*
X188284Y140553D01*
X188337Y140485D01*
X188392Y140418D01*
X188450Y140355D01*
X188511Y140294D01*
X188574Y140236D01*
X188641Y140181D01*
X188709Y140128D01*
X188780Y140079D01*
X188853Y140034D01*
X188928Y139991D01*
X189004Y139952D01*
X189083Y139916D01*
X189163Y139884D01*
X189244Y139856D01*
X189326Y139831D01*
X189410Y139810D01*
X189494Y139793D01*
X189579Y139779D01*
X189665Y139770D01*
X189751Y139764D01*
X189837Y139762D01*
X189923Y139764D01*
X190009Y139770D01*
X190095Y139779D01*
X190180Y139793D01*
X190264Y139810D01*
X190348Y139831D01*
X190430Y139856D01*
X190511Y139884D01*
X190591Y139916D01*
X190670Y139952D01*
X190746Y139991D01*
X190821Y140034D01*
X190894Y140079D01*
X190965Y140128D01*
X191033Y140181D01*
X191100Y140236D01*
X191163Y140294D01*
X191224Y140355D01*
X191282Y140418D01*
X191337Y140485D01*
X191390Y140553D01*
X191439Y140624D01*
X191484Y140697D01*
X191527Y140772D01*
X191566Y140848D01*
X191602Y140927D01*
X191634Y141007D01*
X191662Y141088D01*
X191687Y141170D01*
X191708Y141254D01*
X191725Y141338D01*
X191739Y141423D01*
X191748Y141509D01*
X191754Y141595D01*
X191756Y141681D01*
X183526Y139762D02*
X183526Y145519D01*
X181127Y145519D01*
X181052Y145517D01*
X180977Y145511D01*
X180902Y145501D01*
X180828Y145488D01*
X180755Y145470D01*
X180682Y145449D01*
X180611Y145423D01*
X180542Y145395D01*
X180474Y145362D01*
X180408Y145326D01*
X180343Y145287D01*
X180281Y145244D01*
X180221Y145198D01*
X180164Y145149D01*
X180109Y145098D01*
X180058Y145043D01*
X180009Y144986D01*
X179963Y144926D01*
X179920Y144864D01*
X179881Y144800D01*
X179845Y144733D01*
X179812Y144665D01*
X179784Y144596D01*
X179758Y144525D01*
X179737Y144452D01*
X179719Y144379D01*
X179706Y144305D01*
X179696Y144230D01*
X179690Y144155D01*
X179688Y144080D01*
X179688Y139762D01*
X175511Y139762D02*
X175511Y145519D01*
X175751Y147918D02*
X175751Y148398D01*
X175271Y148398D01*
X175271Y147918D01*
X175751Y147918D01*
X170185Y139762D02*
X168266Y139762D01*
X170185Y139762D02*
X170260Y139764D01*
X170335Y139770D01*
X170410Y139780D01*
X170484Y139793D01*
X170557Y139811D01*
X170630Y139832D01*
X170701Y139858D01*
X170770Y139886D01*
X170838Y139919D01*
X170905Y139955D01*
X170969Y139994D01*
X171031Y140037D01*
X171091Y140083D01*
X171148Y140132D01*
X171203Y140183D01*
X171254Y140238D01*
X171303Y140295D01*
X171349Y140355D01*
X171392Y140417D01*
X171431Y140482D01*
X171467Y140548D01*
X171500Y140616D01*
X171528Y140685D01*
X171554Y140756D01*
X171575Y140829D01*
X171593Y140902D01*
X171606Y140976D01*
X171616Y141051D01*
X171622Y141126D01*
X171624Y141201D01*
X171624Y144080D01*
X171622Y144155D01*
X171616Y144230D01*
X171606Y144305D01*
X171593Y144379D01*
X171575Y144452D01*
X171554Y144525D01*
X171528Y144596D01*
X171500Y144665D01*
X171467Y144733D01*
X171431Y144800D01*
X171392Y144864D01*
X171349Y144926D01*
X171303Y144986D01*
X171254Y145043D01*
X171203Y145098D01*
X171148Y145149D01*
X171091Y145198D01*
X171031Y145244D01*
X170969Y145287D01*
X170905Y145326D01*
X170838Y145362D01*
X170770Y145395D01*
X170701Y145423D01*
X170630Y145449D01*
X170557Y145470D01*
X170484Y145488D01*
X170410Y145501D01*
X170335Y145511D01*
X170260Y145517D01*
X170185Y145519D01*
X168266Y145519D01*
X157048Y139762D02*
X156962Y139764D01*
X156876Y139770D01*
X156790Y139779D01*
X156705Y139793D01*
X156621Y139810D01*
X156537Y139831D01*
X156455Y139856D01*
X156374Y139884D01*
X156294Y139916D01*
X156215Y139952D01*
X156139Y139991D01*
X156064Y140034D01*
X155991Y140079D01*
X155920Y140128D01*
X155852Y140181D01*
X155785Y140236D01*
X155722Y140294D01*
X155661Y140355D01*
X155603Y140418D01*
X155548Y140485D01*
X155495Y140553D01*
X155446Y140624D01*
X155401Y140697D01*
X155358Y140772D01*
X155319Y140848D01*
X155283Y140927D01*
X155251Y141007D01*
X155223Y141088D01*
X155198Y141170D01*
X155177Y141254D01*
X155160Y141338D01*
X155146Y141423D01*
X155137Y141509D01*
X155131Y141595D01*
X155129Y141681D01*
X157048Y139762D02*
X157171Y139764D01*
X157294Y139769D01*
X157417Y139779D01*
X157539Y139792D01*
X157661Y139809D01*
X157783Y139829D01*
X157903Y139853D01*
X158023Y139881D01*
X158142Y139912D01*
X158260Y139948D01*
X158377Y139986D01*
X158493Y140028D01*
X158607Y140074D01*
X158720Y140123D01*
X158832Y140175D01*
X158941Y140231D01*
X159049Y140290D01*
X159155Y140353D01*
X159260Y140418D01*
X159362Y140487D01*
X159462Y140559D01*
X159559Y140634D01*
X159655Y140711D01*
X159748Y140792D01*
X159839Y140875D01*
X159927Y140961D01*
X159687Y146479D02*
X159685Y146565D01*
X159679Y146651D01*
X159670Y146737D01*
X159656Y146822D01*
X159639Y146906D01*
X159618Y146990D01*
X159593Y147072D01*
X159565Y147153D01*
X159533Y147233D01*
X159497Y147312D01*
X159458Y147388D01*
X159415Y147463D01*
X159370Y147536D01*
X159321Y147607D01*
X159268Y147675D01*
X159213Y147742D01*
X159155Y147805D01*
X159094Y147866D01*
X159031Y147924D01*
X158964Y147979D01*
X158896Y148032D01*
X158825Y148081D01*
X158752Y148126D01*
X158677Y148169D01*
X158601Y148208D01*
X158522Y148244D01*
X158442Y148276D01*
X158361Y148304D01*
X158279Y148329D01*
X158195Y148350D01*
X158111Y148367D01*
X158026Y148381D01*
X157940Y148390D01*
X157854Y148396D01*
X157768Y148398D01*
X157652Y148396D01*
X157537Y148391D01*
X157421Y148381D01*
X157306Y148368D01*
X157192Y148352D01*
X157078Y148331D01*
X156964Y148307D01*
X156852Y148279D01*
X156741Y148248D01*
X156630Y148213D01*
X156521Y148175D01*
X156413Y148133D01*
X156307Y148088D01*
X156201Y148039D01*
X156098Y147987D01*
X155996Y147932D01*
X155897Y147873D01*
X155799Y147811D01*
X155703Y147746D01*
X155609Y147678D01*
X158728Y144800D02*
X158802Y144846D01*
X158875Y144896D01*
X158945Y144949D01*
X159013Y145005D01*
X159078Y145064D01*
X159141Y145126D01*
X159200Y145191D01*
X159257Y145258D01*
X159311Y145328D01*
X159361Y145400D01*
X159408Y145474D01*
X159452Y145550D01*
X159492Y145629D01*
X159528Y145709D01*
X159561Y145790D01*
X159590Y145873D01*
X159616Y145958D01*
X159638Y146043D01*
X159655Y146129D01*
X159669Y146216D01*
X159679Y146303D01*
X159685Y146391D01*
X159687Y146479D01*
X156089Y143360D02*
X156014Y143314D01*
X155941Y143264D01*
X155871Y143211D01*
X155803Y143155D01*
X155738Y143096D01*
X155675Y143034D01*
X155616Y142969D01*
X155559Y142902D01*
X155505Y142832D01*
X155455Y142760D01*
X155408Y142686D01*
X155364Y142610D01*
X155324Y142531D01*
X155288Y142451D01*
X155255Y142370D01*
X155226Y142287D01*
X155200Y142202D01*
X155178Y142117D01*
X155161Y142031D01*
X155147Y141944D01*
X155137Y141857D01*
X155131Y141769D01*
X155129Y141681D01*
X156089Y143360D02*
X158728Y144800D01*
X150845Y145519D02*
X150845Y136883D01*
X150845Y145519D02*
X148446Y145519D01*
X148371Y145517D01*
X148296Y145511D01*
X148221Y145501D01*
X148147Y145488D01*
X148074Y145470D01*
X148001Y145449D01*
X147930Y145423D01*
X147861Y145395D01*
X147793Y145362D01*
X147727Y145326D01*
X147662Y145287D01*
X147600Y145244D01*
X147540Y145198D01*
X147483Y145149D01*
X147428Y145098D01*
X147377Y145043D01*
X147328Y144986D01*
X147282Y144926D01*
X147239Y144864D01*
X147200Y144800D01*
X147164Y144733D01*
X147131Y144665D01*
X147103Y144596D01*
X147077Y144525D01*
X147056Y144452D01*
X147038Y144379D01*
X147025Y144305D01*
X147015Y144230D01*
X147009Y144155D01*
X147007Y144080D01*
X147007Y141201D01*
X147009Y141128D01*
X147014Y141055D01*
X147024Y140983D01*
X147036Y140911D01*
X147053Y140840D01*
X147073Y140770D01*
X147097Y140701D01*
X147124Y140634D01*
X147154Y140567D01*
X147188Y140503D01*
X147225Y140440D01*
X147265Y140379D01*
X147308Y140320D01*
X147354Y140264D01*
X147403Y140210D01*
X147455Y140158D01*
X147509Y140109D01*
X147565Y140063D01*
X147624Y140020D01*
X147685Y139980D01*
X147748Y139943D01*
X147812Y139909D01*
X147879Y139879D01*
X147946Y139852D01*
X148015Y139828D01*
X148085Y139808D01*
X148156Y139791D01*
X148228Y139779D01*
X148300Y139769D01*
X148373Y139764D01*
X148446Y139762D01*
X150845Y139762D01*
X141549Y139762D02*
X139150Y139762D01*
X141549Y139762D02*
X141624Y139764D01*
X141699Y139770D01*
X141774Y139780D01*
X141848Y139793D01*
X141921Y139811D01*
X141994Y139832D01*
X142065Y139858D01*
X142134Y139886D01*
X142202Y139919D01*
X142269Y139955D01*
X142333Y139994D01*
X142395Y140037D01*
X142455Y140083D01*
X142512Y140132D01*
X142567Y140183D01*
X142618Y140238D01*
X142667Y140295D01*
X142713Y140355D01*
X142756Y140417D01*
X142795Y140482D01*
X142831Y140548D01*
X142864Y140616D01*
X142892Y140685D01*
X142918Y140756D01*
X142939Y140829D01*
X142957Y140902D01*
X142970Y140976D01*
X142980Y141051D01*
X142986Y141126D01*
X142988Y141201D01*
X142988Y143600D01*
X142986Y143686D01*
X142980Y143772D01*
X142971Y143858D01*
X142957Y143943D01*
X142940Y144027D01*
X142919Y144111D01*
X142894Y144193D01*
X142866Y144274D01*
X142834Y144354D01*
X142798Y144433D01*
X142759Y144509D01*
X142716Y144584D01*
X142671Y144657D01*
X142622Y144728D01*
X142569Y144796D01*
X142514Y144863D01*
X142456Y144926D01*
X142395Y144987D01*
X142332Y145045D01*
X142265Y145100D01*
X142197Y145153D01*
X142126Y145202D01*
X142053Y145247D01*
X141978Y145290D01*
X141902Y145329D01*
X141823Y145365D01*
X141743Y145397D01*
X141662Y145425D01*
X141580Y145450D01*
X141496Y145471D01*
X141412Y145488D01*
X141327Y145502D01*
X141241Y145511D01*
X141155Y145517D01*
X141069Y145519D01*
X140983Y145517D01*
X140897Y145511D01*
X140811Y145502D01*
X140726Y145488D01*
X140642Y145471D01*
X140558Y145450D01*
X140476Y145425D01*
X140395Y145397D01*
X140315Y145365D01*
X140236Y145329D01*
X140160Y145290D01*
X140085Y145247D01*
X140012Y145202D01*
X139941Y145153D01*
X139873Y145100D01*
X139806Y145045D01*
X139743Y144987D01*
X139682Y144926D01*
X139624Y144863D01*
X139569Y144796D01*
X139516Y144728D01*
X139467Y144657D01*
X139422Y144584D01*
X139379Y144509D01*
X139340Y144433D01*
X139304Y144354D01*
X139272Y144274D01*
X139244Y144193D01*
X139219Y144111D01*
X139198Y144027D01*
X139181Y143943D01*
X139167Y143858D01*
X139158Y143772D01*
X139152Y143686D01*
X139150Y143600D01*
X139150Y142641D01*
X142988Y142641D01*
X133624Y139762D02*
X131225Y139762D01*
X133624Y139762D02*
X133699Y139764D01*
X133774Y139770D01*
X133849Y139780D01*
X133923Y139793D01*
X133996Y139811D01*
X134069Y139832D01*
X134140Y139858D01*
X134209Y139886D01*
X134277Y139919D01*
X134344Y139955D01*
X134408Y139994D01*
X134470Y140037D01*
X134530Y140083D01*
X134587Y140132D01*
X134642Y140183D01*
X134693Y140238D01*
X134742Y140295D01*
X134788Y140355D01*
X134831Y140417D01*
X134870Y140482D01*
X134906Y140548D01*
X134939Y140616D01*
X134967Y140685D01*
X134993Y140756D01*
X135014Y140829D01*
X135032Y140902D01*
X135045Y140976D01*
X135055Y141051D01*
X135061Y141126D01*
X135063Y141201D01*
X135063Y143600D01*
X135061Y143686D01*
X135055Y143772D01*
X135046Y143858D01*
X135032Y143943D01*
X135015Y144027D01*
X134994Y144111D01*
X134969Y144193D01*
X134941Y144274D01*
X134909Y144354D01*
X134873Y144433D01*
X134834Y144509D01*
X134791Y144584D01*
X134746Y144657D01*
X134697Y144728D01*
X134644Y144796D01*
X134589Y144863D01*
X134531Y144926D01*
X134470Y144987D01*
X134407Y145045D01*
X134340Y145100D01*
X134272Y145153D01*
X134201Y145202D01*
X134128Y145247D01*
X134053Y145290D01*
X133977Y145329D01*
X133898Y145365D01*
X133818Y145397D01*
X133737Y145425D01*
X133655Y145450D01*
X133571Y145471D01*
X133487Y145488D01*
X133402Y145502D01*
X133316Y145511D01*
X133230Y145517D01*
X133144Y145519D01*
X133058Y145517D01*
X132972Y145511D01*
X132886Y145502D01*
X132801Y145488D01*
X132717Y145471D01*
X132633Y145450D01*
X132551Y145425D01*
X132470Y145397D01*
X132390Y145365D01*
X132311Y145329D01*
X132235Y145290D01*
X132160Y145247D01*
X132087Y145202D01*
X132016Y145153D01*
X131948Y145100D01*
X131881Y145045D01*
X131818Y144987D01*
X131757Y144926D01*
X131699Y144863D01*
X131644Y144796D01*
X131591Y144728D01*
X131542Y144657D01*
X131497Y144584D01*
X131454Y144509D01*
X131415Y144433D01*
X131379Y144354D01*
X131347Y144274D01*
X131319Y144193D01*
X131294Y144111D01*
X131273Y144027D01*
X131256Y143943D01*
X131242Y143858D01*
X131233Y143772D01*
X131227Y143686D01*
X131225Y143600D01*
X131225Y142641D01*
X135063Y142641D01*
X123368Y139762D02*
X123368Y148398D01*
X123368Y139762D02*
X125767Y139762D01*
X125842Y139764D01*
X125917Y139770D01*
X125992Y139780D01*
X126066Y139793D01*
X126139Y139811D01*
X126212Y139832D01*
X126283Y139858D01*
X126352Y139886D01*
X126420Y139919D01*
X126487Y139955D01*
X126551Y139994D01*
X126613Y140037D01*
X126673Y140083D01*
X126730Y140132D01*
X126785Y140183D01*
X126836Y140238D01*
X126885Y140295D01*
X126931Y140355D01*
X126974Y140417D01*
X127013Y140482D01*
X127049Y140548D01*
X127082Y140616D01*
X127110Y140685D01*
X127136Y140756D01*
X127157Y140829D01*
X127175Y140902D01*
X127188Y140976D01*
X127198Y141051D01*
X127204Y141126D01*
X127206Y141201D01*
X127206Y144080D01*
X127204Y144155D01*
X127198Y144230D01*
X127188Y144305D01*
X127175Y144379D01*
X127157Y144452D01*
X127136Y144525D01*
X127110Y144596D01*
X127082Y144665D01*
X127049Y144733D01*
X127013Y144800D01*
X126974Y144864D01*
X126931Y144926D01*
X126885Y144986D01*
X126836Y145043D01*
X126785Y145098D01*
X126730Y145149D01*
X126673Y145198D01*
X126613Y145244D01*
X126551Y145287D01*
X126487Y145326D01*
X126420Y145362D01*
X126352Y145395D01*
X126283Y145423D01*
X126212Y145449D01*
X126139Y145470D01*
X126066Y145488D01*
X125992Y145501D01*
X125917Y145511D01*
X125842Y145517D01*
X125767Y145519D01*
X123368Y145519D01*
X112022Y139762D02*
X110102Y139762D01*
X112022Y139762D02*
X112108Y139764D01*
X112194Y139770D01*
X112280Y139779D01*
X112365Y139793D01*
X112449Y139810D01*
X112533Y139831D01*
X112615Y139856D01*
X112696Y139884D01*
X112776Y139916D01*
X112855Y139952D01*
X112931Y139991D01*
X113006Y140034D01*
X113079Y140079D01*
X113150Y140129D01*
X113218Y140181D01*
X113285Y140236D01*
X113348Y140294D01*
X113409Y140355D01*
X113467Y140418D01*
X113522Y140485D01*
X113575Y140553D01*
X113624Y140624D01*
X113669Y140697D01*
X113712Y140772D01*
X113751Y140848D01*
X113787Y140927D01*
X113819Y141007D01*
X113847Y141088D01*
X113872Y141171D01*
X113893Y141254D01*
X113910Y141338D01*
X113924Y141423D01*
X113933Y141509D01*
X113939Y141595D01*
X113941Y141681D01*
X113941Y146479D01*
X113939Y146565D01*
X113933Y146651D01*
X113924Y146737D01*
X113910Y146822D01*
X113893Y146906D01*
X113872Y146990D01*
X113847Y147072D01*
X113819Y147153D01*
X113787Y147233D01*
X113751Y147312D01*
X113712Y147388D01*
X113669Y147463D01*
X113624Y147536D01*
X113575Y147607D01*
X113522Y147675D01*
X113467Y147742D01*
X113409Y147805D01*
X113348Y147866D01*
X113285Y147924D01*
X113219Y147979D01*
X113150Y148031D01*
X113079Y148081D01*
X113006Y148126D01*
X112931Y148169D01*
X112855Y148208D01*
X112776Y148244D01*
X112696Y148276D01*
X112615Y148304D01*
X112533Y148329D01*
X112449Y148350D01*
X112365Y148367D01*
X112280Y148381D01*
X112194Y148390D01*
X112108Y148396D01*
X112022Y148398D01*
X110102Y148398D01*
X106412Y143600D02*
X106412Y141681D01*
X106412Y143600D02*
X106410Y143686D01*
X106404Y143772D01*
X106395Y143858D01*
X106381Y143943D01*
X106364Y144027D01*
X106343Y144111D01*
X106318Y144193D01*
X106290Y144274D01*
X106258Y144354D01*
X106222Y144433D01*
X106183Y144509D01*
X106140Y144584D01*
X106095Y144657D01*
X106046Y144728D01*
X105993Y144796D01*
X105938Y144863D01*
X105880Y144926D01*
X105819Y144987D01*
X105756Y145045D01*
X105689Y145100D01*
X105621Y145153D01*
X105550Y145202D01*
X105477Y145247D01*
X105402Y145290D01*
X105326Y145329D01*
X105247Y145365D01*
X105167Y145397D01*
X105086Y145425D01*
X105004Y145450D01*
X104920Y145471D01*
X104836Y145488D01*
X104751Y145502D01*
X104665Y145511D01*
X104579Y145517D01*
X104493Y145519D01*
X104407Y145517D01*
X104321Y145511D01*
X104235Y145502D01*
X104150Y145488D01*
X104066Y145471D01*
X103982Y145450D01*
X103900Y145425D01*
X103819Y145397D01*
X103739Y145365D01*
X103660Y145329D01*
X103584Y145290D01*
X103509Y145247D01*
X103436Y145202D01*
X103365Y145153D01*
X103297Y145100D01*
X103230Y145045D01*
X103167Y144987D01*
X103106Y144926D01*
X103048Y144863D01*
X102993Y144796D01*
X102940Y144728D01*
X102891Y144657D01*
X102846Y144584D01*
X102803Y144509D01*
X102764Y144433D01*
X102728Y144354D01*
X102696Y144274D01*
X102668Y144193D01*
X102643Y144111D01*
X102622Y144027D01*
X102605Y143943D01*
X102591Y143858D01*
X102582Y143772D01*
X102576Y143686D01*
X102574Y143600D01*
X102574Y141681D01*
X102576Y141595D01*
X102582Y141509D01*
X102591Y141423D01*
X102605Y141338D01*
X102622Y141254D01*
X102643Y141170D01*
X102668Y141088D01*
X102696Y141007D01*
X102728Y140927D01*
X102764Y140848D01*
X102803Y140772D01*
X102846Y140697D01*
X102891Y140624D01*
X102940Y140553D01*
X102993Y140485D01*
X103048Y140418D01*
X103106Y140355D01*
X103167Y140294D01*
X103230Y140236D01*
X103297Y140181D01*
X103365Y140128D01*
X103436Y140079D01*
X103509Y140034D01*
X103584Y139991D01*
X103660Y139952D01*
X103739Y139916D01*
X103819Y139884D01*
X103900Y139856D01*
X103982Y139831D01*
X104066Y139810D01*
X104150Y139793D01*
X104235Y139779D01*
X104321Y139770D01*
X104407Y139764D01*
X104493Y139762D01*
X104579Y139764D01*
X104665Y139770D01*
X104751Y139779D01*
X104836Y139793D01*
X104920Y139810D01*
X105004Y139831D01*
X105086Y139856D01*
X105167Y139884D01*
X105247Y139916D01*
X105326Y139952D01*
X105402Y139991D01*
X105477Y140034D01*
X105550Y140079D01*
X105621Y140128D01*
X105689Y140181D01*
X105756Y140236D01*
X105819Y140294D01*
X105880Y140355D01*
X105938Y140418D01*
X105993Y140485D01*
X106046Y140553D01*
X106095Y140624D01*
X106140Y140697D01*
X106183Y140772D01*
X106222Y140848D01*
X106258Y140927D01*
X106290Y141007D01*
X106318Y141088D01*
X106343Y141170D01*
X106364Y141254D01*
X106381Y141338D01*
X106395Y141423D01*
X106404Y141509D01*
X106410Y141595D01*
X106412Y141681D01*
X98183Y139762D02*
X98183Y145519D01*
X95784Y145519D01*
X95709Y145517D01*
X95634Y145511D01*
X95559Y145501D01*
X95485Y145488D01*
X95412Y145470D01*
X95339Y145449D01*
X95268Y145423D01*
X95199Y145395D01*
X95131Y145362D01*
X95065Y145326D01*
X95000Y145287D01*
X94938Y145244D01*
X94878Y145198D01*
X94821Y145149D01*
X94766Y145098D01*
X94715Y145043D01*
X94666Y144986D01*
X94620Y144926D01*
X94577Y144864D01*
X94538Y144800D01*
X94502Y144733D01*
X94469Y144665D01*
X94441Y144596D01*
X94415Y144525D01*
X94394Y144452D01*
X94376Y144379D01*
X94363Y144305D01*
X94353Y144230D01*
X94347Y144155D01*
X94345Y144080D01*
X94345Y139762D01*
X90799Y145519D02*
X87920Y145519D01*
X89839Y148398D02*
X89839Y141201D01*
X89837Y141126D01*
X89831Y141051D01*
X89821Y140976D01*
X89808Y140902D01*
X89790Y140829D01*
X89769Y140756D01*
X89743Y140685D01*
X89715Y140616D01*
X89682Y140548D01*
X89646Y140482D01*
X89607Y140417D01*
X89564Y140355D01*
X89518Y140295D01*
X89469Y140238D01*
X89418Y140183D01*
X89363Y140132D01*
X89306Y140083D01*
X89246Y140037D01*
X89184Y139994D01*
X89120Y139955D01*
X89053Y139919D01*
X88985Y139886D01*
X88916Y139858D01*
X88845Y139832D01*
X88772Y139811D01*
X88699Y139793D01*
X88625Y139780D01*
X88550Y139770D01*
X88475Y139764D01*
X88400Y139762D01*
X87920Y139762D01*
X83781Y139762D02*
X83781Y145519D01*
X80902Y145519D01*
X80902Y144560D01*
X77761Y143600D02*
X77761Y141681D01*
X77761Y143600D02*
X77759Y143686D01*
X77753Y143772D01*
X77744Y143858D01*
X77730Y143943D01*
X77713Y144027D01*
X77692Y144111D01*
X77667Y144193D01*
X77639Y144274D01*
X77607Y144354D01*
X77571Y144433D01*
X77532Y144509D01*
X77489Y144584D01*
X77444Y144657D01*
X77395Y144728D01*
X77342Y144796D01*
X77287Y144863D01*
X77229Y144926D01*
X77168Y144987D01*
X77105Y145045D01*
X77038Y145100D01*
X76970Y145153D01*
X76899Y145202D01*
X76826Y145247D01*
X76751Y145290D01*
X76675Y145329D01*
X76596Y145365D01*
X76516Y145397D01*
X76435Y145425D01*
X76353Y145450D01*
X76269Y145471D01*
X76185Y145488D01*
X76100Y145502D01*
X76014Y145511D01*
X75928Y145517D01*
X75842Y145519D01*
X75756Y145517D01*
X75670Y145511D01*
X75584Y145502D01*
X75499Y145488D01*
X75415Y145471D01*
X75331Y145450D01*
X75249Y145425D01*
X75168Y145397D01*
X75088Y145365D01*
X75009Y145329D01*
X74933Y145290D01*
X74858Y145247D01*
X74785Y145202D01*
X74714Y145153D01*
X74646Y145100D01*
X74579Y145045D01*
X74516Y144987D01*
X74455Y144926D01*
X74397Y144863D01*
X74342Y144796D01*
X74289Y144728D01*
X74240Y144657D01*
X74195Y144584D01*
X74152Y144509D01*
X74113Y144433D01*
X74077Y144354D01*
X74045Y144274D01*
X74017Y144193D01*
X73992Y144111D01*
X73971Y144027D01*
X73954Y143943D01*
X73940Y143858D01*
X73931Y143772D01*
X73925Y143686D01*
X73923Y143600D01*
X73923Y141681D01*
X73925Y141595D01*
X73931Y141509D01*
X73940Y141423D01*
X73954Y141338D01*
X73971Y141254D01*
X73992Y141170D01*
X74017Y141088D01*
X74045Y141007D01*
X74077Y140927D01*
X74113Y140848D01*
X74152Y140772D01*
X74195Y140697D01*
X74240Y140624D01*
X74289Y140553D01*
X74342Y140485D01*
X74397Y140418D01*
X74455Y140355D01*
X74516Y140294D01*
X74579Y140236D01*
X74646Y140181D01*
X74714Y140128D01*
X74785Y140079D01*
X74858Y140034D01*
X74933Y139991D01*
X75009Y139952D01*
X75088Y139916D01*
X75168Y139884D01*
X75249Y139856D01*
X75331Y139831D01*
X75415Y139810D01*
X75499Y139793D01*
X75584Y139779D01*
X75670Y139770D01*
X75756Y139764D01*
X75842Y139762D01*
X75928Y139764D01*
X76014Y139770D01*
X76100Y139779D01*
X76185Y139793D01*
X76269Y139810D01*
X76353Y139831D01*
X76435Y139856D01*
X76516Y139884D01*
X76596Y139916D01*
X76675Y139952D01*
X76751Y139991D01*
X76826Y140034D01*
X76899Y140079D01*
X76970Y140128D01*
X77038Y140181D01*
X77105Y140236D01*
X77168Y140294D01*
X77229Y140355D01*
X77287Y140418D01*
X77342Y140485D01*
X77395Y140553D01*
X77444Y140624D01*
X77489Y140697D01*
X77532Y140772D01*
X77571Y140848D01*
X77607Y140927D01*
X77639Y141007D01*
X77667Y141088D01*
X77692Y141170D01*
X77713Y141254D01*
X77730Y141338D01*
X77744Y141423D01*
X77753Y141509D01*
X77759Y141595D01*
X77761Y141681D01*
X69798Y141201D02*
X69798Y148398D01*
X69798Y141201D02*
X69796Y141126D01*
X69790Y141051D01*
X69780Y140976D01*
X69767Y140902D01*
X69749Y140829D01*
X69728Y140756D01*
X69702Y140685D01*
X69674Y140616D01*
X69641Y140548D01*
X69605Y140482D01*
X69566Y140417D01*
X69523Y140355D01*
X69477Y140295D01*
X69428Y140238D01*
X69377Y140183D01*
X69322Y140132D01*
X69265Y140083D01*
X69205Y140037D01*
X69143Y139994D01*
X69079Y139955D01*
X69012Y139919D01*
X68944Y139886D01*
X68875Y139858D01*
X68804Y139832D01*
X68731Y139811D01*
X68658Y139793D01*
X68584Y139780D01*
X68509Y139770D01*
X68434Y139764D01*
X68359Y139762D01*
X64921Y141201D02*
X64921Y148398D01*
X64921Y141201D02*
X64919Y141126D01*
X64913Y141051D01*
X64903Y140976D01*
X64890Y140902D01*
X64872Y140829D01*
X64851Y140756D01*
X64825Y140685D01*
X64797Y140616D01*
X64764Y140548D01*
X64728Y140482D01*
X64689Y140417D01*
X64646Y140355D01*
X64600Y140295D01*
X64551Y140238D01*
X64500Y140183D01*
X64445Y140132D01*
X64388Y140083D01*
X64328Y140037D01*
X64266Y139994D01*
X64202Y139955D01*
X64135Y139919D01*
X64067Y139886D01*
X63998Y139858D01*
X63927Y139832D01*
X63854Y139811D01*
X63781Y139793D01*
X63707Y139780D01*
X63632Y139770D01*
X63557Y139764D01*
X63482Y139762D01*
X58644Y139762D02*
X56245Y139762D01*
X58644Y139762D02*
X58719Y139764D01*
X58794Y139770D01*
X58869Y139780D01*
X58943Y139793D01*
X59016Y139811D01*
X59089Y139832D01*
X59160Y139858D01*
X59229Y139886D01*
X59297Y139919D01*
X59364Y139955D01*
X59428Y139994D01*
X59490Y140037D01*
X59550Y140083D01*
X59607Y140132D01*
X59662Y140183D01*
X59713Y140238D01*
X59762Y140295D01*
X59808Y140355D01*
X59851Y140417D01*
X59890Y140482D01*
X59926Y140548D01*
X59959Y140616D01*
X59987Y140685D01*
X60013Y140756D01*
X60034Y140829D01*
X60052Y140902D01*
X60065Y140976D01*
X60075Y141051D01*
X60081Y141126D01*
X60083Y141201D01*
X60083Y143600D01*
X60081Y143686D01*
X60075Y143772D01*
X60066Y143858D01*
X60052Y143943D01*
X60035Y144027D01*
X60014Y144111D01*
X59989Y144193D01*
X59961Y144274D01*
X59929Y144354D01*
X59893Y144433D01*
X59854Y144509D01*
X59811Y144584D01*
X59766Y144657D01*
X59717Y144728D01*
X59664Y144796D01*
X59609Y144863D01*
X59551Y144926D01*
X59490Y144987D01*
X59427Y145045D01*
X59360Y145100D01*
X59292Y145153D01*
X59221Y145202D01*
X59148Y145247D01*
X59073Y145290D01*
X58997Y145329D01*
X58918Y145365D01*
X58838Y145397D01*
X58757Y145425D01*
X58675Y145450D01*
X58591Y145471D01*
X58507Y145488D01*
X58422Y145502D01*
X58336Y145511D01*
X58250Y145517D01*
X58164Y145519D01*
X58078Y145517D01*
X57992Y145511D01*
X57906Y145502D01*
X57821Y145488D01*
X57737Y145471D01*
X57653Y145450D01*
X57571Y145425D01*
X57490Y145397D01*
X57410Y145365D01*
X57331Y145329D01*
X57255Y145290D01*
X57180Y145247D01*
X57107Y145202D01*
X57036Y145153D01*
X56968Y145100D01*
X56901Y145045D01*
X56838Y144987D01*
X56777Y144926D01*
X56719Y144863D01*
X56664Y144796D01*
X56611Y144728D01*
X56562Y144657D01*
X56517Y144584D01*
X56474Y144509D01*
X56435Y144433D01*
X56399Y144354D01*
X56367Y144274D01*
X56339Y144193D01*
X56314Y144111D01*
X56293Y144027D01*
X56276Y143943D01*
X56262Y143858D01*
X56253Y143772D01*
X56247Y143686D01*
X56245Y143600D01*
X56245Y142641D01*
X60083Y142641D01*
X51777Y139762D02*
X51777Y145519D01*
X48898Y145519D01*
X48898Y144560D01*
X41231Y148398D02*
X38352Y139762D01*
X35473Y148398D01*
X30887Y147199D02*
X30960Y147045D01*
X31029Y146890D01*
X31094Y146733D01*
X31156Y146575D01*
X31213Y146415D01*
X31267Y146254D01*
X31317Y146091D01*
X31363Y145928D01*
X31405Y145763D01*
X31443Y145597D01*
X31478Y145431D01*
X31508Y145264D01*
X31534Y145096D01*
X31556Y144928D01*
X31575Y144759D01*
X31589Y144589D01*
X31599Y144420D01*
X31605Y144250D01*
X31607Y144080D01*
X30887Y147199D02*
X30859Y147275D01*
X30827Y147350D01*
X30792Y147424D01*
X30754Y147496D01*
X30712Y147566D01*
X30667Y147634D01*
X30619Y147700D01*
X30568Y147764D01*
X30514Y147825D01*
X30458Y147884D01*
X30398Y147940D01*
X30337Y147993D01*
X30273Y148043D01*
X30206Y148091D01*
X30138Y148135D01*
X30067Y148176D01*
X29995Y148214D01*
X29921Y148248D01*
X29846Y148279D01*
X29769Y148307D01*
X29691Y148331D01*
X29612Y148351D01*
X29532Y148368D01*
X29452Y148381D01*
X29371Y148391D01*
X29290Y148396D01*
X29208Y148398D01*
X29126Y148396D01*
X29045Y148391D01*
X28964Y148381D01*
X28884Y148368D01*
X28804Y148351D01*
X28725Y148331D01*
X28647Y148307D01*
X28570Y148279D01*
X28495Y148248D01*
X28421Y148214D01*
X28349Y148176D01*
X28278Y148135D01*
X28210Y148091D01*
X28143Y148043D01*
X28079Y147993D01*
X28018Y147940D01*
X27958Y147884D01*
X27902Y147825D01*
X27848Y147764D01*
X27797Y147700D01*
X27749Y147634D01*
X27704Y147566D01*
X27662Y147496D01*
X27624Y147424D01*
X27589Y147350D01*
X27557Y147275D01*
X27529Y147199D01*
X27456Y147045D01*
X27387Y146890D01*
X27322Y146733D01*
X27260Y146575D01*
X27203Y146415D01*
X27149Y146254D01*
X27099Y146091D01*
X27053Y145928D01*
X27011Y145763D01*
X26973Y145597D01*
X26938Y145431D01*
X26908Y145264D01*
X26882Y145096D01*
X26860Y144928D01*
X26841Y144759D01*
X26827Y144589D01*
X26817Y144420D01*
X26811Y144250D01*
X26809Y144080D01*
X31607Y144080D02*
X31605Y143910D01*
X31599Y143740D01*
X31589Y143571D01*
X31575Y143401D01*
X31556Y143232D01*
X31534Y143064D01*
X31508Y142896D01*
X31478Y142729D01*
X31443Y142563D01*
X31405Y142397D01*
X31363Y142232D01*
X31317Y142069D01*
X31267Y141907D01*
X31213Y141745D01*
X31156Y141586D01*
X31094Y141427D01*
X31029Y141270D01*
X30960Y141115D01*
X30887Y140961D01*
X30859Y140885D01*
X30827Y140810D01*
X30792Y140736D01*
X30754Y140664D01*
X30712Y140594D01*
X30667Y140526D01*
X30619Y140460D01*
X30568Y140396D01*
X30514Y140335D01*
X30458Y140276D01*
X30398Y140220D01*
X30337Y140167D01*
X30273Y140117D01*
X30206Y140069D01*
X30138Y140025D01*
X30067Y139984D01*
X29995Y139946D01*
X29921Y139912D01*
X29846Y139881D01*
X29769Y139853D01*
X29691Y139829D01*
X29612Y139809D01*
X29532Y139792D01*
X29452Y139779D01*
X29371Y139769D01*
X29290Y139764D01*
X29208Y139762D01*
X27529Y140961D02*
X27456Y141115D01*
X27387Y141270D01*
X27322Y141427D01*
X27260Y141586D01*
X27203Y141745D01*
X27149Y141907D01*
X27099Y142069D01*
X27053Y142232D01*
X27011Y142397D01*
X26973Y142563D01*
X26938Y142729D01*
X26908Y142896D01*
X26882Y143064D01*
X26860Y143232D01*
X26841Y143401D01*
X26827Y143571D01*
X26817Y143740D01*
X26811Y143910D01*
X26809Y144080D01*
X27529Y140961D02*
X27557Y140885D01*
X27589Y140810D01*
X27624Y140736D01*
X27662Y140664D01*
X27704Y140594D01*
X27749Y140526D01*
X27797Y140460D01*
X27848Y140396D01*
X27902Y140335D01*
X27958Y140276D01*
X28018Y140220D01*
X28079Y140167D01*
X28143Y140117D01*
X28210Y140069D01*
X28278Y140025D01*
X28349Y139984D01*
X28421Y139946D01*
X28495Y139912D01*
X28570Y139881D01*
X28647Y139853D01*
X28725Y139829D01*
X28804Y139809D01*
X28884Y139792D01*
X28964Y139779D01*
X29045Y139769D01*
X29126Y139764D01*
X29208Y139762D01*
X31127Y141681D02*
X27289Y146479D01*
X23047Y140242D02*
X23047Y139762D01*
X23047Y140242D02*
X22567Y140242D01*
X22567Y139762D01*
X23047Y139762D01*
X18805Y146479D02*
X16407Y148398D01*
X16407Y139762D01*
X18805Y139762D02*
X14008Y139762D01*
D11*
X489481Y152002D02*
X494222Y137778D01*
X484739Y137778D02*
X489481Y152002D01*
X485925Y141334D02*
X493037Y141334D01*
X485222Y196900D02*
X481271Y196900D01*
X481147Y196898D01*
X481023Y196892D01*
X480899Y196882D01*
X480776Y196869D01*
X480653Y196851D01*
X480531Y196830D01*
X480409Y196805D01*
X480288Y196776D01*
X480169Y196743D01*
X480050Y196707D01*
X479933Y196666D01*
X479817Y196623D01*
X479702Y196575D01*
X479589Y196524D01*
X479477Y196469D01*
X479368Y196411D01*
X479260Y196350D01*
X479154Y196285D01*
X479050Y196217D01*
X478949Y196145D01*
X478849Y196071D01*
X478753Y195993D01*
X478658Y195913D01*
X478566Y195829D01*
X478477Y195743D01*
X478391Y195654D01*
X478307Y195562D01*
X478227Y195467D01*
X478149Y195371D01*
X478075Y195271D01*
X478003Y195170D01*
X477935Y195066D01*
X477870Y194960D01*
X477809Y194852D01*
X477751Y194743D01*
X477696Y194631D01*
X477645Y194518D01*
X477597Y194403D01*
X477554Y194287D01*
X477513Y194170D01*
X477477Y194051D01*
X477444Y193932D01*
X477415Y193811D01*
X477390Y193689D01*
X477369Y193567D01*
X477351Y193444D01*
X477338Y193321D01*
X477328Y193197D01*
X477322Y193073D01*
X477320Y192949D01*
X477322Y192825D01*
X477328Y192701D01*
X477338Y192577D01*
X477351Y192454D01*
X477369Y192331D01*
X477390Y192209D01*
X477415Y192087D01*
X477444Y191966D01*
X477477Y191847D01*
X477513Y191728D01*
X477554Y191611D01*
X477597Y191495D01*
X477645Y191380D01*
X477696Y191267D01*
X477751Y191155D01*
X477809Y191046D01*
X477870Y190938D01*
X477935Y190832D01*
X478003Y190728D01*
X478075Y190627D01*
X478149Y190527D01*
X478227Y190431D01*
X478307Y190336D01*
X478391Y190244D01*
X478477Y190155D01*
X478566Y190069D01*
X478658Y189985D01*
X478753Y189905D01*
X478849Y189827D01*
X478949Y189753D01*
X479050Y189681D01*
X479154Y189613D01*
X479260Y189548D01*
X479368Y189487D01*
X479477Y189429D01*
X479589Y189374D01*
X479702Y189323D01*
X479817Y189275D01*
X479933Y189232D01*
X480050Y189191D01*
X480169Y189155D01*
X480288Y189122D01*
X480409Y189093D01*
X480531Y189068D01*
X480653Y189047D01*
X480776Y189029D01*
X480899Y189016D01*
X481023Y189006D01*
X481147Y189000D01*
X481271Y188998D01*
X485222Y188998D01*
X485222Y203222D01*
X481271Y203222D01*
X481159Y203220D01*
X481048Y203214D01*
X480937Y203204D01*
X480826Y203191D01*
X480716Y203173D01*
X480607Y203151D01*
X480498Y203126D01*
X480390Y203097D01*
X480284Y203064D01*
X480178Y203027D01*
X480074Y202987D01*
X479972Y202943D01*
X479871Y202895D01*
X479772Y202844D01*
X479674Y202789D01*
X479579Y202731D01*
X479486Y202670D01*
X479395Y202605D01*
X479306Y202537D01*
X479220Y202466D01*
X479137Y202393D01*
X479056Y202316D01*
X478977Y202236D01*
X478902Y202154D01*
X478830Y202069D01*
X478760Y201982D01*
X478694Y201892D01*
X478631Y201800D01*
X478571Y201705D01*
X478515Y201609D01*
X478462Y201511D01*
X478413Y201411D01*
X478367Y201309D01*
X478325Y201206D01*
X478286Y201101D01*
X478251Y200995D01*
X478220Y200888D01*
X478193Y200780D01*
X478169Y200671D01*
X478150Y200561D01*
X478134Y200451D01*
X478122Y200340D01*
X478114Y200228D01*
X478110Y200117D01*
X478110Y200005D01*
X478114Y199894D01*
X478122Y199782D01*
X478134Y199671D01*
X478150Y199561D01*
X478169Y199451D01*
X478193Y199342D01*
X478220Y199234D01*
X478251Y199127D01*
X478286Y199021D01*
X478325Y198916D01*
X478367Y198813D01*
X478413Y198711D01*
X478462Y198611D01*
X478515Y198513D01*
X478571Y198417D01*
X478631Y198322D01*
X478694Y198230D01*
X478760Y198140D01*
X478830Y198053D01*
X478902Y197968D01*
X478977Y197886D01*
X479056Y197806D01*
X479137Y197729D01*
X479220Y197656D01*
X479306Y197585D01*
X479395Y197517D01*
X479486Y197452D01*
X479579Y197391D01*
X479674Y197333D01*
X479772Y197278D01*
X479871Y197227D01*
X479972Y197179D01*
X480074Y197135D01*
X480178Y197095D01*
X480284Y197058D01*
X480390Y197025D01*
X480498Y196996D01*
X480607Y196971D01*
X480716Y196949D01*
X480826Y196931D01*
X480937Y196918D01*
X481048Y196908D01*
X481159Y196902D01*
X481271Y196900D01*
X487900Y346998D02*
X491061Y346998D01*
X491171Y347000D01*
X491282Y347006D01*
X491391Y347015D01*
X491501Y347029D01*
X491610Y347046D01*
X491718Y347067D01*
X491826Y347092D01*
X491932Y347120D01*
X492038Y347153D01*
X492142Y347189D01*
X492245Y347228D01*
X492347Y347271D01*
X492447Y347318D01*
X492545Y347368D01*
X492642Y347421D01*
X492736Y347478D01*
X492829Y347538D01*
X492919Y347602D01*
X493007Y347668D01*
X493093Y347738D01*
X493176Y347810D01*
X493257Y347885D01*
X493335Y347963D01*
X493410Y348044D01*
X493482Y348127D01*
X493552Y348213D01*
X493618Y348301D01*
X493682Y348391D01*
X493742Y348484D01*
X493799Y348578D01*
X493852Y348675D01*
X493902Y348773D01*
X493949Y348873D01*
X493992Y348975D01*
X494031Y349078D01*
X494067Y349182D01*
X494100Y349288D01*
X494128Y349394D01*
X494153Y349502D01*
X494174Y349610D01*
X494191Y349719D01*
X494205Y349829D01*
X494214Y349938D01*
X494220Y350049D01*
X494222Y350159D01*
X494222Y358061D01*
X494220Y358171D01*
X494214Y358282D01*
X494205Y358391D01*
X494191Y358501D01*
X494174Y358610D01*
X494153Y358718D01*
X494128Y358826D01*
X494100Y358932D01*
X494067Y359038D01*
X494031Y359142D01*
X493992Y359245D01*
X493949Y359347D01*
X493902Y359447D01*
X493852Y359545D01*
X493799Y359642D01*
X493742Y359736D01*
X493682Y359829D01*
X493618Y359919D01*
X493552Y360007D01*
X493482Y360093D01*
X493410Y360176D01*
X493335Y360257D01*
X493257Y360335D01*
X493176Y360410D01*
X493093Y360482D01*
X493007Y360552D01*
X492919Y360618D01*
X492829Y360682D01*
X492736Y360742D01*
X492642Y360799D01*
X492545Y360852D01*
X492447Y360902D01*
X492347Y360949D01*
X492245Y360992D01*
X492142Y361031D01*
X492038Y361067D01*
X491932Y361100D01*
X491826Y361128D01*
X491718Y361153D01*
X491610Y361174D01*
X491501Y361191D01*
X491391Y361205D01*
X491282Y361214D01*
X491171Y361220D01*
X491061Y361222D01*
X487900Y361222D01*
X265690Y383900D02*
X263320Y383900D01*
X263320Y375998D01*
X268061Y375998D01*
X268171Y376000D01*
X268282Y376006D01*
X268391Y376015D01*
X268501Y376029D01*
X268610Y376046D01*
X268718Y376067D01*
X268826Y376092D01*
X268932Y376120D01*
X269038Y376153D01*
X269142Y376189D01*
X269245Y376228D01*
X269347Y376271D01*
X269447Y376318D01*
X269545Y376368D01*
X269642Y376421D01*
X269736Y376478D01*
X269829Y376538D01*
X269919Y376602D01*
X270007Y376668D01*
X270093Y376738D01*
X270176Y376810D01*
X270257Y376885D01*
X270335Y376963D01*
X270410Y377044D01*
X270482Y377127D01*
X270552Y377213D01*
X270618Y377301D01*
X270682Y377391D01*
X270742Y377484D01*
X270799Y377578D01*
X270852Y377675D01*
X270902Y377773D01*
X270949Y377873D01*
X270992Y377975D01*
X271031Y378078D01*
X271067Y378182D01*
X271100Y378288D01*
X271128Y378394D01*
X271153Y378502D01*
X271174Y378610D01*
X271191Y378719D01*
X271205Y378829D01*
X271214Y378938D01*
X271220Y379049D01*
X271222Y379159D01*
X271222Y387061D01*
X271220Y387171D01*
X271214Y387282D01*
X271205Y387391D01*
X271191Y387501D01*
X271174Y387610D01*
X271153Y387718D01*
X271128Y387826D01*
X271100Y387932D01*
X271067Y388038D01*
X271031Y388142D01*
X270992Y388245D01*
X270949Y388347D01*
X270902Y388447D01*
X270852Y388545D01*
X270799Y388642D01*
X270742Y388736D01*
X270682Y388829D01*
X270618Y388919D01*
X270552Y389007D01*
X270482Y389093D01*
X270410Y389176D01*
X270335Y389257D01*
X270257Y389335D01*
X270176Y389410D01*
X270093Y389482D01*
X270007Y389552D01*
X269919Y389618D01*
X269829Y389682D01*
X269736Y389742D01*
X269642Y389799D01*
X269545Y389852D01*
X269447Y389902D01*
X269347Y389949D01*
X269245Y389992D01*
X269142Y390031D01*
X269038Y390067D01*
X268932Y390100D01*
X268826Y390128D01*
X268718Y390153D01*
X268610Y390174D01*
X268501Y390191D01*
X268391Y390205D01*
X268282Y390214D01*
X268171Y390220D01*
X268061Y390222D01*
X263320Y390222D01*
X254549Y390222D02*
X254549Y375998D01*
X246646Y375998D02*
X254549Y390222D01*
X246646Y390222D02*
X246646Y375998D01*
X237875Y375998D02*
X237875Y390222D01*
X233924Y390222D01*
X233800Y390220D01*
X233676Y390214D01*
X233552Y390204D01*
X233429Y390191D01*
X233306Y390173D01*
X233184Y390152D01*
X233062Y390127D01*
X232941Y390098D01*
X232822Y390065D01*
X232703Y390029D01*
X232586Y389988D01*
X232470Y389945D01*
X232355Y389897D01*
X232242Y389846D01*
X232130Y389791D01*
X232021Y389733D01*
X231913Y389672D01*
X231807Y389607D01*
X231703Y389539D01*
X231602Y389467D01*
X231502Y389393D01*
X231406Y389315D01*
X231311Y389235D01*
X231219Y389151D01*
X231130Y389065D01*
X231044Y388976D01*
X230960Y388884D01*
X230880Y388789D01*
X230802Y388693D01*
X230728Y388593D01*
X230656Y388492D01*
X230588Y388388D01*
X230523Y388282D01*
X230462Y388174D01*
X230404Y388065D01*
X230349Y387953D01*
X230298Y387840D01*
X230250Y387725D01*
X230207Y387609D01*
X230166Y387492D01*
X230130Y387373D01*
X230097Y387254D01*
X230068Y387133D01*
X230043Y387011D01*
X230022Y386889D01*
X230004Y386766D01*
X229991Y386643D01*
X229981Y386519D01*
X229975Y386395D01*
X229973Y386271D01*
X229973Y379949D01*
X229975Y379825D01*
X229981Y379701D01*
X229991Y379577D01*
X230004Y379454D01*
X230022Y379331D01*
X230043Y379209D01*
X230068Y379087D01*
X230097Y378966D01*
X230130Y378847D01*
X230166Y378728D01*
X230207Y378611D01*
X230250Y378495D01*
X230298Y378380D01*
X230349Y378267D01*
X230404Y378155D01*
X230462Y378046D01*
X230523Y377938D01*
X230588Y377832D01*
X230656Y377728D01*
X230728Y377627D01*
X230802Y377527D01*
X230880Y377431D01*
X230960Y377336D01*
X231044Y377244D01*
X231130Y377155D01*
X231219Y377069D01*
X231311Y376985D01*
X231406Y376905D01*
X231502Y376827D01*
X231602Y376753D01*
X231703Y376681D01*
X231807Y376613D01*
X231913Y376548D01*
X232021Y376487D01*
X232130Y376429D01*
X232242Y376374D01*
X232355Y376323D01*
X232470Y376275D01*
X232586Y376232D01*
X232703Y376191D01*
X232822Y376155D01*
X232941Y376122D01*
X233062Y376093D01*
X233184Y376068D01*
X233306Y376047D01*
X233429Y376029D01*
X233552Y376016D01*
X233676Y376006D01*
X233800Y376000D01*
X233924Y375998D01*
X237875Y375998D01*
D12*
X161500Y40000D02*
X161500Y4000D01*
X161500Y40000D02*
X159500Y40000D01*
X63500Y40000D02*
X61500Y40000D01*
X61500Y4000D01*
D13*
X225799Y399137D02*
X225799Y403088D01*
X225799Y399137D02*
X225801Y399071D01*
X225807Y399006D01*
X225816Y398941D01*
X225829Y398877D01*
X225846Y398813D01*
X225867Y398751D01*
X225891Y398690D01*
X225919Y398630D01*
X225950Y398573D01*
X225985Y398517D01*
X226022Y398463D01*
X226063Y398411D01*
X226107Y398362D01*
X226153Y398316D01*
X226202Y398272D01*
X226254Y398231D01*
X226308Y398194D01*
X226364Y398159D01*
X226421Y398128D01*
X226481Y398100D01*
X226542Y398076D01*
X226604Y398055D01*
X226668Y398038D01*
X226732Y398025D01*
X226797Y398016D01*
X226862Y398010D01*
X226928Y398008D01*
X227492Y398008D01*
X221434Y403088D02*
X221365Y403086D01*
X221297Y403081D01*
X221229Y403071D01*
X221161Y403058D01*
X221094Y403042D01*
X221028Y403022D01*
X220964Y402998D01*
X220901Y402971D01*
X220839Y402940D01*
X220779Y402906D01*
X220721Y402869D01*
X220665Y402829D01*
X220612Y402786D01*
X220561Y402740D01*
X220512Y402691D01*
X220466Y402640D01*
X220423Y402587D01*
X220383Y402531D01*
X220346Y402473D01*
X220312Y402413D01*
X220281Y402351D01*
X220254Y402288D01*
X220230Y402224D01*
X220210Y402158D01*
X220194Y402091D01*
X220181Y402023D01*
X220171Y401955D01*
X220166Y401887D01*
X220164Y401818D01*
X221434Y403088D02*
X221513Y403086D01*
X221592Y403080D01*
X221670Y403071D01*
X221748Y403058D01*
X221825Y403041D01*
X221901Y403020D01*
X221976Y402995D01*
X222050Y402967D01*
X222122Y402936D01*
X222193Y402901D01*
X222262Y402862D01*
X222329Y402821D01*
X222394Y402776D01*
X222457Y402728D01*
X222517Y402677D01*
X222575Y402623D01*
X222630Y402567D01*
X222682Y402508D01*
X222731Y402446D01*
X222778Y402382D01*
X222821Y402316D01*
X222861Y402248D01*
X222898Y402178D01*
X222931Y402106D01*
X222960Y402033D01*
X222987Y401959D01*
X220587Y400830D02*
X220539Y400879D01*
X220492Y400930D01*
X220449Y400984D01*
X220408Y401040D01*
X220370Y401097D01*
X220335Y401157D01*
X220303Y401218D01*
X220274Y401281D01*
X220249Y401345D01*
X220226Y401410D01*
X220207Y401477D01*
X220192Y401544D01*
X220180Y401612D01*
X220171Y401680D01*
X220166Y401749D01*
X220164Y401818D01*
X220587Y400830D02*
X222986Y398008D01*
X220164Y398008D01*
D12*
X228638Y21555D02*
X228638Y20031D01*
X228638Y21555D02*
X228636Y21632D01*
X228630Y21709D01*
X228620Y21786D01*
X228607Y21862D01*
X228589Y21937D01*
X228568Y22011D01*
X228543Y22084D01*
X228514Y22156D01*
X228482Y22226D01*
X228447Y22295D01*
X228407Y22361D01*
X228365Y22426D01*
X228319Y22488D01*
X228270Y22548D01*
X228219Y22605D01*
X228164Y22660D01*
X228107Y22711D01*
X228047Y22760D01*
X227985Y22806D01*
X227920Y22848D01*
X227854Y22888D01*
X227785Y22923D01*
X227715Y22955D01*
X227643Y22984D01*
X227570Y23009D01*
X227496Y23030D01*
X227421Y23048D01*
X227345Y23061D01*
X227268Y23071D01*
X227191Y23077D01*
X227114Y23079D01*
X227037Y23077D01*
X226960Y23071D01*
X226883Y23061D01*
X226807Y23048D01*
X226732Y23030D01*
X226658Y23009D01*
X226585Y22984D01*
X226513Y22955D01*
X226443Y22923D01*
X226374Y22888D01*
X226308Y22848D01*
X226243Y22806D01*
X226181Y22760D01*
X226121Y22711D01*
X226064Y22660D01*
X226009Y22605D01*
X225958Y22548D01*
X225909Y22488D01*
X225863Y22426D01*
X225821Y22361D01*
X225781Y22295D01*
X225746Y22226D01*
X225714Y22156D01*
X225685Y22084D01*
X225660Y22011D01*
X225639Y21937D01*
X225621Y21862D01*
X225608Y21786D01*
X225598Y21709D01*
X225592Y21632D01*
X225590Y21555D01*
X225590Y20031D01*
X225592Y19954D01*
X225598Y19877D01*
X225608Y19800D01*
X225621Y19724D01*
X225639Y19649D01*
X225660Y19575D01*
X225685Y19502D01*
X225714Y19430D01*
X225746Y19360D01*
X225781Y19291D01*
X225821Y19225D01*
X225863Y19160D01*
X225909Y19098D01*
X225958Y19038D01*
X226009Y18981D01*
X226064Y18926D01*
X226121Y18875D01*
X226181Y18826D01*
X226243Y18780D01*
X226308Y18738D01*
X226374Y18698D01*
X226443Y18663D01*
X226513Y18631D01*
X226585Y18602D01*
X226658Y18577D01*
X226732Y18556D01*
X226807Y18538D01*
X226883Y18525D01*
X226960Y18515D01*
X227037Y18509D01*
X227114Y18507D01*
X227191Y18509D01*
X227268Y18515D01*
X227345Y18525D01*
X227421Y18538D01*
X227496Y18556D01*
X227570Y18577D01*
X227643Y18602D01*
X227715Y18631D01*
X227785Y18663D01*
X227854Y18698D01*
X227920Y18738D01*
X227985Y18780D01*
X228047Y18826D01*
X228107Y18875D01*
X228164Y18926D01*
X228219Y18981D01*
X228270Y19038D01*
X228319Y19098D01*
X228365Y19160D01*
X228407Y19225D01*
X228447Y19291D01*
X228482Y19360D01*
X228514Y19430D01*
X228543Y19502D01*
X228568Y19575D01*
X228589Y19649D01*
X228607Y19724D01*
X228620Y19800D01*
X228630Y19877D01*
X228636Y19954D01*
X228638Y20031D01*
X221999Y23079D02*
X221999Y16221D01*
X221999Y23079D02*
X220094Y23079D01*
X220028Y23077D01*
X219961Y23071D01*
X219896Y23062D01*
X219830Y23048D01*
X219766Y23031D01*
X219703Y23010D01*
X219641Y22986D01*
X219581Y22957D01*
X219523Y22926D01*
X219466Y22891D01*
X219411Y22853D01*
X219359Y22812D01*
X219310Y22767D01*
X219263Y22720D01*
X219218Y22671D01*
X219177Y22619D01*
X219139Y22564D01*
X219104Y22508D01*
X219073Y22449D01*
X219044Y22389D01*
X219020Y22327D01*
X218999Y22264D01*
X218982Y22200D01*
X218968Y22134D01*
X218959Y22069D01*
X218953Y22002D01*
X218951Y21936D01*
X218951Y19650D01*
X218953Y19584D01*
X218959Y19517D01*
X218968Y19452D01*
X218982Y19386D01*
X218999Y19322D01*
X219020Y19259D01*
X219044Y19197D01*
X219073Y19137D01*
X219104Y19079D01*
X219139Y19022D01*
X219177Y18967D01*
X219218Y18915D01*
X219263Y18866D01*
X219310Y18819D01*
X219359Y18774D01*
X219411Y18733D01*
X219466Y18695D01*
X219523Y18660D01*
X219581Y18629D01*
X219641Y18600D01*
X219703Y18576D01*
X219766Y18555D01*
X219830Y18538D01*
X219896Y18524D01*
X219961Y18515D01*
X220028Y18509D01*
X220094Y18507D01*
X221999Y18507D01*
X214572Y18507D02*
X212667Y18507D01*
X214572Y18507D02*
X214638Y18509D01*
X214705Y18515D01*
X214770Y18524D01*
X214836Y18538D01*
X214900Y18555D01*
X214963Y18576D01*
X215025Y18600D01*
X215085Y18629D01*
X215144Y18660D01*
X215200Y18695D01*
X215255Y18733D01*
X215307Y18774D01*
X215356Y18819D01*
X215403Y18866D01*
X215448Y18915D01*
X215489Y18967D01*
X215527Y19022D01*
X215562Y19079D01*
X215593Y19137D01*
X215622Y19197D01*
X215646Y19259D01*
X215667Y19322D01*
X215684Y19386D01*
X215698Y19452D01*
X215707Y19517D01*
X215713Y19584D01*
X215715Y19650D01*
X215715Y21555D01*
X215713Y21632D01*
X215707Y21709D01*
X215697Y21786D01*
X215684Y21862D01*
X215666Y21937D01*
X215645Y22011D01*
X215620Y22084D01*
X215591Y22156D01*
X215559Y22226D01*
X215524Y22295D01*
X215484Y22361D01*
X215442Y22426D01*
X215396Y22488D01*
X215347Y22548D01*
X215296Y22605D01*
X215241Y22660D01*
X215184Y22711D01*
X215124Y22760D01*
X215062Y22806D01*
X214997Y22848D01*
X214931Y22888D01*
X214862Y22923D01*
X214792Y22955D01*
X214720Y22984D01*
X214647Y23009D01*
X214573Y23030D01*
X214498Y23048D01*
X214422Y23061D01*
X214345Y23071D01*
X214268Y23077D01*
X214191Y23079D01*
X214114Y23077D01*
X214037Y23071D01*
X213960Y23061D01*
X213884Y23048D01*
X213809Y23030D01*
X213735Y23009D01*
X213662Y22984D01*
X213590Y22955D01*
X213520Y22923D01*
X213451Y22888D01*
X213385Y22848D01*
X213320Y22806D01*
X213258Y22760D01*
X213198Y22711D01*
X213141Y22660D01*
X213086Y22605D01*
X213035Y22548D01*
X212986Y22488D01*
X212940Y22426D01*
X212898Y22361D01*
X212858Y22295D01*
X212823Y22226D01*
X212791Y22156D01*
X212762Y22084D01*
X212737Y22011D01*
X212716Y21937D01*
X212698Y21862D01*
X212685Y21786D01*
X212675Y21709D01*
X212669Y21632D01*
X212667Y21555D01*
X212667Y20793D01*
X215715Y20793D01*
X209131Y18507D02*
X209131Y23079D01*
X207226Y23079D01*
X207160Y23077D01*
X207093Y23071D01*
X207028Y23062D01*
X206962Y23048D01*
X206898Y23031D01*
X206835Y23010D01*
X206773Y22986D01*
X206713Y22957D01*
X206655Y22926D01*
X206598Y22891D01*
X206543Y22853D01*
X206491Y22812D01*
X206442Y22767D01*
X206395Y22720D01*
X206350Y22671D01*
X206309Y22619D01*
X206271Y22564D01*
X206236Y22508D01*
X206205Y22449D01*
X206176Y22389D01*
X206152Y22327D01*
X206131Y22264D01*
X206114Y22200D01*
X206100Y22134D01*
X206091Y22069D01*
X206085Y22002D01*
X206083Y21936D01*
X206083Y18507D01*
X198074Y21174D02*
X196169Y20412D01*
X198075Y21174D02*
X198132Y21199D01*
X198187Y21227D01*
X198241Y21259D01*
X198292Y21294D01*
X198341Y21333D01*
X198388Y21374D01*
X198432Y21418D01*
X198473Y21465D01*
X198511Y21515D01*
X198545Y21567D01*
X198577Y21620D01*
X198605Y21676D01*
X198629Y21733D01*
X198650Y21792D01*
X198667Y21852D01*
X198680Y21913D01*
X198689Y21975D01*
X198695Y22037D01*
X198696Y22099D01*
X198693Y22161D01*
X198687Y22223D01*
X198677Y22285D01*
X198663Y22345D01*
X198645Y22405D01*
X198623Y22464D01*
X198598Y22520D01*
X198569Y22576D01*
X198537Y22629D01*
X198501Y22680D01*
X198462Y22729D01*
X198421Y22775D01*
X198376Y22819D01*
X198329Y22860D01*
X198279Y22897D01*
X198227Y22932D01*
X198173Y22963D01*
X198117Y22990D01*
X198060Y23014D01*
X198001Y23035D01*
X197941Y23051D01*
X197880Y23064D01*
X197818Y23073D01*
X197756Y23078D01*
X197694Y23079D01*
X197693Y23079D02*
X197567Y23075D01*
X197441Y23068D01*
X197315Y23057D01*
X197189Y23042D01*
X197064Y23024D01*
X196940Y23002D01*
X196816Y22976D01*
X196693Y22947D01*
X196571Y22914D01*
X196450Y22878D01*
X196331Y22838D01*
X196212Y22794D01*
X196095Y22748D01*
X195979Y22698D01*
X196169Y20412D02*
X196112Y20387D01*
X196057Y20359D01*
X196003Y20327D01*
X195952Y20292D01*
X195903Y20253D01*
X195856Y20212D01*
X195812Y20168D01*
X195771Y20121D01*
X195733Y20071D01*
X195699Y20019D01*
X195667Y19966D01*
X195639Y19910D01*
X195615Y19853D01*
X195594Y19794D01*
X195577Y19734D01*
X195564Y19673D01*
X195555Y19611D01*
X195549Y19549D01*
X195548Y19487D01*
X195551Y19425D01*
X195557Y19363D01*
X195567Y19301D01*
X195581Y19241D01*
X195599Y19181D01*
X195621Y19122D01*
X195646Y19066D01*
X195675Y19010D01*
X195707Y18957D01*
X195743Y18906D01*
X195782Y18857D01*
X195823Y18811D01*
X195868Y18767D01*
X195915Y18726D01*
X195965Y18689D01*
X196017Y18654D01*
X196071Y18623D01*
X196127Y18596D01*
X196184Y18572D01*
X196243Y18551D01*
X196303Y18535D01*
X196364Y18522D01*
X196426Y18513D01*
X196488Y18508D01*
X196550Y18507D01*
X196703Y18511D01*
X196856Y18518D01*
X197008Y18529D01*
X197160Y18544D01*
X197312Y18563D01*
X197463Y18585D01*
X197614Y18610D01*
X197764Y18639D01*
X197913Y18672D01*
X198062Y18708D01*
X198209Y18748D01*
X198356Y18791D01*
X198502Y18838D01*
X198646Y18888D01*
X192306Y20031D02*
X192306Y21555D01*
X192304Y21632D01*
X192298Y21709D01*
X192288Y21786D01*
X192275Y21862D01*
X192257Y21937D01*
X192236Y22011D01*
X192211Y22084D01*
X192182Y22156D01*
X192150Y22226D01*
X192115Y22295D01*
X192075Y22361D01*
X192033Y22426D01*
X191987Y22488D01*
X191938Y22548D01*
X191887Y22605D01*
X191832Y22660D01*
X191775Y22711D01*
X191715Y22760D01*
X191653Y22806D01*
X191588Y22848D01*
X191522Y22888D01*
X191453Y22923D01*
X191383Y22955D01*
X191311Y22984D01*
X191238Y23009D01*
X191164Y23030D01*
X191089Y23048D01*
X191013Y23061D01*
X190936Y23071D01*
X190859Y23077D01*
X190782Y23079D01*
X190705Y23077D01*
X190628Y23071D01*
X190551Y23061D01*
X190475Y23048D01*
X190400Y23030D01*
X190326Y23009D01*
X190253Y22984D01*
X190181Y22955D01*
X190111Y22923D01*
X190042Y22888D01*
X189976Y22848D01*
X189911Y22806D01*
X189849Y22760D01*
X189789Y22711D01*
X189732Y22660D01*
X189677Y22605D01*
X189626Y22548D01*
X189577Y22488D01*
X189531Y22426D01*
X189489Y22361D01*
X189449Y22295D01*
X189414Y22226D01*
X189382Y22156D01*
X189353Y22084D01*
X189328Y22011D01*
X189307Y21937D01*
X189289Y21862D01*
X189276Y21786D01*
X189266Y21709D01*
X189260Y21632D01*
X189258Y21555D01*
X189258Y20031D01*
X189260Y19954D01*
X189266Y19877D01*
X189276Y19800D01*
X189289Y19724D01*
X189307Y19649D01*
X189328Y19575D01*
X189353Y19502D01*
X189382Y19430D01*
X189414Y19360D01*
X189449Y19291D01*
X189489Y19225D01*
X189531Y19160D01*
X189577Y19098D01*
X189626Y19038D01*
X189677Y18981D01*
X189732Y18926D01*
X189789Y18875D01*
X189849Y18826D01*
X189911Y18780D01*
X189976Y18738D01*
X190042Y18698D01*
X190111Y18663D01*
X190181Y18631D01*
X190253Y18602D01*
X190326Y18577D01*
X190400Y18556D01*
X190475Y18538D01*
X190551Y18525D01*
X190628Y18515D01*
X190705Y18509D01*
X190782Y18507D01*
X190859Y18509D01*
X190936Y18515D01*
X191013Y18525D01*
X191089Y18538D01*
X191164Y18556D01*
X191238Y18577D01*
X191311Y18602D01*
X191383Y18631D01*
X191453Y18663D01*
X191522Y18698D01*
X191588Y18738D01*
X191653Y18780D01*
X191715Y18826D01*
X191775Y18875D01*
X191832Y18926D01*
X191887Y18981D01*
X191938Y19038D01*
X191987Y19098D01*
X192033Y19160D01*
X192075Y19225D01*
X192115Y19291D01*
X192150Y19360D01*
X192182Y19430D01*
X192211Y19502D01*
X192236Y19575D01*
X192257Y19649D01*
X192275Y19724D01*
X192288Y19800D01*
X192298Y19877D01*
X192304Y19954D01*
X192306Y20031D01*
X185722Y19650D02*
X185722Y23079D01*
X185722Y19650D02*
X185720Y19584D01*
X185714Y19517D01*
X185705Y19452D01*
X185691Y19386D01*
X185674Y19322D01*
X185653Y19259D01*
X185629Y19197D01*
X185600Y19137D01*
X185569Y19079D01*
X185534Y19022D01*
X185496Y18967D01*
X185455Y18915D01*
X185410Y18866D01*
X185363Y18819D01*
X185314Y18774D01*
X185262Y18733D01*
X185207Y18695D01*
X185151Y18660D01*
X185092Y18629D01*
X185032Y18600D01*
X184970Y18576D01*
X184907Y18555D01*
X184843Y18538D01*
X184777Y18524D01*
X184712Y18515D01*
X184645Y18509D01*
X184579Y18507D01*
X182674Y18507D01*
X182674Y23079D01*
X178832Y23079D02*
X178832Y18507D01*
X178832Y23079D02*
X176546Y23079D01*
X176546Y22317D01*
X172863Y18507D02*
X171339Y18507D01*
X172863Y18507D02*
X172929Y18509D01*
X172996Y18515D01*
X173061Y18524D01*
X173127Y18538D01*
X173191Y18555D01*
X173254Y18576D01*
X173316Y18600D01*
X173376Y18629D01*
X173435Y18660D01*
X173491Y18695D01*
X173546Y18733D01*
X173598Y18774D01*
X173647Y18819D01*
X173694Y18866D01*
X173739Y18915D01*
X173780Y18967D01*
X173818Y19022D01*
X173853Y19079D01*
X173884Y19137D01*
X173913Y19197D01*
X173937Y19259D01*
X173958Y19322D01*
X173975Y19386D01*
X173989Y19452D01*
X173998Y19517D01*
X174004Y19584D01*
X174006Y19650D01*
X174006Y21936D01*
X174004Y22002D01*
X173998Y22069D01*
X173989Y22134D01*
X173975Y22200D01*
X173958Y22264D01*
X173937Y22327D01*
X173913Y22389D01*
X173884Y22449D01*
X173853Y22508D01*
X173818Y22564D01*
X173780Y22619D01*
X173739Y22671D01*
X173694Y22720D01*
X173647Y22767D01*
X173598Y22812D01*
X173546Y22853D01*
X173491Y22891D01*
X173435Y22926D01*
X173376Y22957D01*
X173316Y22986D01*
X173254Y23010D01*
X173191Y23031D01*
X173127Y23048D01*
X173061Y23062D01*
X172996Y23071D01*
X172929Y23077D01*
X172863Y23079D01*
X171339Y23079D01*
X167267Y18507D02*
X165362Y18507D01*
X167267Y18507D02*
X167333Y18509D01*
X167400Y18515D01*
X167465Y18524D01*
X167531Y18538D01*
X167595Y18555D01*
X167658Y18576D01*
X167720Y18600D01*
X167780Y18629D01*
X167839Y18660D01*
X167895Y18695D01*
X167950Y18733D01*
X168002Y18774D01*
X168051Y18819D01*
X168098Y18866D01*
X168143Y18915D01*
X168184Y18967D01*
X168222Y19022D01*
X168257Y19079D01*
X168288Y19137D01*
X168317Y19197D01*
X168341Y19259D01*
X168362Y19322D01*
X168379Y19386D01*
X168393Y19452D01*
X168402Y19517D01*
X168408Y19584D01*
X168410Y19650D01*
X168410Y21555D01*
X168408Y21632D01*
X168402Y21709D01*
X168392Y21786D01*
X168379Y21862D01*
X168361Y21937D01*
X168340Y22011D01*
X168315Y22084D01*
X168286Y22156D01*
X168254Y22226D01*
X168219Y22295D01*
X168179Y22361D01*
X168137Y22426D01*
X168091Y22488D01*
X168042Y22548D01*
X167991Y22605D01*
X167936Y22660D01*
X167879Y22711D01*
X167819Y22760D01*
X167757Y22806D01*
X167692Y22848D01*
X167626Y22888D01*
X167557Y22923D01*
X167487Y22955D01*
X167415Y22984D01*
X167342Y23009D01*
X167268Y23030D01*
X167193Y23048D01*
X167117Y23061D01*
X167040Y23071D01*
X166963Y23077D01*
X166886Y23079D01*
X166809Y23077D01*
X166732Y23071D01*
X166655Y23061D01*
X166579Y23048D01*
X166504Y23030D01*
X166430Y23009D01*
X166357Y22984D01*
X166285Y22955D01*
X166215Y22923D01*
X166146Y22888D01*
X166080Y22848D01*
X166015Y22806D01*
X165953Y22760D01*
X165893Y22711D01*
X165836Y22660D01*
X165781Y22605D01*
X165730Y22548D01*
X165681Y22488D01*
X165635Y22426D01*
X165593Y22361D01*
X165553Y22295D01*
X165518Y22226D01*
X165486Y22156D01*
X165457Y22084D01*
X165432Y22011D01*
X165411Y21937D01*
X165393Y21862D01*
X165380Y21786D01*
X165370Y21709D01*
X165364Y21632D01*
X165362Y21555D01*
X165362Y20793D01*
X168410Y20793D01*
X220713Y13173D02*
X220713Y6315D01*
X220713Y10887D02*
X218808Y10887D01*
X218742Y10885D01*
X218675Y10879D01*
X218610Y10870D01*
X218544Y10856D01*
X218480Y10839D01*
X218417Y10818D01*
X218355Y10794D01*
X218295Y10765D01*
X218237Y10734D01*
X218180Y10699D01*
X218125Y10661D01*
X218073Y10620D01*
X218024Y10575D01*
X217977Y10528D01*
X217932Y10479D01*
X217891Y10427D01*
X217853Y10372D01*
X217818Y10316D01*
X217787Y10257D01*
X217758Y10197D01*
X217734Y10135D01*
X217713Y10072D01*
X217696Y10008D01*
X217682Y9942D01*
X217673Y9877D01*
X217667Y9810D01*
X217665Y9744D01*
X217665Y6315D01*
X212852Y8982D02*
X211137Y8982D01*
X212852Y8983D02*
X212924Y8981D01*
X212996Y8975D01*
X213068Y8965D01*
X213139Y8952D01*
X213209Y8934D01*
X213278Y8913D01*
X213346Y8888D01*
X213412Y8860D01*
X213477Y8828D01*
X213540Y8792D01*
X213601Y8753D01*
X213659Y8711D01*
X213716Y8666D01*
X213769Y8617D01*
X213820Y8566D01*
X213869Y8513D01*
X213914Y8456D01*
X213956Y8398D01*
X213995Y8337D01*
X214031Y8274D01*
X214063Y8209D01*
X214091Y8143D01*
X214116Y8075D01*
X214137Y8006D01*
X214155Y7936D01*
X214168Y7865D01*
X214178Y7793D01*
X214184Y7721D01*
X214186Y7649D01*
X214184Y7577D01*
X214178Y7505D01*
X214168Y7433D01*
X214155Y7362D01*
X214137Y7292D01*
X214116Y7223D01*
X214091Y7155D01*
X214063Y7089D01*
X214031Y7024D01*
X213995Y6961D01*
X213956Y6900D01*
X213914Y6842D01*
X213869Y6785D01*
X213820Y6732D01*
X213769Y6681D01*
X213716Y6632D01*
X213659Y6587D01*
X213601Y6545D01*
X213540Y6506D01*
X213477Y6470D01*
X213412Y6438D01*
X213346Y6410D01*
X213278Y6385D01*
X213209Y6364D01*
X213139Y6346D01*
X213068Y6333D01*
X212996Y6323D01*
X212924Y6317D01*
X212852Y6315D01*
X211137Y6315D01*
X211137Y9744D01*
X211139Y9810D01*
X211145Y9877D01*
X211154Y9942D01*
X211168Y10008D01*
X211185Y10072D01*
X211206Y10135D01*
X211230Y10197D01*
X211259Y10257D01*
X211290Y10316D01*
X211325Y10372D01*
X211363Y10427D01*
X211404Y10479D01*
X211449Y10528D01*
X211496Y10575D01*
X211545Y10620D01*
X211597Y10661D01*
X211652Y10699D01*
X211709Y10734D01*
X211767Y10765D01*
X211827Y10794D01*
X211889Y10818D01*
X211952Y10839D01*
X212016Y10856D01*
X212082Y10870D01*
X212147Y10879D01*
X212214Y10885D01*
X212280Y10887D01*
X213804Y10887D01*
X207239Y10887D02*
X207239Y6315D01*
X207239Y10887D02*
X204953Y10887D01*
X204953Y10125D01*
X199433Y13173D02*
X199433Y6315D01*
X201338Y6315D01*
X201404Y6317D01*
X201471Y6323D01*
X201536Y6332D01*
X201602Y6346D01*
X201666Y6363D01*
X201729Y6384D01*
X201791Y6408D01*
X201851Y6437D01*
X201910Y6468D01*
X201966Y6503D01*
X202021Y6541D01*
X202073Y6582D01*
X202122Y6627D01*
X202169Y6674D01*
X202214Y6723D01*
X202255Y6775D01*
X202293Y6830D01*
X202328Y6887D01*
X202359Y6945D01*
X202388Y7005D01*
X202412Y7067D01*
X202433Y7130D01*
X202450Y7194D01*
X202464Y7260D01*
X202473Y7325D01*
X202479Y7392D01*
X202481Y7458D01*
X202481Y9744D01*
X202479Y9810D01*
X202473Y9877D01*
X202464Y9942D01*
X202450Y10008D01*
X202433Y10072D01*
X202412Y10135D01*
X202388Y10197D01*
X202359Y10257D01*
X202328Y10316D01*
X202293Y10372D01*
X202255Y10427D01*
X202214Y10479D01*
X202169Y10528D01*
X202122Y10575D01*
X202073Y10620D01*
X202021Y10661D01*
X201966Y10699D01*
X201910Y10734D01*
X201851Y10765D01*
X201791Y10794D01*
X201729Y10818D01*
X201666Y10839D01*
X201602Y10856D01*
X201536Y10870D01*
X201471Y10879D01*
X201404Y10885D01*
X201338Y10887D01*
X199433Y10887D01*
X195872Y10887D02*
X194729Y6315D01*
X193586Y9363D01*
X192443Y6315D01*
X191300Y10887D01*
X186761Y8982D02*
X185047Y8982D01*
X186761Y8983D02*
X186833Y8981D01*
X186905Y8975D01*
X186977Y8965D01*
X187048Y8952D01*
X187118Y8934D01*
X187187Y8913D01*
X187255Y8888D01*
X187321Y8860D01*
X187386Y8828D01*
X187449Y8792D01*
X187510Y8753D01*
X187568Y8711D01*
X187625Y8666D01*
X187678Y8617D01*
X187729Y8566D01*
X187778Y8513D01*
X187823Y8456D01*
X187865Y8398D01*
X187904Y8337D01*
X187940Y8274D01*
X187972Y8209D01*
X188000Y8143D01*
X188025Y8075D01*
X188046Y8006D01*
X188064Y7936D01*
X188077Y7865D01*
X188087Y7793D01*
X188093Y7721D01*
X188095Y7649D01*
X188093Y7577D01*
X188087Y7505D01*
X188077Y7433D01*
X188064Y7362D01*
X188046Y7292D01*
X188025Y7223D01*
X188000Y7155D01*
X187972Y7089D01*
X187940Y7024D01*
X187904Y6961D01*
X187865Y6900D01*
X187823Y6842D01*
X187778Y6785D01*
X187729Y6732D01*
X187678Y6681D01*
X187625Y6632D01*
X187568Y6587D01*
X187510Y6545D01*
X187449Y6506D01*
X187386Y6470D01*
X187321Y6438D01*
X187255Y6410D01*
X187187Y6385D01*
X187118Y6364D01*
X187048Y6346D01*
X186977Y6333D01*
X186905Y6323D01*
X186833Y6317D01*
X186761Y6315D01*
X185047Y6315D01*
X185047Y9744D01*
X185049Y9810D01*
X185055Y9877D01*
X185064Y9942D01*
X185078Y10008D01*
X185095Y10072D01*
X185116Y10135D01*
X185140Y10197D01*
X185169Y10257D01*
X185200Y10316D01*
X185235Y10372D01*
X185273Y10427D01*
X185314Y10479D01*
X185359Y10528D01*
X185406Y10575D01*
X185455Y10620D01*
X185507Y10661D01*
X185562Y10699D01*
X185619Y10734D01*
X185677Y10765D01*
X185737Y10794D01*
X185799Y10818D01*
X185862Y10839D01*
X185926Y10856D01*
X185992Y10870D01*
X186057Y10879D01*
X186124Y10885D01*
X186190Y10887D01*
X187714Y10887D01*
X181149Y10887D02*
X181149Y6315D01*
X181149Y10887D02*
X178863Y10887D01*
X178863Y10125D01*
X175192Y6315D02*
X173287Y6315D01*
X175192Y6315D02*
X175258Y6317D01*
X175325Y6323D01*
X175390Y6332D01*
X175456Y6346D01*
X175520Y6363D01*
X175583Y6384D01*
X175645Y6408D01*
X175705Y6437D01*
X175764Y6468D01*
X175820Y6503D01*
X175875Y6541D01*
X175927Y6582D01*
X175976Y6627D01*
X176023Y6674D01*
X176068Y6723D01*
X176109Y6775D01*
X176147Y6830D01*
X176182Y6887D01*
X176213Y6945D01*
X176242Y7005D01*
X176266Y7067D01*
X176287Y7130D01*
X176304Y7194D01*
X176318Y7260D01*
X176327Y7325D01*
X176333Y7392D01*
X176335Y7458D01*
X176335Y9363D01*
X176333Y9440D01*
X176327Y9517D01*
X176317Y9594D01*
X176304Y9670D01*
X176286Y9745D01*
X176265Y9819D01*
X176240Y9892D01*
X176211Y9964D01*
X176179Y10034D01*
X176144Y10103D01*
X176104Y10169D01*
X176062Y10234D01*
X176016Y10296D01*
X175967Y10356D01*
X175916Y10413D01*
X175861Y10468D01*
X175804Y10519D01*
X175744Y10568D01*
X175682Y10614D01*
X175617Y10656D01*
X175551Y10696D01*
X175482Y10731D01*
X175412Y10763D01*
X175340Y10792D01*
X175267Y10817D01*
X175193Y10838D01*
X175118Y10856D01*
X175042Y10869D01*
X174965Y10879D01*
X174888Y10885D01*
X174811Y10887D01*
X174734Y10885D01*
X174657Y10879D01*
X174580Y10869D01*
X174504Y10856D01*
X174429Y10838D01*
X174355Y10817D01*
X174282Y10792D01*
X174210Y10763D01*
X174140Y10731D01*
X174071Y10696D01*
X174005Y10656D01*
X173940Y10614D01*
X173878Y10568D01*
X173818Y10519D01*
X173761Y10468D01*
X173706Y10413D01*
X173655Y10356D01*
X173606Y10296D01*
X173560Y10234D01*
X173518Y10169D01*
X173478Y10103D01*
X173443Y10034D01*
X173411Y9964D01*
X173382Y9892D01*
X173357Y9819D01*
X173336Y9745D01*
X173318Y9670D01*
X173305Y9594D01*
X173295Y9517D01*
X173289Y9440D01*
X173287Y9363D01*
X173287Y8601D01*
X176335Y8601D01*
M02*
