M48
;GenerationSoftware,Autodesk,EAGLE,9.6.0*%
;CreationDate,2020-04-04T20:22:47Z*%
FMAT,2
ICI,OFF
METRIC,TZ,000.000
T6C0.200
T5C0.300
T4C0.500
T3C0.900
T2C1.000
T1C2.200
%
G90
M71
T1
X47800Y2200
X2200Y2200
X2200Y47800
X47800Y47800
T2
X33300Y38550
X35600Y44100
X34250Y22750
X34300Y6950
X35600Y12500
X35550Y28300
T3
X37600Y38400
X37700Y43800
X37600Y22600
X37700Y28000
X37600Y6800
X37700Y12200
X46650Y13850
X14250Y26875
X18550Y21650
X16500Y25300
X5450Y25600
X45900Y45250
X48950Y29850
T4
X28550Y22450
X28000Y33600
X46000Y35950
X28650Y38700
X28450Y49150
X47150Y36000
X17500Y31950
X7750Y34950
X49200Y20100
X5250Y35050
X19850Y32050
X28200Y17150
X28150Y6450
X22550Y15450
T5
X6150Y35500
X5250Y36250
X13350Y41050
X12150Y39600
X12150Y40350
X15600Y43050
X16300Y43050
X14000Y41500
X16700Y44350
X14000Y44350
X11300Y44350
X12600Y43000
X18250Y43600
X17000Y43050
X19950Y33650
X12900Y31000
X11200Y34450
X6100Y34650
X7850Y28200
X15000Y6600
X16000Y6150
X12500Y7000
X8100Y15150
X3400Y42150
X2700Y42900
X2650Y40050
X3950Y37200
X12150Y3800
X22150Y650
X46500Y30700
X46200Y33750
X23850Y7950
X22300Y7250
X24250Y7100
X19350Y32850
X18650Y32200
X1900Y7400
X3600Y7050
X9750Y25850
X4750Y5550
X31550Y33700
X30850Y33700
X30150Y33700
X29450Y33700
X28800Y33700
X33650Y33700
X32950Y33700
X32250Y33700
X28050Y34400
X28050Y35100
X42100Y33500
X28050Y36500
X28050Y37200
X28050Y37900
X27850Y38600
X32250Y37200
X31550Y37200
X30850Y36500
X30850Y37200
X31550Y36500
X30850Y35800
X31550Y35800
X30850Y35100
X31550Y35100
X32250Y36500
X32250Y35800
X32950Y35800
X32950Y36500
X32950Y37200
X32250Y35100
X32950Y35100
X15550Y36350
X12900Y32350
X21350Y650
X19350Y7050
X19800Y3900
X21700Y5150
X16700Y13550
X2400Y31250
X5000Y28550
X11700Y35050
X17650Y5150
X5950Y2500
X44300Y49300
X43350Y49300
X42300Y49300
X39900Y49300
X40700Y49300
X39100Y49300
X33550Y49350
X32700Y49350
X30400Y49350
X31300Y49350
X29500Y49350
X28550Y48400
X29450Y38600
X31550Y37900
X30850Y38600
X30150Y38600
X32950Y34400
X32250Y34400
X31550Y34400
X30850Y34400
X30150Y36500
X30150Y37200
X30150Y35800
X30150Y35100
X30150Y34400
X29450Y36500
X29450Y37200
X29450Y35800
X29450Y35100
X29450Y34400
X28750Y36500
X28750Y37200
X28750Y35800
X28750Y35100
X28750Y34400
X30850Y37900
X30150Y37900
X29450Y37900
X28750Y37900
X28150Y40400
X37850Y34150
X39300Y33500
X40000Y33500
X40700Y33500
X41400Y33500
X42800Y33500
X43500Y33500
X31350Y17900
X30650Y17900
X29950Y17900
X29250Y17900
X28550Y17900
X34150Y17900
X33450Y17900
X32750Y17900
X32050Y17900
X37850Y18400
X27850Y18600
X27850Y19300
X27850Y20000
X27850Y20700
X27850Y21400
X27850Y22700
X32050Y21400
X31350Y21400
X30650Y20700
X30650Y21400
X31350Y20700
X30650Y20000
X31350Y20000
X30650Y19300
X31350Y19300
X32050Y20700
X32050Y20000
X32750Y20000
X32750Y20700
X32050Y19300
X32750Y19300
X44200Y33500
X45150Y32250
X29250Y22800
X30650Y22800
X29950Y22800
X32750Y18600
X32050Y18600
X31350Y18600
X30650Y18600
X29950Y20700
X29950Y21400
X29950Y20000
X29950Y19300
X29950Y18600
X29250Y20700
X29250Y21400
X29250Y20000
X29250Y19300
X29250Y18600
X28550Y20700
X28550Y21400
X28550Y20000
X28550Y19300
X28550Y18600
X30650Y22100
X29950Y22100
X29250Y22100
X27850Y22050
X31350Y22100
X28100Y24800
X36500Y18400
X37200Y18400
X39350Y17700
X40050Y17700
X40750Y17700
X41450Y17700
X42150Y17700
X42850Y17700
X43550Y17700
X36425Y38750
X36350Y7125
X36425Y22975
X31600Y2150
X30800Y2150
X30000Y2150
X29200Y2150
X28400Y2150
X34800Y2150
X34000Y2150
X33200Y2150
X32400Y2150
X35800Y3550
X36500Y2850
X35800Y2850
X37200Y2150
X36400Y2150
X35600Y2150
X28100Y4950
X28100Y5650
X39200Y1800
X27400Y5350
X32300Y5650
X31600Y5650
X30900Y4950
X30900Y5650
X31600Y4950
X30900Y4250
X31600Y4250
X30900Y3550
X31600Y3550
X32300Y4950
X32300Y4250
X33000Y4250
X33000Y4950
X32300Y3550
X33000Y3550
X28600Y16450
X28950Y6350
X31050Y6350
X33000Y2850
X32300Y2850
X31600Y2850
X30900Y2850
X30200Y4950
X30200Y5650
X30200Y4250
X30200Y3550
X30200Y2850
X29500Y4950
X29500Y5650
X29500Y4250
X29500Y3550
X29500Y2850
X28800Y4950
X28800Y5650
X28800Y4250
X28800Y3550
X28800Y2850
X31750Y6350
X30350Y6350
X29650Y6350
X28950Y7050
X27450Y9200
X28000Y1550
X28800Y1550
X29600Y1550
X30400Y1550
X31200Y1550
X32000Y1550
X32800Y1550
X33600Y1550
X34400Y1550
X21000Y28900
X15400Y31300
X14800Y11500
X21700Y9900
X24700Y1550
X35200Y1550
X36000Y1550
X36800Y1550
X31550Y38600
X32250Y37900
X31200Y39200
X44250Y17700
X19300Y48750
X22350Y48750
X11350Y19250
X14250Y20000
X20600Y9900
X19800Y9900
X19000Y9900
X6700Y25700
X10300Y26600
X9050Y25000
X5750Y17350
X7100Y14900
X6500Y14150
X7800Y14100
X8800Y14200
X2650Y15200
X7250Y11750
X2600Y13600
X9300Y12300
X5900Y13200
X37200Y2850
X38000Y2150
X37600Y1550
X37100Y19100
X14750Y10800
X10950Y6900
X12500Y8900
X21900Y33600
X22000Y32600
X17100Y7850
X18200Y9900
X23650Y10000
X22650Y13350
X15200Y10000
X22950Y10750
X26300Y7850
X31100Y9150
X18400Y29400
X21000Y32150
X20750Y32800
X19650Y34600
X18700Y35800
X20900Y35900
X21950Y34850
X20900Y34350
X22300Y31800
X22800Y28600
X19900Y36900
X18750Y33400
X21850Y36000
X10100Y30750
X10450Y33700
X6750Y27950
X8650Y27450
X6150Y28600
X5250Y40800
X3700Y43550
X1050Y45250
X650Y41500
X650Y43800
X800Y39700
X800Y33700
X3900Y35150
X4150Y34100
X1150Y32000
X650Y30800
X1200Y29050
X700Y25700
X2350Y29950
X2550Y22500
X2450Y25700
X1500Y24900
X1500Y26400
X1500Y22650
X800Y21650
X1350Y20550
X700Y19400
X1400Y18300
X650Y17500
X700Y15200
X1550Y14550
X23850Y12000
X24600Y10100
X24500Y11150
X5500Y5000
X4000Y4750
X5050Y2350
X4550Y3700
X650Y6700
X850Y9450
X1300Y11350
X1600Y8850
X2650Y6350
X3800Y5550
X25600Y10000
X4000Y49350
X17850Y49050
X49250Y45600
X47600Y45500
X46550Y35000
X48800Y34450
X48800Y32350
X49250Y19150
X48800Y15550
X48500Y18800
X47100Y16550
X44100Y650
X38400Y1550
X40450Y1850
X41950Y1850
X46500Y4600
X49250Y4550
X46300Y15450
X20450Y35100
X19750Y35850
X47500Y34600
X45950Y34600
X46250Y16200
X48800Y17650
X47100Y18650
X47550Y15350
X34400Y49350
X41500Y49300
X17600Y22350
X5900Y15500
X48250Y31400
X31350Y22800
X32050Y22100
X27850Y17900
X29650Y7050
X30350Y7050
X31050Y7050
X31750Y7050
X14000Y43000
X2050Y32700
X3150Y36050
X11700Y41350
X21600Y37150
X10350Y29250
X10650Y32650
X10000Y39000
X10900Y39000
X10900Y38100
X10000Y38100
X10000Y37200
X10900Y37200
X30500Y39200
X29800Y39200
X28100Y39300
X36500Y4300
X15850Y21450
X37400Y4300
X21500Y22150
X36600Y20050
X16300Y24150
X37650Y20050
X18150Y27000
X11400Y21950
X36550Y35850
X37350Y35850
X16800Y29600
X18450Y34500
X11300Y29050
X16750Y5450
X17200Y9750
X7400Y13100
X47200Y33750
X16400Y28650
X21650Y24800
X20000Y28900
X25200Y4300
X26550Y2050
X6125Y23575
X20300Y8100
X8500Y34300
X10550Y19250
X35150Y8900
X10600Y20150
X35200Y24350
X35250Y40150
X7450Y20350
X9800Y18900
X35200Y25150
X11950Y18550
X34850Y9700
X35250Y40950
X7500Y19050
X15750Y20650
X19800Y21400
X13800Y21950
X47350Y30700
X8550Y22150
X15550Y19850
X21450Y20250
X14550Y19050
X10100Y13350
X9600Y9600
X10650Y17000
X13900Y10500
X10650Y17950
X12500Y6000
X12050Y12600
X12850Y29700
X13000Y12400
X12200Y28925
X16300Y34650
X14000Y47150
X16700Y47550
X35250Y7850
X19300Y8800
X35575Y22975
X27050Y6150
X35600Y38750
X1700Y42900
X16700Y48300
X16700Y46800
X2100Y43700
X2600Y44200
X25250Y8900
X5250Y37750
X11300Y47150
X8350Y24500
X22450Y24900
X19850Y24850
X41250Y5150
X41250Y4300
X42850Y5150
X44400Y5150
X42850Y4300
X44400Y4300
X41250Y3450
X42850Y3450
X44400Y3450
X41250Y6000
X42850Y6000
X44400Y6000
X41250Y20950
X41250Y20100
X42850Y20950
X44400Y20950
X42850Y20100
X44400Y20100
X41250Y19250
X19600Y3100
X44400Y19250
X41250Y21800
X42850Y21800
X44400Y21800
X41250Y36750
X41250Y35900
X42850Y36750
X44400Y36750
X42850Y35900
X44400Y35900
X41250Y35050
X42850Y35050
X44400Y35050
X41250Y37600
X42850Y37600
X44400Y37600
X6150Y31800
X9700Y31800
X3600Y18750
X3600Y20025
X6600Y10650
X6750Y7050
X11250Y11300
X10900Y8300
X10900Y9400
X1700Y36300
X3550Y10550
X3550Y21900
X900Y37200
X900Y36300
X11900Y15650
X14750Y17650
X19200Y14850
X12250Y13450
X17450Y14850
X15900Y18400
X21450Y14850
X15050Y18400
X20200Y14850
X14100Y15750
X18350Y14850
X19550Y26400
X22750Y27300
X10900Y13250
X6500Y16500
X22500Y4950
X20000Y5400
X19600Y4700
X23300Y5000
X28050Y35800
X12400Y21950
X9800Y16400
X14900Y15850
X9300Y11500
X10550Y21950
X13875Y24975
X9750Y25000
X20300Y20500
X21450Y17450
X18500Y15650
X700Y13600
X22750Y36600
X12150Y36450
X10450Y36000
X11300Y36000
X9550Y36000
X8800Y37100
X10650Y40200
X11350Y40200
X9950Y40200
X42850Y19250
T6
X44050Y44000
X42450Y44000
X39650Y9200
X41250Y9200
X42850Y9200
X44050Y9200
X39650Y40800
X42850Y25000
X41250Y25000
X39650Y25000
X44050Y25000
X41250Y40800
X42850Y40800
X44550Y40800
X40850Y44000
X39250Y28200
X39250Y12400
X39250Y44000
X40850Y12400
X42450Y12400
X44050Y12400
X44050Y28200
X42450Y28200
X40850Y28200
M30