G04 EAGLE Gerber RS-274X export*
G75*
%MOMM*%
%FSLAX34Y34*%
%LPD*%
%INBoard Outline*%
%IPPOS*%
%AMOC8*
5,1,8,0,0,1.08239X$1,22.5*%
G01*
%ADD10C,0.254000*%


D10*
X0Y22000D02*
X84Y20083D01*
X334Y18180D01*
X750Y16306D01*
X1327Y14476D01*
X2061Y12702D01*
X2947Y11000D01*
X3979Y9381D01*
X5147Y7859D01*
X6444Y6444D01*
X7859Y5147D01*
X9381Y3979D01*
X11000Y2947D01*
X12702Y2061D01*
X14476Y1327D01*
X16306Y750D01*
X18180Y334D01*
X20083Y84D01*
X22000Y0D01*
X114500Y0D01*
X114849Y15D01*
X115195Y61D01*
X115535Y136D01*
X115868Y241D01*
X116191Y375D01*
X116500Y536D01*
X116794Y723D01*
X117071Y936D01*
X117328Y1172D01*
X117564Y1429D01*
X117777Y1706D01*
X117964Y2000D01*
X118125Y2310D01*
X118259Y2632D01*
X118364Y2965D01*
X118439Y3305D01*
X118485Y3651D01*
X118500Y4000D01*
X118500Y28000D01*
X118511Y28261D01*
X118546Y28521D01*
X118602Y28776D01*
X118681Y29026D01*
X118781Y29268D01*
X118902Y29500D01*
X119043Y29721D01*
X119202Y29928D01*
X119379Y30121D01*
X119572Y30298D01*
X119779Y30457D01*
X120000Y30598D01*
X120232Y30719D01*
X120474Y30819D01*
X120724Y30898D01*
X120979Y30954D01*
X121239Y30989D01*
X121500Y31000D01*
X121761Y30989D01*
X122021Y30954D01*
X122276Y30898D01*
X122526Y30819D01*
X122768Y30719D01*
X123000Y30598D01*
X123221Y30457D01*
X123428Y30298D01*
X123621Y30121D01*
X123798Y29928D01*
X123957Y29721D01*
X124098Y29500D01*
X124219Y29268D01*
X124319Y29026D01*
X124398Y28776D01*
X124454Y28521D01*
X124489Y28261D01*
X124500Y28000D01*
X124500Y4000D01*
X124515Y3651D01*
X124561Y3305D01*
X124636Y2965D01*
X124741Y2632D01*
X124875Y2310D01*
X125036Y2000D01*
X125223Y1706D01*
X125436Y1429D01*
X125672Y1172D01*
X125929Y936D01*
X126206Y723D01*
X126500Y536D01*
X126810Y375D01*
X127132Y241D01*
X127465Y136D01*
X127805Y61D01*
X128151Y15D01*
X128500Y0D01*
X728000Y0D01*
X729917Y84D01*
X731820Y334D01*
X733694Y750D01*
X735524Y1327D01*
X737298Y2061D01*
X739000Y2947D01*
X740619Y3979D01*
X742141Y5147D01*
X743556Y6444D01*
X744853Y7859D01*
X746021Y9381D01*
X747053Y11000D01*
X747939Y12702D01*
X748673Y14476D01*
X749250Y16306D01*
X749666Y18180D01*
X749916Y20083D01*
X750000Y22000D01*
X750000Y64000D01*
X749983Y64392D01*
X749932Y64781D01*
X749847Y65165D01*
X749729Y65539D01*
X749578Y65902D01*
X749397Y66250D01*
X749186Y66581D01*
X748947Y66893D01*
X748682Y67182D01*
X748393Y67447D01*
X748081Y67686D01*
X747750Y67897D01*
X747402Y68078D01*
X747039Y68229D01*
X746665Y68347D01*
X746281Y68432D01*
X745892Y68483D01*
X745500Y68500D01*
X720000Y68500D01*
X719608Y68517D01*
X719219Y68568D01*
X718835Y68653D01*
X718461Y68771D01*
X718098Y68922D01*
X717750Y69103D01*
X717419Y69314D01*
X717107Y69553D01*
X716818Y69818D01*
X716553Y70107D01*
X716314Y70419D01*
X716103Y70750D01*
X715922Y71098D01*
X715771Y71461D01*
X715653Y71835D01*
X715568Y72219D01*
X715517Y72608D01*
X715500Y73000D01*
X715517Y73392D01*
X715568Y73781D01*
X715653Y74165D01*
X715771Y74539D01*
X715922Y74902D01*
X716103Y75250D01*
X716314Y75581D01*
X716553Y75893D01*
X716818Y76182D01*
X717107Y76447D01*
X717419Y76686D01*
X717750Y76897D01*
X718098Y77078D01*
X718461Y77229D01*
X718835Y77347D01*
X719219Y77432D01*
X719608Y77483D01*
X720000Y77500D01*
X745500Y77500D01*
X745892Y77517D01*
X746281Y77568D01*
X746665Y77653D01*
X747039Y77771D01*
X747402Y77922D01*
X747750Y78103D01*
X748081Y78314D01*
X748393Y78553D01*
X748682Y78818D01*
X748947Y79107D01*
X749186Y79419D01*
X749397Y79750D01*
X749578Y80098D01*
X749729Y80461D01*
X749847Y80835D01*
X749932Y81219D01*
X749983Y81608D01*
X750000Y82000D01*
X750000Y103000D01*
X749983Y103392D01*
X749932Y103781D01*
X749847Y104165D01*
X749729Y104539D01*
X749578Y104902D01*
X749397Y105250D01*
X749186Y105581D01*
X748947Y105893D01*
X748682Y106182D01*
X748393Y106447D01*
X748081Y106686D01*
X747750Y106897D01*
X747402Y107078D01*
X747039Y107229D01*
X746665Y107347D01*
X746281Y107432D01*
X745892Y107483D01*
X745500Y107500D01*
X720000Y107500D01*
X719608Y107517D01*
X719219Y107568D01*
X718835Y107653D01*
X718461Y107771D01*
X718098Y107922D01*
X717750Y108103D01*
X717419Y108314D01*
X717107Y108553D01*
X716818Y108818D01*
X716553Y109107D01*
X716314Y109419D01*
X716103Y109750D01*
X715922Y110098D01*
X715771Y110461D01*
X715653Y110835D01*
X715568Y111219D01*
X715517Y111608D01*
X715500Y112000D01*
X715517Y112392D01*
X715568Y112781D01*
X715653Y113165D01*
X715771Y113539D01*
X715922Y113902D01*
X716103Y114250D01*
X716314Y114581D01*
X716553Y114893D01*
X716818Y115182D01*
X717107Y115447D01*
X717419Y115686D01*
X717750Y115897D01*
X718098Y116078D01*
X718461Y116229D01*
X718835Y116347D01*
X719219Y116432D01*
X719608Y116483D01*
X720000Y116500D01*
X745500Y116500D01*
X745851Y116472D01*
X746202Y116474D01*
X746552Y116507D01*
X746898Y116570D01*
X747237Y116663D01*
X747567Y116786D01*
X747885Y116937D01*
X748188Y117114D01*
X748475Y117318D01*
X748743Y117546D01*
X748990Y117796D01*
X749214Y118067D01*
X749414Y118356D01*
X749588Y118662D01*
X749734Y118982D01*
X749852Y119313D01*
X749941Y119653D01*
X750000Y120000D01*
X750000Y221500D01*
X749983Y221892D01*
X749932Y222281D01*
X749847Y222665D01*
X749729Y223039D01*
X749578Y223402D01*
X749397Y223750D01*
X749186Y224081D01*
X748947Y224393D01*
X748682Y224682D01*
X748393Y224947D01*
X748081Y225186D01*
X747750Y225397D01*
X747402Y225578D01*
X747039Y225729D01*
X746665Y225847D01*
X746281Y225932D01*
X745892Y225983D01*
X745500Y226000D01*
X720000Y226000D01*
X719608Y226017D01*
X719219Y226068D01*
X718835Y226153D01*
X718461Y226271D01*
X718098Y226422D01*
X717750Y226603D01*
X717419Y226814D01*
X717107Y227053D01*
X716818Y227318D01*
X716553Y227607D01*
X716314Y227919D01*
X716103Y228250D01*
X715922Y228598D01*
X715771Y228961D01*
X715653Y229335D01*
X715568Y229719D01*
X715517Y230108D01*
X715500Y230500D01*
X715517Y230892D01*
X715568Y231281D01*
X715653Y231665D01*
X715771Y232039D01*
X715922Y232402D01*
X716103Y232750D01*
X716314Y233081D01*
X716553Y233393D01*
X716818Y233682D01*
X717107Y233947D01*
X717419Y234186D01*
X717750Y234397D01*
X718098Y234578D01*
X718461Y234729D01*
X718835Y234847D01*
X719219Y234932D01*
X719608Y234983D01*
X720000Y235000D01*
X745500Y235000D01*
X745892Y235017D01*
X746281Y235068D01*
X746665Y235153D01*
X747039Y235271D01*
X747402Y235422D01*
X747750Y235603D01*
X748081Y235814D01*
X748393Y236053D01*
X748682Y236318D01*
X748947Y236607D01*
X749186Y236919D01*
X749397Y237250D01*
X749578Y237598D01*
X749729Y237961D01*
X749847Y238335D01*
X749932Y238719D01*
X749983Y239108D01*
X750000Y239500D01*
X750000Y260500D01*
X749983Y260892D01*
X749932Y261281D01*
X749847Y261665D01*
X749729Y262039D01*
X749578Y262402D01*
X749397Y262750D01*
X749186Y263081D01*
X748947Y263393D01*
X748682Y263682D01*
X748393Y263947D01*
X748081Y264186D01*
X747750Y264397D01*
X747402Y264578D01*
X747039Y264729D01*
X746665Y264847D01*
X746281Y264932D01*
X745892Y264983D01*
X745500Y265000D01*
X720000Y265000D01*
X719608Y265017D01*
X719219Y265068D01*
X718835Y265153D01*
X718461Y265271D01*
X718098Y265422D01*
X717750Y265603D01*
X717419Y265814D01*
X717107Y266053D01*
X716818Y266318D01*
X716553Y266607D01*
X716314Y266919D01*
X716103Y267250D01*
X715922Y267598D01*
X715771Y267961D01*
X715653Y268335D01*
X715568Y268719D01*
X715517Y269108D01*
X715500Y269500D01*
X715517Y269892D01*
X715568Y270281D01*
X715653Y270665D01*
X715771Y271039D01*
X715922Y271402D01*
X716103Y271750D01*
X716314Y272081D01*
X716553Y272393D01*
X716818Y272682D01*
X717107Y272947D01*
X717419Y273186D01*
X717750Y273397D01*
X718098Y273578D01*
X718461Y273729D01*
X718835Y273847D01*
X719219Y273932D01*
X719608Y273983D01*
X720000Y274000D01*
X745500Y274000D01*
X745851Y273972D01*
X746202Y273974D01*
X746552Y274007D01*
X746898Y274070D01*
X747237Y274163D01*
X747567Y274286D01*
X747885Y274437D01*
X748188Y274614D01*
X748475Y274818D01*
X748743Y275046D01*
X748990Y275296D01*
X749214Y275567D01*
X749414Y275856D01*
X749588Y276162D01*
X749734Y276482D01*
X749852Y276813D01*
X749941Y277153D01*
X750000Y277500D01*
X750000Y379000D01*
X749983Y379392D01*
X749932Y379781D01*
X749847Y380165D01*
X749729Y380539D01*
X749578Y380902D01*
X749397Y381250D01*
X749186Y381581D01*
X748947Y381893D01*
X748682Y382182D01*
X748393Y382447D01*
X748081Y382686D01*
X747750Y382897D01*
X747402Y383078D01*
X747039Y383229D01*
X746665Y383347D01*
X746281Y383432D01*
X745892Y383483D01*
X745500Y383500D01*
X720000Y383500D01*
X719608Y383517D01*
X719219Y383568D01*
X718835Y383653D01*
X718461Y383771D01*
X718098Y383922D01*
X717750Y384103D01*
X717419Y384314D01*
X717107Y384553D01*
X716818Y384818D01*
X716553Y385107D01*
X716314Y385419D01*
X716103Y385750D01*
X715922Y386098D01*
X715771Y386461D01*
X715653Y386835D01*
X715568Y387219D01*
X715517Y387608D01*
X715500Y388000D01*
X715517Y388392D01*
X715568Y388781D01*
X715653Y389165D01*
X715771Y389539D01*
X715922Y389902D01*
X716103Y390250D01*
X716314Y390581D01*
X716553Y390893D01*
X716818Y391182D01*
X717107Y391447D01*
X717419Y391686D01*
X717750Y391897D01*
X718098Y392078D01*
X718461Y392229D01*
X718835Y392347D01*
X719219Y392432D01*
X719608Y392483D01*
X720000Y392500D01*
X745500Y392500D01*
X745892Y392517D01*
X746281Y392568D01*
X746665Y392653D01*
X747039Y392771D01*
X747402Y392922D01*
X747750Y393103D01*
X748081Y393314D01*
X748393Y393553D01*
X748682Y393818D01*
X748947Y394107D01*
X749186Y394419D01*
X749397Y394750D01*
X749578Y395098D01*
X749729Y395461D01*
X749847Y395835D01*
X749932Y396219D01*
X749983Y396608D01*
X750000Y397000D01*
X750000Y418000D01*
X749983Y418392D01*
X749932Y418781D01*
X749847Y419165D01*
X749729Y419539D01*
X749578Y419902D01*
X749397Y420250D01*
X749186Y420581D01*
X748947Y420893D01*
X748682Y421182D01*
X748393Y421447D01*
X748081Y421686D01*
X747750Y421897D01*
X747402Y422078D01*
X747039Y422229D01*
X746665Y422347D01*
X746281Y422432D01*
X745892Y422483D01*
X745500Y422500D01*
X720000Y422500D01*
X719608Y422517D01*
X719219Y422568D01*
X718835Y422653D01*
X718461Y422771D01*
X718098Y422922D01*
X717750Y423103D01*
X717419Y423314D01*
X717107Y423553D01*
X716818Y423818D01*
X716553Y424107D01*
X716314Y424419D01*
X716103Y424750D01*
X715922Y425098D01*
X715771Y425461D01*
X715653Y425835D01*
X715568Y426219D01*
X715517Y426608D01*
X715500Y427000D01*
X715517Y427392D01*
X715568Y427781D01*
X715653Y428165D01*
X715771Y428539D01*
X715922Y428902D01*
X716103Y429250D01*
X716314Y429581D01*
X716553Y429893D01*
X716818Y430182D01*
X717107Y430447D01*
X717419Y430686D01*
X717750Y430897D01*
X718098Y431078D01*
X718461Y431229D01*
X718835Y431347D01*
X719219Y431432D01*
X719608Y431483D01*
X720000Y431500D01*
X745500Y431500D01*
X745851Y431472D01*
X746202Y431474D01*
X746552Y431507D01*
X746898Y431570D01*
X747237Y431663D01*
X747567Y431786D01*
X747885Y431937D01*
X748188Y432114D01*
X748475Y432318D01*
X748743Y432546D01*
X748990Y432796D01*
X749214Y433067D01*
X749414Y433356D01*
X749588Y433662D01*
X749734Y433982D01*
X749852Y434313D01*
X749941Y434653D01*
X750000Y435000D01*
X750000Y478000D01*
X749916Y479917D01*
X749666Y481820D01*
X749250Y483694D01*
X748673Y485524D01*
X747939Y487298D01*
X747053Y489000D01*
X746021Y490619D01*
X744853Y492141D01*
X743556Y493556D01*
X742141Y494853D01*
X740619Y496021D01*
X739000Y497053D01*
X737298Y497939D01*
X735524Y498673D01*
X733694Y499250D01*
X731820Y499666D01*
X729917Y499916D01*
X728000Y500000D01*
X22000Y500000D01*
X20083Y499916D01*
X18180Y499666D01*
X16306Y499250D01*
X14476Y498673D01*
X12702Y497939D01*
X11000Y497053D01*
X9381Y496021D01*
X7859Y494853D01*
X6444Y493556D01*
X5147Y492141D01*
X3979Y490619D01*
X2947Y489000D01*
X2061Y487298D01*
X1327Y485524D01*
X750Y483694D01*
X334Y481820D01*
X84Y479917D01*
X0Y478000D01*
X0Y22000D01*
M02*
